<svg xmlns="http://www.w3.org/2000/svg" xmlns:xlink="http://www.w3.org/1999/xlink" contentStyleType="text/css" data-diagram-type="WBS" height="991px" preserveAspectRatio="none" style="width:688px;height:991px;background:#FFFFFF;" version="1.1" viewBox="0 0 688 991" width="688px" zoomAndPan="magnify"><defs/><g><line style="stroke:#181818;stroke-width:1.5;" x1="29.0205" x2="29.0205" y1="63.9688" y2="83.9688"/><rect fill="#F1F1F1" height="33.9688" style="stroke:#181818;stroke-width:1.5;" width="38.041" x="10" y="83.9688"/><text fill="#000000" font-family="sans-serif" font-size="12" lengthAdjust="spacing" textLength="18.041" x="20" y="105.1074">nix</text><line style="stroke:#181818;stroke-width:1.5;" x1="29.0205" x2="39.0205" y1="149.9219" y2="149.9219"/><rect fill="#F1F1F1" height="33.9688" style="stroke:#181818;stroke-width:1.5;" width="124.0684" x="39.0205" y="132.9375"/><text fill="#000000" font-family="sans-serif" font-size="12" lengthAdjust="spacing" textLength="104.0684" x="49.0205" y="154.0762">{the actual files}</text><line style="stroke:#181818;stroke-width:1.5;" x1="29.0205" x2="29.0205" y1="117.9375" y2="149.9219"/><line style="stroke:#181818;stroke-width:1.5;" x1="202.3672" x2="202.3672" y1="63.9688" y2="83.9688"/><rect fill="#F1F1F1" height="33.9688" style="stroke:#181818;stroke-width:1.5;" width="38.5566" x="183.0889" y="83.9688"/><text fill="#000000" font-family="sans-serif" font-size="12" lengthAdjust="spacing" textLength="18.5566" x="193.0889" y="105.1074">bin</text><line style="stroke:#181818;stroke-width:1.5;" x1="202.3672" x2="212.3672" y1="140.9219" y2="140.9219"/><text fill="#000000" font-family="sans-serif" font-size="12" lengthAdjust="spacing" textLength="35.7891" x="212.3672" y="145.0762">llvm-*</text><line style="stroke:#181818;stroke-width:1.5;" x1="202.3672" x2="212.3672" y1="171.8906" y2="171.8906"/><text fill="#000000" font-family="sans-serif" font-size="12" lengthAdjust="spacing" textLength="32.5078" x="212.3672" y="176.0449">clang</text><line style="stroke:#181818;stroke-width:1.5;" x1="202.3672" x2="212.3672" y1="202.8594" y2="202.8594"/><text fill="#000000" font-family="sans-serif" font-size="12" lengthAdjust="spacing" textLength="14.2852" x="212.3672" y="207.0137">lld</text><line style="stroke:#181818;stroke-width:1.5;" x1="202.3672" x2="202.3672" y1="117.9375" y2="202.8594"/><line style="stroke:#181818;stroke-width:1.5;" x1="288.2988" x2="288.2988" y1="63.9688" y2="83.9688"/><rect fill="#F1F1F1" height="33.9688" style="stroke:#181818;stroke-width:1.5;" width="34.2852" x="271.1563" y="83.9688"/><text fill="#000000" font-family="sans-serif" font-size="12" lengthAdjust="spacing" textLength="14.2852" x="281.1563" y="105.1074">lib</text><line style="stroke:#181818;stroke-width:1.5;" x1="288.2988" x2="298.2988" y1="140.9219" y2="140.9219"/><text fill="#000000" font-family="sans-serif" font-size="12" lengthAdjust="spacing" textLength="80.291" x="298.2988" y="145.0762">build dep libs</text><line style="stroke:#181818;stroke-width:1.5;" x1="288.2988" x2="288.2988" y1="117.9375" y2="140.9219"/><line style="stroke:#181818;stroke-width:1.5;" x1="433.5537" x2="433.5537" y1="63.9688" y2="83.9688"/><rect fill="#F1F1F1" height="33.9688" style="stroke:#181818;stroke-width:1.5;" width="63.9277" x="401.5898" y="83.9688"/><text fill="#000000" font-family="sans-serif" font-size="12" lengthAdjust="spacing" textLength="43.9277" x="411.5898" y="105.1074">sysroot</text><line style="stroke:#181818;stroke-width:1.5;" x1="433.5537" x2="443.5537" y1="149.9219" y2="149.9219"/><rect fill="#F1F1F1" height="33.9688" style="stroke:#181818;stroke-width:1.5;" width="182.9668" x="443.5537" y="132.9375"/><text fill="#000000" font-family="sans-serif" font-size="12" lengthAdjust="spacing" textLength="162.9668" x="453.5537" y="154.0762">x86_64-unknown-linux-gnu</text><line style="stroke:#181818;stroke-width:1.5;" x1="535.0371" x2="545.0371" y1="198.8906" y2="198.8906"/><rect fill="#F1F1F1" height="33.9688" style="stroke:#181818;stroke-width:1.5;" width="57.8398" x="545.0371" y="181.9063"/><text fill="#000000" font-family="sans-serif" font-size="12" lengthAdjust="spacing" textLength="37.8398" x="555.0371" y="203.0449">debug</text><line style="stroke:#181818;stroke-width:1.5;" x1="573.957" x2="583.957" y1="247.8594" y2="247.8594"/><rect fill="#F1F1F1" height="33.9688" style="stroke:#181818;stroke-width:1.5;" width="34.2852" x="583.957" y="230.875"/><text fill="#000000" font-family="sans-serif" font-size="12" lengthAdjust="spacing" textLength="14.2852" x="593.957" y="252.0137">lib</text><line style="stroke:#181818;stroke-width:1.5;" x1="601.0996" x2="611.0996" y1="287.8281" y2="287.8281"/><text fill="#000000" font-family="sans-serif" font-size="12" lengthAdjust="spacing" textLength="54.668" x="611.0996" y="291.9824">dpdk-libs</text><line style="stroke:#181818;stroke-width:1.5;" x1="601.0996" x2="611.0996" y1="318.7969" y2="318.7969"/><text fill="#000000" font-family="sans-serif" font-size="12" lengthAdjust="spacing" textLength="56.4609" x="611.0996" y="322.9512">rdma-libs</text><line style="stroke:#181818;stroke-width:1.5;" x1="601.0996" x2="611.0996" y1="349.7656" y2="349.7656"/><text fill="#000000" font-family="sans-serif" font-size="12" lengthAdjust="spacing" textLength="28.8691" x="611.0996" y="353.9199">deps</text><line style="stroke:#181818;stroke-width:1.5;" x1="601.0996" x2="601.0996" y1="264.8438" y2="349.7656"/><line style="stroke:#181818;stroke-width:1.5;" x1="573.957" x2="573.957" y1="215.875" y2="247.8594"/><line style="stroke:#181818;stroke-width:1.5;" x1="535.0371" x2="545.0371" y1="389.7344" y2="389.7344"/><rect fill="#F1F1F1" height="33.9688" style="stroke:#181818;stroke-width:1.5;" width="64.0215" x="545.0371" y="372.75"/><text fill="#000000" font-family="sans-serif" font-size="12" lengthAdjust="spacing" textLength="44.0215" x="555.0371" y="393.8887">release</text><line style="stroke:#181818;stroke-width:1.5;" x1="577.0479" x2="587.0479" y1="438.7031" y2="438.7031"/><rect fill="#F1F1F1" height="33.9688" style="stroke:#181818;stroke-width:1.5;" width="34.2852" x="587.0479" y="421.7188"/><text fill="#000000" font-family="sans-serif" font-size="12" lengthAdjust="spacing" textLength="14.2852" x="597.0479" y="442.8574">lib</text><line style="stroke:#181818;stroke-width:1.5;" x1="604.1904" x2="614.1904" y1="478.6719" y2="478.6719"/><text fill="#000000" font-family="sans-serif" font-size="12" lengthAdjust="spacing" textLength="54.668" x="614.1904" y="482.8262">dpdk-libs</text><line style="stroke:#181818;stroke-width:1.5;" x1="604.1904" x2="614.1904" y1="509.6406" y2="509.6406"/><text fill="#000000" font-family="sans-serif" font-size="12" lengthAdjust="spacing" textLength="56.4609" x="614.1904" y="513.7949">rdma-libs</text><line style="stroke:#181818;stroke-width:1.5;" x1="604.1904" x2="614.1904" y1="540.6094" y2="540.6094"/><text fill="#000000" font-family="sans-serif" font-size="12" lengthAdjust="spacing" textLength="28.8691" x="614.1904" y="544.7637">deps</text><line style="stroke:#181818;stroke-width:1.5;" x1="604.1904" x2="604.1904" y1="455.6875" y2="540.6094"/><line style="stroke:#181818;stroke-width:1.5;" x1="577.0479" x2="577.0479" y1="406.7188" y2="438.7031"/><line style="stroke:#181818;stroke-width:1.5;" x1="535.0371" x2="535.0371" y1="166.9063" y2="389.7344"/><line style="stroke:#181818;stroke-width:1.5;" x1="433.5537" x2="443.5537" y1="580.5781" y2="580.5781"/><rect fill="#F1F1F1" height="33.9688" style="stroke:#181818;stroke-width:1.5;" width="189.0195" x="443.5537" y="563.5938"/><text fill="#000000" font-family="sans-serif" font-size="12" lengthAdjust="spacing" textLength="169.0195" x="453.5537" y="584.7324">x86_64-unknown-linux-musl</text><line style="stroke:#181818;stroke-width:1.5;" x1="538.0635" x2="548.0635" y1="629.5469" y2="629.5469"/><rect fill="#F1F1F1" height="33.9688" style="stroke:#181818;stroke-width:1.5;" width="57.8398" x="548.0635" y="612.5625"/><text fill="#000000" font-family="sans-serif" font-size="12" lengthAdjust="spacing" textLength="37.8398" x="558.0635" y="633.7012">debug</text><line style="stroke:#181818;stroke-width:1.5;" x1="576.9834" x2="586.9834" y1="678.5156" y2="678.5156"/><rect fill="#F1F1F1" height="33.9688" style="stroke:#181818;stroke-width:1.5;" width="34.2852" x="586.9834" y="661.5313"/><text fill="#000000" font-family="sans-serif" font-size="12" lengthAdjust="spacing" textLength="14.2852" x="596.9834" y="682.6699">lib</text><line style="stroke:#181818;stroke-width:1.5;" x1="604.126" x2="614.126" y1="718.4844" y2="718.4844"/><text fill="#000000" font-family="sans-serif" font-size="12" lengthAdjust="spacing" textLength="54.668" x="614.126" y="722.6387">dpdk-libs</text><line style="stroke:#181818;stroke-width:1.5;" x1="604.126" x2="614.126" y1="749.4531" y2="749.4531"/><text fill="#000000" font-family="sans-serif" font-size="12" lengthAdjust="spacing" textLength="56.4609" x="614.126" y="753.6074">rdma-libs</text><line style="stroke:#181818;stroke-width:1.5;" x1="604.126" x2="614.126" y1="780.4219" y2="780.4219"/><text fill="#000000" font-family="sans-serif" font-size="12" lengthAdjust="spacing" textLength="28.8691" x="614.126" y="784.5762">deps</text><line style="stroke:#181818;stroke-width:1.5;" x1="604.126" x2="604.126" y1="695.5" y2="780.4219"/><line style="stroke:#181818;stroke-width:1.5;" x1="576.9834" x2="576.9834" y1="646.5313" y2="678.5156"/><line style="stroke:#181818;stroke-width:1.5;" x1="538.0635" x2="548.0635" y1="820.3906" y2="820.3906"/><rect fill="#F1F1F1" height="33.9688" style="stroke:#181818;stroke-width:1.5;" width="64.0215" x="548.0635" y="803.4063"/><text fill="#000000" font-family="sans-serif" font-size="12" lengthAdjust="spacing" textLength="44.0215" x="558.0635" y="824.5449">release</text><line style="stroke:#181818;stroke-width:1.5;" x1="580.0742" x2="590.0742" y1="869.3594" y2="869.3594"/><rect fill="#F1F1F1" height="33.9688" style="stroke:#181818;stroke-width:1.5;" width="34.2852" x="590.0742" y="852.375"/><text fill="#000000" font-family="sans-serif" font-size="12" lengthAdjust="spacing" textLength="14.2852" x="600.0742" y="873.5137">lib</text><line style="stroke:#181818;stroke-width:1.5;" x1="607.2168" x2="617.2168" y1="909.3281" y2="909.3281"/><text fill="#000000" font-family="sans-serif" font-size="12" lengthAdjust="spacing" textLength="54.668" x="617.2168" y="913.4824">dpdk-libs</text><line style="stroke:#181818;stroke-width:1.5;" x1="607.2168" x2="617.2168" y1="940.2969" y2="940.2969"/><text fill="#000000" font-family="sans-serif" font-size="12" lengthAdjust="spacing" textLength="56.4609" x="617.2168" y="944.4512">rdma-libs</text><line style="stroke:#181818;stroke-width:1.5;" x1="607.2168" x2="617.2168" y1="971.2656" y2="971.2656"/><text fill="#000000" font-family="sans-serif" font-size="12" lengthAdjust="spacing" textLength="28.8691" x="617.2168" y="975.4199">deps</text><line style="stroke:#181818;stroke-width:1.5;" x1="607.2168" x2="607.2168" y1="886.3438" y2="971.2656"/><line style="stroke:#181818;stroke-width:1.5;" x1="580.0742" x2="580.0742" y1="837.375" y2="869.3594"/><line style="stroke:#181818;stroke-width:1.5;" x1="538.0635" x2="538.0635" y1="597.5625" y2="820.3906"/><line style="stroke:#181818;stroke-width:1.5;" x1="433.5537" x2="433.5537" y1="117.9375" y2="580.5781"/><line style="stroke:#181818;stroke-width:1.5;" x1="29.0205" x2="433.5537" y1="63.9688" y2="63.9688"/><rect fill="#F1F1F1" height="33.9688" style="stroke:#181818;stroke-width:1.5;" width="93.7168" x="184.4287" y="10"/><text fill="#000000" font-family="sans-serif" font-size="12" lengthAdjust="spacing" textLength="73.7168" x="194.4287" y="31.1387">compile-env</text><line style="stroke:#181818;stroke-width:1.5;" x1="231.2871" x2="231.2871" y1="43.9688" y2="63.9688"/></g></svg>