<svg xmlns="http://www.w3.org/2000/svg" xmlns:xlink="http://www.w3.org/1999/xlink" contentStyleType="text/css" data-diagram-type="DESCRIPTION" height="983px" preserveAspectRatio="none" style="width:1017px;height:983px;background:#FFFFFF;" version="1.1" viewBox="0 0 1017 983" width="1017px" zoomAndPan="magnify"><defs/><g><!--cluster management_plane--><g id="cluster_management_plane"><rect fill="transparent" height="192.6" rx="2.5" ry="2.5" style="stroke:#181818;stroke-width:1;" width="188" x="363.36" y="7"/></g><a href="#management-plane" target="_top" title="#management-plane" xlink:actuate="onRequest" xlink:href="#management-plane" xlink:show="new" xlink:title="#management-plane" xlink:type="simple"><text fill="#0000FF" font-family="sans-serif" font-size="14" font-weight="bold" lengthAdjust="spacing" textLength="143.6367" x="385.5416" y="21.9951">management plane</text></a><!--cluster control_plane--><g id="cluster_control_plane"><rect fill="transparent" height="246.89" rx="2.5" ry="2.5" style="stroke:#181818;stroke-width:1;" width="346" x="172.36" y="223.6"/></g><a href="#control-plane" target="_top" title="#control-plane" xlink:actuate="onRequest" xlink:href="#control-plane" xlink:show="new" xlink:title="#control-plane" xlink:type="simple"><text fill="#0000FF" font-family="sans-serif" font-size="14" font-weight="bold" lengthAdjust="spacing" textLength="97.3779" x="296.671" y="238.5951">control plane</text></a><!--cluster zebra--><g id="cluster_zebra"><rect fill="transparent" height="119.6" rx="2.5" ry="2.5" style="stroke:#181818;stroke-width:1;" width="131" x="355.36" y="318.89"/></g><a href="https://docs.frrouting.org/en/latest/zebra.html" target="_top" title="https://docs.frrouting.org/en/latest/zebra.html" xlink:actuate="onRequest" xlink:href="https://docs.frrouting.org/en/latest/zebra.html" xlink:show="new" xlink:title="https://docs.frrouting.org/en/latest/zebra.html" xlink:type="simple"><text fill="#0000FF" font-family="sans-serif" font-size="14" font-weight="bold" lengthAdjust="spacing" textLength="41.3711" x="400.1745" y="333.8851">zebra</text></a><!--cluster dataplane--><g id="cluster_dataplane"><rect fill="transparent" height="385.18" rx="2.5" ry="2.5" style="stroke:#181818;stroke-width:1;" width="654" x="140.36" y="512.49"/></g><a href="#dataplane" target="_top" title="#dataplane" xlink:actuate="onRequest" xlink:href="#dataplane" xlink:show="new" xlink:title="#dataplane" xlink:type="simple"><text fill="#0000FF" font-family="sans-serif" font-size="14" font-weight="bold" lengthAdjust="spacing" textLength="74.3135" x="430.2033" y="527.4851">dataplane</text></a><!--cluster sister_dataplane--><g id="cluster_sister_dataplane"><rect fill="transparent" height="87.3" rx="2.5" ry="2.5" style="stroke:#181818;stroke-width:1;" width="193" x="818.36" y="613.28"/><text fill="#000000" font-family="sans-serif" font-size="14" font-weight="bold" lengthAdjust="spacing" textLength="119.7246" x="854.9977" y="628.2751">sister dataplane</text></g><!--entity gateway_agent--><g id="elem_gateway_agent"><rect fill="#F1F1F1" height="36.2969" rx="2.5" ry="2.5" style="stroke:#181818;stroke-width:0.5;" width="127.7344" x="393.49" y="147.3"/></g><a href="#gateway-agent" target="_top" title="#gateway-agent" xlink:actuate="onRequest" xlink:href="#gateway-agent" xlink:show="new" xlink:title="#gateway-agent" xlink:type="simple"><text fill="#0000FF" font-family="sans-serif" font-size="14" lengthAdjust="spacing" textLength="107.7344" x="403.49" y="170.2951">Gateway Agent</text></a><!--entity config_store--><g id="elem_config_store"><path d="M379.01,52 C379.01,42 457.3625,42 457.3625,42 C457.3625,42 535.7151,42 535.7151,52 L535.7151,77.2969 C535.7151,87.2969 457.3625,87.2969 457.3625,87.2969 C457.3625,87.2969 379.01,87.2969 379.01,77.2969 L379.01,52 " fill="#F1F1F1" style="stroke:#181818;stroke-width:0.5;"/><path d="M379.01,52 C379.01,62 457.3625,62 457.3625,62 C457.3625,62 535.7151,62 535.7151,52 " fill="transparent" style="stroke:#181818;stroke-width:0.5;"/></g><a href="#configuration-store" target="_top" title="#configuration-store" xlink:actuate="onRequest" xlink:href="#configuration-store" xlink:show="new" xlink:title="#configuration-store" xlink:type="simple"><text fill="#0000FF" font-family="sans-serif" font-size="14" lengthAdjust="spacing" textLength="136.7051" x="389.01" y="78.9951">Configuration Store</text></a><!--entity routing_daemons--><g id="elem_routing_daemons"><rect fill="#F1F1F1" height="36.2969" rx="2.5" ry="2.5" style="stroke:#181818;stroke-width:0.5;" width="139.2324" x="188.74" y="370.04"/></g><a href="#routing-daemons" target="_top" title="#routing-daemons" xlink:actuate="onRequest" xlink:href="#routing-daemons" xlink:show="new" xlink:title="#routing-daemons" xlink:type="simple"><text fill="#0000FF" font-family="sans-serif" font-size="14" lengthAdjust="spacing" textLength="119.2324" x="198.74" y="393.0351">routing daemons</text></a><!--entity frr_agent--><g id="elem_frr_agent"><rect fill="#F1F1F1" height="36.2969" rx="2.5" ry="2.5" style="stroke:#181818;stroke-width:0.5;" width="92.3994" x="317.16" y="258.6"/></g><a href="#frr-agent" target="_top" title="#frr-agent" xlink:actuate="onRequest" xlink:href="#frr-agent" xlink:show="new" xlink:title="#frr-agent" xlink:type="simple"><text fill="#0000FF" font-family="sans-serif" font-size="14" lengthAdjust="spacing" textLength="72.3994" x="327.16" y="281.5951">FRR agent</text></a><!--entity zebra_plugin--><g id="elem_zebra_plugin"><rect fill="#F1F1F1" height="52.5938" rx="2.5" ry="2.5" style="stroke:#181818;stroke-width:0.5;" width="63.2988" x="398.71" y="361.89"/></g><a href="#zebra-plugin" target="_top" title="#zebra-plugin" xlink:actuate="onRequest" xlink:href="#zebra-plugin" xlink:show="new" xlink:title="#zebra-plugin" xlink:type="simple"><text fill="#0000FF" font-family="sans-serif" font-size="14" lengthAdjust="spacing" textLength="41.4258" x="408.71" y="384.8851">Zebra</text></a><a href="#zebra-plugin" target="_top" title="#zebra-plugin" xlink:actuate="onRequest" xlink:href="#zebra-plugin" xlink:show="new" xlink:title="#zebra-plugin" xlink:type="simple"><text fill="#0000FF" font-family="sans-serif" font-size="14" lengthAdjust="spacing" textLength="43.2988" x="408.71" y="401.182">plugin</text></a><!--entity control_plane_interface--><g id="elem_control_plane_interface"><rect fill="#F1F1F1" height="36.2969" rx="2.5" ry="2.5" style="stroke:#181818;stroke-width:0.5;" width="179.0176" x="340.85" y="547.49"/></g><a href="#control-plane-interface" target="_top" title="#control-plane-interface" xlink:actuate="onRequest" xlink:href="#control-plane-interface" xlink:show="new" xlink:title="#control-plane-interface" xlink:type="simple"><text fill="#0000FF" font-family="sans-serif" font-size="14" lengthAdjust="spacing" textLength="159.0176" x="350.85" y="570.4851">control plane interface</text></a><!--entity management_plane_interface--><g id="elem_management_plane_interface"><rect fill="#F1F1F1" height="36.2969" rx="2.5" ry="2.5" style="stroke:#181818;stroke-width:0.5;" width="223.9639" x="554.38" y="547.49"/></g><a href="#management-plane-interface" target="_top" title="#management-plane-interface" xlink:actuate="onRequest" xlink:href="#management-plane-interface" xlink:show="new" xlink:title="#management-plane-interface" xlink:type="simple"><text fill="#0000FF" font-family="sans-serif" font-size="14" lengthAdjust="spacing" textLength="203.9639" x="564.38" y="570.4851">management plane interface</text></a><!--entity dataplane_model--><g id="elem_dataplane_model"><path d="M399.15,653.78 C399.15,643.78 468.3595,643.78 468.3595,643.78 C468.3595,643.78 537.5689,643.78 537.5689,653.78 L537.5689,679.0769 C537.5689,689.0769 468.3595,689.0769 468.3595,689.0769 C468.3595,689.0769 399.15,689.0769 399.15,679.0769 L399.15,653.78 " fill="#F1F1F1" style="stroke:#181818;stroke-width:0.5;"/><path d="M399.15,653.78 C399.15,663.78 468.3595,663.78 468.3595,663.78 C468.3595,663.78 537.5689,663.78 537.5689,653.78 " fill="transparent" style="stroke:#181818;stroke-width:0.5;"/></g><a href="#dataplane-model" target="_top" title="#dataplane-model" xlink:actuate="onRequest" xlink:href="#dataplane-model" xlink:show="new" xlink:title="#dataplane-model" xlink:type="simple"><text fill="#0000FF" font-family="sans-serif" font-size="14" lengthAdjust="spacing" textLength="118.4189" x="409.15" y="680.7751">dataplane model</text></a><!--entity routing_manager--><g id="elem_routing_manager"><rect fill="#F1F1F1" height="36.2969" rx="2.5" ry="2.5" style="stroke:#181818;stroke-width:0.5;" width="137.708" x="319.5" y="749.08"/></g><a href="#routing-manager" target="_top" title="#routing-manager" xlink:actuate="onRequest" xlink:href="#routing-manager" xlink:show="new" xlink:title="#routing-manager" xlink:type="simple"><text fill="#0000FF" font-family="sans-serif" font-size="14" lengthAdjust="spacing" textLength="117.708" x="329.5" y="772.0751">routing manager</text></a><!--entity nat_manager--><g id="elem_nat_manager"><rect fill="#F1F1F1" height="36.2969" rx="2.5" ry="2.5" style="stroke:#181818;stroke-width:0.5;" width="110.3164" x="492.2" y="749.08"/></g><a href="#nat-manager" target="_top" title="#nat-manager" xlink:actuate="onRequest" xlink:href="#nat-manager" xlink:show="new" xlink:title="#nat-manager" xlink:type="simple"><text fill="#0000FF" font-family="sans-serif" font-size="14" lengthAdjust="spacing" textLength="90.3164" x="502.2" y="772.0751">nat manager</text></a><!--entity state_sync--><g id="elem_state_sync"><rect fill="#F1F1F1" height="36.2969" rx="2.5" ry="2.5" style="stroke:#181818;stroke-width:0.5;" width="92.0645" x="648.33" y="648.28"/></g><a href="#state-sync" target="_top" title="#state-sync" xlink:actuate="onRequest" xlink:href="#state-sync" xlink:show="new" xlink:title="#state-sync" xlink:type="simple"><text fill="#0000FF" font-family="sans-serif" font-size="14" lengthAdjust="spacing" textLength="72.0645" x="658.33" y="671.2751">state sync</text></a><!--entity interface_manager--><g id="elem_interface_manager"><rect fill="#F1F1F1" height="36.2969" rx="2.5" ry="2.5" style="stroke:#181818;stroke-width:0.5;" width="149.8145" x="156.45" y="547.49"/></g><a href="#interface-manager" target="_top" title="#interface-manager" xlink:actuate="onRequest" xlink:href="#interface-manager" xlink:show="new" xlink:title="#interface-manager" xlink:type="simple"><text fill="#0000FF" font-family="sans-serif" font-size="14" lengthAdjust="spacing" textLength="129.8145" x="166.45" y="570.4851">interface manager</text></a><!--entity dataplane_workers--><g id="elem_dataplane_workers"><rect fill="#F1F1F1" height="36.2969" rx="2.5" ry="2.5" style="stroke:#181818;stroke-width:0.5;" width="150.3682" x="392.17" y="845.38"/></g><a href="#dataplane-workers" target="_top" title="#dataplane-workers" xlink:actuate="onRequest" xlink:href="#dataplane-workers" xlink:show="new" xlink:title="#dataplane-workers" xlink:type="simple"><text fill="#0000FF" font-family="sans-serif" font-size="14" lengthAdjust="spacing" textLength="130.3682" x="402.17" y="868.3751">dataplane workers</text></a><!--entity rest--><g id="elem_rest"><rect fill="#F1F1F1" height="36.2969" rx="2.5" ry="2.5" style="stroke:#181818;stroke-width:0.5;" width="33.3506" x="961.68" y="648.28"/><text fill="#000000" font-family="sans-serif" font-size="14" lengthAdjust="spacing" textLength="13.3506" x="971.68" y="671.2751">...</text></g><!--entity sister_state_sync--><g id="elem_sister_state_sync"><rect fill="#F1F1F1" height="36.2969" rx="2.5" ry="2.5" style="stroke:#181818;stroke-width:0.5;" width="92.0645" x="834.33" y="648.28"/><text fill="#000000" font-family="sans-serif" font-size="14" lengthAdjust="spacing" textLength="72.0645" x="844.33" y="671.2751">state sync</text></g><!--entity kernel--><g id="elem_kernel"><rect fill="#F1F1F1" height="36.2969" rx="2.5" ry="2.5" style="stroke:#181818;stroke-width:0.5;" width="63.8525" x="60.43" y="648.28"/></g><a href="https://en.wikipedia.org/wiki/Linux_kernel" target="_top" title="https://en.wikipedia.org/wiki/Linux_kernel" xlink:actuate="onRequest" xlink:href="https://en.wikipedia.org/wiki/Linux_kernel" xlink:show="new" xlink:title="https://en.wikipedia.org/wiki/Linux_kernel" xlink:type="simple"><text fill="#0000FF" font-family="sans-serif" font-size="14" lengthAdjust="spacing" textLength="43.8525" x="70.43" y="671.2751">kernel</text></a><!--entity nics--><g id="elem_nics"><rect fill="#F1F1F1" height="36.2969" rx="2.5" ry="2.5" style="stroke:#181818;stroke-width:0.5;" width="47.7539" x="443.48" y="941.67"/><text fill="#000000" font-family="sans-serif" font-size="14" lengthAdjust="spacing" textLength="27.7539" x="453.48" y="964.6651">nics</text></g><!--link control_plane_interface to dataplane_model--><g id="link_control_plane_interface_dataplane_model"><path d="M459.51,584.12 C459.51,600.83 459.51,625.49 459.51,643.46 " fill="transparent" id="control_plane_interface-dataplane_model" style="stroke:#181818;stroke-width:1;"/></g><!--link dataplane_workers to nics--><g id="link_dataplane_workers_nics"><path d="M467.36,888.09 C467.36,905.14 467.36,918.28 467.36,935.31 " fill="transparent" id="dataplane_workers-nics" style="stroke:#181818;stroke-width:1;"/><polygon fill="#181818" points="467.36,882.09,463.36,891.09,467.36,887.09,471.36,891.09,467.36,882.09" style="stroke:#181818;stroke-width:1;"/><polygon fill="#181818" points="467.36,941.31,471.36,932.31,467.36,936.31,463.36,932.31,467.36,941.31" style="stroke:#181818;stroke-width:1;"/></g><a href="https://www.dpdk.org/" target="_top" title="https://www.dpdk.org/" xlink:actuate="onRequest" xlink:href="https://www.dpdk.org/" xlink:show="new" xlink:title="https://www.dpdk.org/" xlink:type="simple"><text fill="#0000FF" font-family="sans-serif" font-size="13" lengthAdjust="spacing" textLength="32.2842" x="430.36" y="907.7669">dpdk</text></a><!--link frr_agent to routing_daemons--><g id="link_frr_agent_routing_daemons"><path d="M322.57,301.15 C322.57,321.8 322.57,343.1 322.57,363.76 " fill="transparent" id="frr_agent-routing_daemons" style="stroke:#181818;stroke-width:1;"/><polygon fill="#181818" points="322.57,295.15,318.57,304.15,322.57,300.15,326.57,304.15,322.57,295.15" style="stroke:#181818;stroke-width:1;"/><polygon fill="#181818" points="322.57,369.76,326.57,360.76,322.57,364.76,318.57,360.76,322.57,369.76" style="stroke:#181818;stroke-width:1;"/></g><!--link frr_agent to zebra--><g id="link_frr_agent_zebra"><path d="M363.36,301.15 C363.36,304.8588 363.36,302.9759 363.36,307.3549 C363.36,309.5444 363.36,311.7993 363.36,314.1014 C363.36,315.2524 363.36,316.4152 363.36,317.5875 C363.36,317.8805 363.36,312.1742 363.36,312.4684 " fill="transparent" id="frr_agent-zebra" style="stroke:#181818;stroke-width:1;"/><polygon fill="#181818" points="363.36,295.15,359.36,304.15,363.36,300.15,367.36,304.15,363.36,295.15" style="stroke:#181818;stroke-width:1;"/><polygon fill="#181818" points="363.36,318.4684,367.36,309.4684,363.36,313.4684,359.36,309.4684,363.36,318.4684" style="stroke:#181818;stroke-width:1;"/></g><!--link gateway_agent to frr_agent--><g id="link_gateway_agent_frr_agent"><path d="M401.52,184.08 C401.52,204.74 401.52,237.88 401.52,258.42 " fill="transparent" id="gateway_agent-frr_agent" style="stroke:#181818;stroke-width:1;"/></g><!--link gateway_agent to management_plane_interface--><g id="link_gateway_agent_management_plane_interface"><path d="M521.49,164.97 C582.92,164.97 666.36,164.97 666.36,164.97 C666.36,164.97 666.36,468.31 666.36,547.11 " fill="transparent" id="gateway_agent-management_plane_interface" style="stroke:#181818;stroke-width:1;"/></g><!--link config_store to gateway_agent--><g id="link_config_store_gateway_agent"><path d="M457.36,87.77 C457.36,105.68 457.36,130.15 457.36,146.81 " fill="transparent" id="config_store-gateway_agent" style="stroke:#181818;stroke-width:1;"/></g><!--link interface_manager to dataplane_model--><g id="link_interface_manager_dataplane_model"><path d="M231.36,584.04 C231.36,613 231.36,665.97 231.36,665.97 C231.36,665.97 328.92,665.97 398.85,665.97 " fill="transparent" id="interface_manager-dataplane_model" style="stroke:#181818;stroke-width:1;"/></g><!--link interface_manager to kernel--><g id="link_interface_manager_kernel"><path d="M150.32,565.97 C122.23,565.97 103,565.97 103,565.97 C103,565.97 103,613 103,642 " fill="transparent" id="interface_manager-kernel" style="stroke:#181818;stroke-width:1;"/><polygon fill="#181818" points="156.32,565.97,147.32,561.97,151.32,565.97,147.32,569.97,156.32,565.97" style="stroke:#181818;stroke-width:1;"/><polygon fill="#181818" points="103,648,107,639,103,643,99,639,103,648" style="stroke:#181818;stroke-width:1;"/></g><a href="https://man7.org/linux/man-pages/man7/netlink.7.html" target="_top" title="https://man7.org/linux/man-pages/man7/netlink.7.html" xlink:actuate="onRequest" xlink:href="https://man7.org/linux/man-pages/man7/netlink.7.html" xlink:show="new" xlink:title="https://man7.org/linux/man-pages/man7/netlink.7.html" xlink:type="simple"><text fill="#0000FF" font-family="sans-serif" font-size="13" lengthAdjust="spacing" textLength="90.9556" x="7" y="576.3969">netlink socket</text></a><!--link dataplane_model to state_sync--><g id="link_dataplane_model_state_sync"><path d="M538.01,665.97 C573.81,665.97 616.44,665.97 648.14,665.97 " fill="transparent" id="dataplane_model-state_sync" style="stroke:#181818;stroke-width:1;"/></g><!--link dataplane_model to nat_manager--><g id="link_dataplane_model_nat_manager"><path d="M514.88,695.56 C514.88,713.46 514.88,725.93 514.88,742.59 " fill="transparent" id="dataplane_model-nat_manager" style="stroke:#181818;stroke-width:1;"/><polygon fill="#181818" points="514.88,689.56,510.88,698.56,514.88,694.56,518.88,698.56,514.88,689.56" style="stroke:#181818;stroke-width:1;"/><polygon fill="#181818" points="514.88,748.59,518.88,739.59,514.88,743.59,510.88,739.59,514.88,748.59" style="stroke:#181818;stroke-width:1;"/></g><!--link dataplane_model to routing_manager--><g id="link_dataplane_model_routing_manager"><path d="M428.18,695.56 C428.18,713.46 428.18,725.93 428.18,742.59 " fill="transparent" id="dataplane_model-routing_manager" style="stroke:#181818;stroke-width:1;"/><polygon fill="#181818" points="428.18,689.56,424.18,698.56,428.18,694.56,432.18,698.56,428.18,689.56" style="stroke:#181818;stroke-width:1;"/><polygon fill="#181818" points="428.18,748.59,432.18,739.59,428.18,743.59,424.18,739.59,428.18,748.59" style="stroke:#181818;stroke-width:1;"/></g><!--link management_plane_interface to dataplane_model--><g id="link_management_plane_interface_dataplane_model"><path d="M554.08,565.97 C538.93,565.97 528.47,565.97 528.47,565.97 C528.47,565.97 528.47,613.72 528.47,643.38 " fill="transparent" id="management_plane_interface-dataplane_model" style="stroke:#181818;stroke-width:1;"/></g><!--link nat_manager to dataplane_workers--><g id="link_nat_manager_dataplane_workers"><path d="M517.37,791.79 C517.37,808.85 517.37,821.98 517.37,839.01 " fill="transparent" id="nat_manager-dataplane_workers" style="stroke:#181818;stroke-width:1;"/><polygon fill="#181818" points="517.37,785.79,513.37,794.79,517.37,790.79,521.37,794.79,517.37,785.79" style="stroke:#181818;stroke-width:1;"/><polygon fill="#181818" points="517.37,845.01,521.37,836.01,517.37,840.01,513.37,836.01,517.37,845.01" style="stroke:#181818;stroke-width:1;"/></g><!--link zebra_plugin to control_plane_interface--><g id="link_zebra_plugin_control_plane_interface"><path d="M430.36,414.75 C430.36,451.11 430.36,515.44 430.36,547.05 " fill="transparent" id="zebra_plugin-control_plane_interface" style="stroke:#181818;stroke-width:1;"/></g><a href="https://en.wikipedia.org/wiki/Unix_domain_socket" target="_top" title="https://en.wikipedia.org/wiki/Unix_domain_socket" xlink:actuate="onRequest" xlink:href="https://en.wikipedia.org/wiki/Unix_domain_socket" xlink:show="new" xlink:title="https://en.wikipedia.org/wiki/Unix_domain_socket" xlink:type="simple"><text fill="#0000FF" font-family="sans-serif" font-size="13" lengthAdjust="spacing" textLength="74.4136" x="351.36" y="476.9669">unix socket</text></a><!--link routing_daemons to zebra--><g id="link_routing_daemons_zebra"><path d="M334.39,387.97 C342.82,387.97 344.5675,387.97 350.6163,387.97 C352.1284,387.97 353.5345,387.97 354.8184,387.97 C354.9789,387.97 349.1375,387.97 349.2942,387.97 " fill="transparent" id="routing_daemons-zebra" style="stroke:#181818;stroke-width:1;"/><polygon fill="#181818" points="328.39,387.97,337.39,391.97,333.39,387.97,337.39,383.97,328.39,387.97" style="stroke:#181818;stroke-width:1;"/><polygon fill="#181818" points="355.2942,387.97,346.2942,383.97,350.2942,387.97,346.2942,391.97,355.2942,387.97" style="stroke:#181818;stroke-width:1;"/></g><!--link routing_manager to dataplane_workers--><g id="link_routing_manager_dataplane_workers"><path d="M424.69,791.79 C424.69,808.85 424.69,821.98 424.69,839.01 " fill="transparent" id="routing_manager-dataplane_workers" style="stroke:#181818;stroke-width:1;"/><polygon fill="#181818" points="424.69,785.79,420.69,794.79,424.69,790.79,428.69,794.79,424.69,785.79" style="stroke:#181818;stroke-width:1;"/><polygon fill="#181818" points="424.69,845.01,428.69,836.01,424.69,840.01,420.69,836.01,424.69,845.01" style="stroke:#181818;stroke-width:1;"/></g><!--link state_sync to sister_state_sync--><g id="link_state_sync_sister_state_sync"><path d="M746.81,665.97 C775.22,665.97 799.43,665.97 827.85,665.97 " fill="transparent" id="state_sync-sister_state_sync" style="stroke:#181818;stroke-width:1;"/><polygon fill="#181818" points="740.81,665.97,749.81,669.97,745.81,665.97,749.81,661.97,740.81,665.97" style="stroke:#181818;stroke-width:1;"/><polygon fill="#181818" points="833.85,665.97,824.85,661.97,828.85,665.97,824.85,669.97,833.85,665.97" style="stroke:#181818;stroke-width:1;"/></g><a href="https://en.wikipedia.org/wiki/Remote_direct_memory_access" target="_top" title="https://en.wikipedia.org/wiki/Remote_direct_memory_access" xlink:actuate="onRequest" xlink:href="https://en.wikipedia.org/wiki/Remote_direct_memory_access" xlink:show="new" xlink:title="https://en.wikipedia.org/wiki/Remote_direct_memory_access" xlink:type="simple"><text fill="#0000FF" font-family="sans-serif" font-size="13" lengthAdjust="spacing" textLength="34.2266" x="752.33" y="662.0369">rdma</text></a><!--link zebra to kernel--><g id="link_zebra_kernel"><path d="M363.36,444.8708 C363.36,445.5576 363.36,441.2742 363.36,441.9573 C363.36,443.3234 363.36,444.6808 363.36,446.0245 C363.36,448.7119 363.36,451.3446 363.36,453.8835 C363.36,458.9613 363.36,463.6634 363.36,467.6763 C363.36,475.7019 363.36,480.97 363.36,480.97 C363.36,480.97 81.72,480.97 81.72,480.97 C81.72,480.97 81.72,595.06 81.72,641.97 " fill="transparent" id="zebra-kernel" style="stroke:#181818;stroke-width:1;"/><polygon fill="#181818" points="363.36,438.8708,359.36,447.8708,363.36,443.8708,367.36,447.8708,363.36,438.8708" style="stroke:#181818;stroke-width:1;"/><polygon fill="#181818" points="81.72,647.97,85.72,638.97,81.72,642.97,77.72,638.97,81.72,647.97" style="stroke:#181818;stroke-width:1;"/></g><a href="https://man7.org/linux/man-pages/man7/netlink.7.html" target="_top" title="https://man7.org/linux/man-pages/man7/netlink.7.html" xlink:actuate="onRequest" xlink:href="https://man7.org/linux/man-pages/man7/netlink.7.html" xlink:show="new" xlink:title="https://man7.org/linux/man-pages/man7/netlink.7.html" xlink:type="simple"><text fill="#0000FF" font-family="sans-serif" font-size="13" lengthAdjust="spacing" textLength="90.9556" x="89.13" y="477.0369">netlink socket</text></a></g></svg>