<svg xmlns="http://www.w3.org/2000/svg" xmlns:xlink="http://www.w3.org/1999/xlink" contentStyleType="text/css" data-diagram-type="CLASS" height="211px" preserveAspectRatio="none" style="width:382px;height:211px;background:#FFFFFF;" version="1.1" viewBox="0 0 382 211" width="382px" zoomAndPan="magnify"><defs/><g><!--class Packet--><g id="elem_Packet"><rect fill="#F1F1F1" height="26.2969" id="Packet" rx="2.5" ry="2.5" style="stroke:#181818;stroke-width:0.5;" width="52.9287" x="152.64" y="7"/><text fill="#000000" font-family="sans-serif" font-size="14" lengthAdjust="spacing" textLength="46.9287" x="155.64" y="24.9951">Packet</text></g><!--class Eth--><g id="elem_Eth"><rect fill="#F1F1F1" height="26.2969" id="Eth" rx="2.5" ry="2.5" style="stroke:#181818;stroke-width:0.5;" width="29.208" x="12.5" y="93.3"/><text fill="#000000" font-family="sans-serif" font-size="14" lengthAdjust="spacing" textLength="23.208" x="15.5" y="111.2951">Eth</text></g><!--class Net--><g id="elem_Net"><rect fill="#F1F1F1" height="26.2969" id="Net" rx="2.5" ry="2.5" style="stroke:#181818;stroke-width:0.5;" width="30.5752" x="76.82" y="93.3"/><text fill="#000000" font-family="sans-serif" font-size="14" lengthAdjust="spacing" textLength="24.5752" x="79.82" y="111.2951">Net</text></g><!--class Ipv4--><g id="elem_Ipv4"><rect fill="#F1F1F1" height="26.2969" id="Ipv4" rx="2.5" ry="2.5" style="stroke:#181818;stroke-width:0.5;" width="36.208" x="7" y="179.59"/><text fill="#000000" font-family="sans-serif" font-size="14" lengthAdjust="spacing" textLength="30.208" x="10" y="197.5851">Ipv4</text></g><!--class Ipv6--><g id="elem_Ipv6"><rect fill="#F1F1F1" height="26.2969" id="Ipv6" rx="2.5" ry="2.5" style="stroke:#181818;stroke-width:0.5;" width="36.208" x="78" y="179.59"/><text fill="#000000" font-family="sans-serif" font-size="14" lengthAdjust="spacing" textLength="30.208" x="81" y="197.5851">Ipv6</text></g><!--class Transport--><g id="elem_Transport"><rect fill="#F1F1F1" height="26.2969" id="Transport" rx="2.5" ry="2.5" style="stroke:#181818;stroke-width:0.5;" width="73.751" x="142.23" y="93.3"/><text fill="#000000" font-family="sans-serif" font-size="14" lengthAdjust="spacing" textLength="67.751" x="145.23" y="111.2951">Transport</text></g><!--class Tcp--><g id="elem_Tcp"><rect fill="#F1F1F1" height="26.2969" id="Tcp" rx="2.5" ry="2.5" style="stroke:#181818;stroke-width:0.5;" width="31.1357" x="158.54" y="179.59"/><text fill="#000000" font-family="sans-serif" font-size="14" lengthAdjust="spacing" textLength="25.1357" x="161.54" y="197.5851">Tcp</text></g><!--class Udp--><g id="elem_Udp"><rect fill="#F1F1F1" height="26.2969" id="Udp" rx="2.5" ry="2.5" style="stroke:#181818;stroke-width:0.5;" width="34.0205" x="225.09" y="179.59"/><text fill="#000000" font-family="sans-serif" font-size="14" lengthAdjust="spacing" textLength="28.0205" x="228.09" y="197.5851">Udp</text></g><!--class Vlan--><g id="elem_Vlan"><rect fill="#F1F1F1" height="26.2969" id="Vlan" rx="2.5" ry="2.5" style="stroke:#181818;stroke-width:0.5;" width="36.9189" x="250.64" y="93.3"/><text fill="#000000" font-family="sans-serif" font-size="14" lengthAdjust="spacing" textLength="30.9189" x="253.64" y="111.2951">Vlan</text></g><!--class NetExt--><g id="elem_NetExt"><rect fill="#F1F1F1" height="26.2969" id="NetExt" rx="2.5" ry="2.5" style="stroke:#181818;stroke-width:0.5;" width="53.1953" x="322.51" y="93.3"/><text fill="#000000" font-family="sans-serif" font-size="14" lengthAdjust="spacing" textLength="47.1953" x="325.51" y="111.2951">NetExt</text></g><!--link Packet to Eth--><g id="link_Packet_Eth"><path codeLine="8" d="M152.28,15.89 C108.64,15.89 27.1,15.89 27.1,15.89 C27.1,15.89 27.1,59.89 27.1,85.08 " fill="transparent" id="Packet-to-Eth" style="stroke:#181818;stroke-width:1;"/><line style="stroke:#181818;stroke-width:1;" x1="31.1" x2="23.1" y1="89.08" y2="89.08"/><line style="stroke:#181818;stroke-width:1;" x1="31.1" x2="23.1" y1="86.08" y2="86.08"/><line style="stroke:#181818;stroke-width:1;" x1="27.1" x2="27.1" y1="85.08" y2="93.08"/></g><!--link Net to Ipv4--><g id="link_Net_Ipv4"><path codeLine="9" d="M76.43,106.89 C68.29,106.89 60.01,106.89 60.01,106.89 C60.01,106.89 60.01,192.89 60.01,192.89 C60.01,192.89 66.82,192.89 58.38,192.89 " fill="transparent" id="Net-to-Ipv4" style="stroke:#181818;stroke-width:1;"/><line style="stroke:#181818;stroke-width:1;" x1="54.38" x2="43.38" y1="192.89" y2="192.89"/><ellipse cx="54.38" cy="192.89" fill="transparent" rx="4" ry="4" style="stroke:#181818;stroke-width:1;"/><line style="stroke:#181818;stroke-width:1;" x1="47.38" x2="47.38" y1="196.89" y2="188.89"/></g><!--link Net to Ipv6--><g id="link_Net_Ipv6"><path codeLine="10" d="M92.7,119.93 C92.7,136.14 92.7,148.18 92.7,164.35 " fill="transparent" id="Net-to-Ipv6" style="stroke:#181818;stroke-width:1;"/><line style="stroke:#181818;stroke-width:1;" x1="92.7" x2="92.7" y1="168.35" y2="179.35"/><ellipse cx="92.7" cy="168.35" fill="transparent" rx="4" ry="4" style="stroke:#181818;stroke-width:1;"/><line style="stroke:#181818;stroke-width:1;" x1="96.7" x2="88.7" y1="175.35" y2="175.35"/></g><!--link Transport to Tcp--><g id="link_Transport_Tcp"><path codeLine="11" d="M174.1,119.93 C174.1,136.14 174.1,148.18 174.1,164.35 " fill="transparent" id="Transport-to-Tcp" style="stroke:#181818;stroke-width:1;"/><line style="stroke:#181818;stroke-width:1;" x1="174.1" x2="174.1" y1="168.35" y2="179.35"/><ellipse cx="174.1" cy="168.35" fill="transparent" rx="4" ry="4" style="stroke:#181818;stroke-width:1;"/><line style="stroke:#181818;stroke-width:1;" x1="178.1" x2="170.1" y1="175.35" y2="175.35"/></g><!--link Transport to Udp--><g id="link_Transport_Udp"><path codeLine="12" d="M216.32,106.89 C227.98,106.89 237.87,106.89 237.87,106.89 C237.87,106.89 237.87,140.18 237.87,164.33 " fill="transparent" id="Transport-to-Udp" style="stroke:#181818;stroke-width:1;"/><line style="stroke:#181818;stroke-width:1;" x1="237.87" x2="237.87" y1="168.33" y2="179.33"/><ellipse cx="237.87" cy="168.33" fill="transparent" rx="4" ry="4" style="stroke:#181818;stroke-width:1;"/><line style="stroke:#181818;stroke-width:1;" x1="241.87" x2="233.87" y1="175.33" y2="175.33"/></g><!--link Packet to Vlan--><g id="link_Packet_Vlan"><path codeLine="13" d="M205.62,24.89 C232.17,24.89 269.1,24.89 269.1,24.89 C269.1,24.89 269.1,51.81 269.1,74.98 " fill="transparent" id="Packet-to-Vlan" style="stroke:#181818;stroke-width:1;"/><line style="stroke:#181818;stroke-width:1;" x1="269.1" x2="275.1" y1="84.98" y2="92.98"/><line style="stroke:#181818;stroke-width:1;" x1="269.1" x2="263.1" y1="84.98" y2="92.98"/><line style="stroke:#181818;stroke-width:1;" x1="269.1" x2="269.1" y1="84.98" y2="92.98"/><ellipse cx="269.1" cy="78.98" fill="transparent" rx="4" ry="4" style="stroke:#181818;stroke-width:1;"/></g><!--link Packet to Net--><g id="link_Packet_Net"><path codeLine="14" d="M152.53,24.89 C126.94,24.89 92.1,24.89 92.1,24.89 C92.1,24.89 92.1,54.81 92.1,77.98 " fill="transparent" id="Packet-to-Net" style="stroke:#181818;stroke-width:1;"/><line style="stroke:#181818;stroke-width:1;" x1="92.1" x2="92.1" y1="81.98" y2="92.98"/><ellipse cx="92.1" cy="81.98" fill="transparent" rx="4" ry="4" style="stroke:#181818;stroke-width:1;"/><line style="stroke:#181818;stroke-width:1;" x1="96.1" x2="88.1" y1="88.98" y2="88.98"/></g><!--link Packet to Transport--><g id="link_Packet_Transport"><path codeLine="15" d="M179.1,33.63 C179.1,49.84 179.1,61.89 179.1,78.06 " fill="transparent" id="Packet-to-Transport" style="stroke:#181818;stroke-width:1;"/><line style="stroke:#181818;stroke-width:1;" x1="179.1" x2="179.1" y1="82.06" y2="93.06"/><ellipse cx="179.1" cy="82.06" fill="transparent" rx="4" ry="4" style="stroke:#181818;stroke-width:1;"/><line style="stroke:#181818;stroke-width:1;" x1="183.1" x2="175.1" y1="89.06" y2="89.06"/></g><!--link Packet to NetExt--><g id="link_Packet_NetExt"><path codeLine="16" d="M206.04,15.89 C253.98,15.89 349.1,15.89 349.1,15.89 C349.1,15.89 349.1,52.89 349.1,78.08 " fill="transparent" id="Packet-to-NetExt" style="stroke:#181818;stroke-width:1;"/><line style="stroke:#181818;stroke-width:1;" x1="349.1" x2="349.1" y1="82.08" y2="93.08"/><ellipse cx="349.1" cy="82.08" fill="transparent" rx="4" ry="4" style="stroke:#181818;stroke-width:1;"/><line style="stroke:#181818;stroke-width:1;" x1="353.1" x2="345.1" y1="89.08" y2="89.08"/></g></g></svg>