<?xml version="1.0" encoding="UTF-8" standalone="no"?>
<!DOCTYPE svg PUBLIC "-//W3C//DTD SVG 1.1//EN"
 "http://www.w3.org/Graphics/SVG/1.1/DTD/svg11.dtd">
<!-- Generated by graphviz version 12.2.1 (0)
 -->
<!-- Title: features Pages: 1 -->
<svg width="534pt" height="745pt"
 viewBox="0.00 0.00 534.00 744.50" xmlns="http://www.w3.org/2000/svg" xmlns:xlink="http://www.w3.org/1999/xlink">
<g id="graph0" class="graph" transform="scale(1 1) rotate(0) translate(4 740.5)">
<title>features</title>
<polygon fill="white" stroke="none" points="-4,4 -4,-740.5 530,-740.5 530,4 -4,4"/>
<text text-anchor="start" x="217.25" y="-720.2" font-family="Times,serif" font-size="14.00"> </text>
<text text-anchor="start" x="221.75" y="-720.2" font-family="Times,serif" font-weight="bold" font-size="14.00">Feature map</text>
<text text-anchor="start" x="204.88" y="-706.2" font-family="Times,serif" font-weight="bold" font-size="14.00">(major features)</text>
<text text-anchor="start" x="316.62" y="-706.2" font-family="Times,serif" font-size="14.00"> </text>
<!-- BGP_underlay -->
<g id="node1" class="node">
<title>BGP_underlay</title>
<polygon fill="lightblue" stroke="lightblue" points="345,-512.5 235.25,-512.5 235.25,-476.5 345,-476.5 345,-512.5"/>
<text text-anchor="middle" x="290.12" y="-489.82" font-family="Times,serif" font-size="14.00">BGP underlay</text>
</g>
<!-- EVPN_overlay -->
<g id="node2" class="node">
<title>EVPN_overlay</title>
<polygon fill="lightblue" stroke="lightblue" points="353.62,-418.5 244.62,-418.5 244.62,-382.5 353.62,-382.5 353.62,-418.5"/>
<text text-anchor="middle" x="299.12" y="-395.82" font-family="Times,serif" font-size="14.00">EVPN overlay</text>
</g>
<!-- BGP_underlay&#45;&gt;EVPN_overlay -->
<g id="edge9" class="edge">
<title>BGP_underlay&#45;&gt;EVPN_overlay</title>
<path fill="none" stroke="black" d="M291.82,-476.2C293.09,-463.22 294.85,-445.16 296.33,-430.06"/>
<polygon fill="black" stroke="black" points="299.8,-430.53 297.29,-420.23 292.84,-429.84 299.8,-430.53"/>
</g>
<!-- VPC_routing -->
<g id="node3" class="node">
<title>VPC_routing</title>
<polygon fill="lightblue" stroke="lightblue" points="406,-230.5 308.25,-230.5 308.25,-188 406,-188 406,-230.5"/>
<text text-anchor="middle" x="357.12" y="-213.2" font-family="Times,serif" font-size="14.00">VPC routing</text>
<text text-anchor="middle" x="357.12" y="-195.95" font-family="Times,serif" font-size="14.00">(aka RIOT)</text>
</g>
<!-- EVPN_overlay&#45;&gt;VPC_routing -->
<g id="edge10" class="edge">
<title>EVPN_overlay&#45;&gt;VPC_routing</title>
<path fill="none" stroke="black" d="M302.27,-382.35C306.5,-360.34 314.71,-321.12 325.12,-288.5 330.21,-272.57 337.11,-255.31 343.2,-241.07"/>
<polygon fill="black" stroke="black" points="346.27,-242.8 347.05,-232.23 339.85,-240 346.27,-242.8"/>
</g>
<!-- state_sync -->
<g id="node11" class="node">
<title>state_sync</title>
<polygon fill="none" stroke="black" points="237.75,-324.5 150.5,-324.5 150.5,-288.5 237.75,-288.5 237.75,-324.5"/>
<text text-anchor="middle" x="194.12" y="-301.82" font-family="Times,serif" font-size="14.00">state sync</text>
</g>
<!-- EVPN_overlay&#45;&gt;state_sync -->
<g id="edge11" class="edge">
<title>EVPN_overlay&#45;&gt;state_sync</title>
<path fill="none" stroke="black" d="M279.38,-382.2C263.24,-368.06 240.24,-347.91 222.2,-332.09"/>
<polygon fill="black" stroke="black" points="224.75,-329.68 214.92,-325.72 220.14,-334.95 224.75,-329.68"/>
</g>
<!-- hardware_offloaded_vpc -->
<g id="node14" class="node">
<title>hardware_offloaded_vpc</title>
<polygon fill="none" stroke="black" points="470.12,-324.5 334.12,-324.5 334.12,-288.5 470.12,-288.5 470.12,-324.5"/>
<text text-anchor="middle" x="402.12" y="-301.82" font-family="Times,serif" font-size="14.00">VPC route offload</text>
</g>
<!-- EVPN_overlay&#45;&gt;hardware_offloaded_vpc -->
<g id="edge12" class="edge">
<title>EVPN_overlay&#45;&gt;hardware_offloaded_vpc</title>
<path fill="none" stroke="black" d="M318.5,-382.2C334.32,-368.06 356.89,-347.91 374.59,-332.09"/>
<polygon fill="black" stroke="black" points="376.58,-335.01 381.71,-325.74 371.92,-329.79 376.58,-335.01"/>
</g>
<!-- VPC_nat44_66 -->
<g id="node4" class="node">
<title>VPC_nat44_66</title>
<polygon fill="lightblue" stroke="lightblue" points="325.75,-130 214.5,-130 214.5,-94 325.75,-94 325.75,-130"/>
<text text-anchor="middle" x="270.12" y="-107.33" font-family="Times,serif" font-size="14.00">VPC nat44/66</text>
</g>
<!-- VPC_routing&#45;&gt;VPC_nat44_66 -->
<g id="edge18" class="edge">
<title>VPC_routing&#45;&gt;VPC_nat44_66</title>
<path fill="none" stroke="black" d="M338.25,-187.58C325.21,-173.31 307.78,-154.23 293.81,-138.94"/>
<polygon fill="black" stroke="black" points="296.4,-136.58 287.07,-131.55 291.23,-141.3 296.4,-136.58"/>
</g>
<!-- VPC_nat64 -->
<g id="node5" class="node">
<title>VPC_nat64</title>
<polygon fill="lightblue" stroke="lightblue" points="196.5,-130 107.75,-130 107.75,-94 196.5,-94 196.5,-130"/>
<text text-anchor="middle" x="152.12" y="-107.33" font-family="Times,serif" font-size="14.00">VPC nat64</text>
</g>
<!-- VPC_routing&#45;&gt;VPC_nat64 -->
<g id="edge19" class="edge">
<title>VPC_routing&#45;&gt;VPC_nat64</title>
<path fill="none" stroke="black" d="M312.64,-187.58C279.35,-172.11 233.87,-150.98 199.82,-135.16"/>
<polygon fill="black" stroke="black" points="201.57,-132.11 191.02,-131.07 198.62,-138.46 201.57,-132.11"/>
</g>
<!-- telemetry -->
<g id="node6" class="node">
<title>telemetry</title>
<polygon fill="lightblue" stroke="lightblue" points="400.75,-36 223.5,-36 223.5,0 400.75,0 400.75,-36"/>
<text text-anchor="middle" x="312.12" y="-13.32" font-family="Times,serif" font-size="14.00">Telemetry/observability</text>
</g>
<!-- VPC_routing&#45;&gt;telemetry -->
<g id="edge17" class="edge">
<title>VPC_routing&#45;&gt;telemetry</title>
<path fill="none" stroke="black" d="M353.88,-187.88C350.07,-164.92 343.22,-126.54 335.12,-94 331.25,-78.41 326.06,-61.26 321.59,-47.3"/>
<polygon fill="black" stroke="black" points="324.94,-46.29 318.52,-37.87 318.29,-48.46 324.94,-46.29"/>
</g>
<!-- rate_limiting -->
<g id="node7" class="node">
<title>rate_limiting</title>
<polygon fill="lightblue" stroke="lightblue" points="486,-130 382.25,-130 382.25,-94 486,-94 486,-130"/>
<text text-anchor="middle" x="434.12" y="-107.33" font-family="Times,serif" font-size="14.00">Rate limiting</text>
</g>
<!-- VPC_routing&#45;&gt;rate_limiting -->
<g id="edge20" class="edge">
<title>VPC_routing&#45;&gt;rate_limiting</title>
<path fill="none" stroke="black" d="M373.83,-187.58C385.26,-173.45 400.51,-154.58 412.81,-139.37"/>
<polygon fill="black" stroke="black" points="415.51,-141.59 419.08,-131.61 410.07,-137.19 415.51,-141.59"/>
</g>
<!-- VPC_nat44_66&#45;&gt;telemetry -->
<g id="edge15" class="edge">
<title>VPC_nat44_66&#45;&gt;telemetry</title>
<path fill="none" stroke="black" d="M278.02,-93.7C284.07,-80.46 292.52,-61.95 299.5,-46.66"/>
<polygon fill="black" stroke="black" points="302.66,-48.15 303.63,-37.6 296.3,-45.25 302.66,-48.15"/>
<text text-anchor="middle" x="273.05" y="-69.11" font-family="Times,serif" font-size="14.00">weak</text>
</g>
<!-- VPC_nat64&#45;&gt;telemetry -->
<g id="edge16" class="edge">
<title>VPC_nat64&#45;&gt;telemetry</title>
<path fill="none" stroke="black" d="M182.22,-93.7C207.62,-79.09 244.18,-58.07 272.06,-42.04"/>
<polygon fill="black" stroke="black" points="273.66,-45.16 280.58,-37.14 270.17,-39.09 273.66,-45.16"/>
<text text-anchor="middle" x="213.77" y="-69.15" font-family="Times,serif" font-size="14.00">weak</text>
</g>
<!-- rate_limiting&#45;&gt;telemetry -->
<g id="edge26" class="edge">
<title>rate_limiting&#45;&gt;telemetry</title>
<path fill="none" stroke="black" d="M411.18,-93.7C392.18,-79.37 364.98,-58.86 343.89,-42.95"/>
<polygon fill="black" stroke="black" points="346.27,-40.36 336.18,-37.14 342.05,-45.95 346.27,-40.36"/>
<text text-anchor="middle" x="355.32" y="-69.1" font-family="Times,serif" font-size="14.00">weak</text>
</g>
<!-- fault_tolerance -->
<g id="node8" class="node">
<title>fault_tolerance</title>
<polygon fill="lightblue" stroke="lightblue" points="182.12,-227.25 64.12,-227.25 64.12,-191.25 182.12,-191.25 182.12,-227.25"/>
<text text-anchor="middle" x="123.12" y="-204.57" font-family="Times,serif" font-size="14.00">Fault tolerance</text>
</g>
<!-- fault_tolerance&#45;&gt;VPC_nat44_66 -->
<g id="edge7" class="edge">
<title>fault_tolerance&#45;&gt;VPC_nat44_66</title>
<path fill="none" stroke="black" d="M150.09,-190.78C173.61,-175.54 207.92,-153.3 233.85,-136.51"/>
<polygon fill="black" stroke="black" points="235.57,-139.56 242.06,-131.18 231.77,-133.68 235.57,-139.56"/>
</g>
<!-- fault_tolerance&#45;&gt;VPC_nat64 -->
<g id="edge8" class="edge">
<title>fault_tolerance&#45;&gt;VPC_nat64</title>
<path fill="none" stroke="black" d="M128.44,-190.78C132.65,-176.95 138.62,-157.36 143.51,-141.3"/>
<polygon fill="black" stroke="black" points="146.83,-142.39 146.4,-131.81 140.14,-140.35 146.83,-142.39"/>
</g>
<!-- Management_API -->
<g id="node9" class="node">
<title>Management_API</title>
<polygon fill="lightblue" stroke="lightblue" points="526,-700.5 392.25,-700.5 392.25,-664.5 526,-664.5 526,-700.5"/>
<text text-anchor="middle" x="459.12" y="-677.83" font-family="Times,serif" font-size="14.00">Management API</text>
</g>
<!-- all -->
<g id="node17" class="node">
<title>all</title>
<polygon fill="none" stroke="black" points="486.12,-606.5 432.12,-606.5 432.12,-570.5 486.12,-570.5 486.12,-606.5"/>
<text text-anchor="middle" x="459.12" y="-583.83" font-family="Times,serif" font-size="14.00">*</text>
</g>
<!-- Management_API&#45;&gt;all -->
<g id="edge1" class="edge">
<title>Management_API&#45;&gt;all</title>
<path fill="none" stroke="black" d="M453.71,-664.2C452.3,-651.22 452.01,-633.16 452.83,-618.06"/>
<polygon fill="black" stroke="black" points="456.3,-618.48 453.6,-608.24 449.33,-617.93 456.3,-618.48"/>
</g>
<!-- control_plane_integration -->
<g id="node10" class="node">
<title>control_plane_integration</title>
<polygon fill="none" stroke="black" points="186.25,-606.5 0,-606.5 0,-570.5 186.25,-570.5 186.25,-606.5"/>
<text text-anchor="middle" x="93.12" y="-583.83" font-family="Times,serif" font-size="14.00">control plane integration</text>
</g>
<!-- control_plane_integration&#45;&gt;BGP_underlay -->
<g id="edge21" class="edge">
<title>control_plane_integration&#45;&gt;BGP_underlay</title>
<path fill="none" stroke="black" d="M130.18,-570.2C162,-555.34 208.06,-533.83 242.59,-517.7"/>
<polygon fill="black" stroke="black" points="243.95,-520.93 251.53,-513.52 240.99,-514.58 243.95,-520.93"/>
</g>
<!-- state_sync&#45;&gt;fault_tolerance -->
<g id="edge22" class="edge">
<title>state_sync&#45;&gt;fault_tolerance</title>
<path fill="none" stroke="black" d="M181.1,-288.03C170.39,-273.66 155.05,-253.08 142.84,-236.69"/>
<polygon fill="black" stroke="black" points="145.75,-234.75 136.97,-228.82 140.14,-238.93 145.75,-234.75"/>
</g>
<!-- hardware_offloaded_nat -->
<g id="node12" class="node">
<title>hardware_offloaded_nat</title>
<polygon fill="none" stroke="black" points="290.25,-227.25 200,-227.25 200,-191.25 290.25,-191.25 290.25,-227.25"/>
<text text-anchor="middle" x="245.12" y="-204.57" font-family="Times,serif" font-size="14.00">offload nat</text>
</g>
<!-- hardware_offloaded_nat&#45;&gt;VPC_nat44_66 -->
<g id="edge13" class="edge">
<title>hardware_offloaded_nat&#45;&gt;VPC_nat44_66</title>
<path fill="none" stroke="black" d="M249.71,-190.78C253.34,-176.95 258.48,-157.36 262.7,-141.3"/>
<polygon fill="black" stroke="black" points="266.03,-142.38 265.18,-131.82 259.26,-140.61 266.03,-142.38"/>
</g>
<!-- hardware_offloaded_nat&#45;&gt;VPC_nat64 -->
<g id="edge14" class="edge">
<title>hardware_offloaded_nat&#45;&gt;VPC_nat64</title>
<path fill="none" stroke="black" d="M228.07,-190.78C213.78,-176.14 193.19,-155.06 177.05,-138.53"/>
<polygon fill="black" stroke="black" points="179.62,-136.15 170.13,-131.44 174.61,-141.04 179.62,-136.15"/>
</g>
<!-- hardware_offloaded_routing -->
<g id="node13" class="node">
<title>hardware_offloaded_routing</title>
<polygon fill="none" stroke="black" points="375.75,-606.5 204.5,-606.5 204.5,-570.5 375.75,-570.5 375.75,-606.5"/>
<text text-anchor="middle" x="290.12" y="-583.83" font-family="Times,serif" font-size="14.00">Underlay route offload</text>
</g>
<!-- hardware_offloaded_routing&#45;&gt;BGP_underlay -->
<g id="edge6" class="edge">
<title>hardware_offloaded_routing&#45;&gt;BGP_underlay</title>
<path fill="none" stroke="black" d="M290.12,-570.2C290.12,-557.22 290.12,-539.16 290.12,-524.06"/>
<polygon fill="black" stroke="black" points="293.63,-524.24 290.13,-514.24 286.63,-524.24 293.63,-524.24"/>
</g>
<!-- hardware_offloaded_vpc&#45;&gt;rate_limiting -->
<g id="edge24" class="edge">
<title>hardware_offloaded_vpc&#45;&gt;rate_limiting</title>
<path fill="none" stroke="black" d="M405.18,-288.23C407.85,-273.04 411.81,-250.31 415.12,-230.5 420.21,-200.13 425.82,-165.3 429.61,-141.5"/>
<polygon fill="black" stroke="black" points="433.06,-142.05 431.18,-131.63 426.15,-140.95 433.06,-142.05"/>
</g>
<!-- hardware_offloaded_vpc&#45;&gt;hardware_offloaded_nat -->
<g id="edge23" class="edge">
<title>hardware_offloaded_vpc&#45;&gt;hardware_offloaded_nat</title>
<path fill="none" stroke="black" d="M373.33,-288.03C348.1,-272.72 311.23,-250.36 283.5,-233.53"/>
<polygon fill="black" stroke="black" points="285.4,-230.59 275.03,-228.39 281.77,-236.57 285.4,-230.59"/>
</g>
<!-- hardware_offloading_basic -->
<g id="node15" class="node">
<title>hardware_offloading_basic</title>
<polygon fill="none" stroke="black" points="362.88,-700.5 237.38,-700.5 237.38,-664.5 362.88,-664.5 362.88,-700.5"/>
<text text-anchor="middle" x="300.12" y="-677.83" font-family="Times,serif" font-size="14.00">basic offloading</text>
</g>
<!-- hardware_offloading_basic&#45;&gt;hardware_offloaded_routing -->
<g id="edge5" class="edge">
<title>hardware_offloading_basic&#45;&gt;hardware_offloaded_routing</title>
<path fill="none" stroke="black" d="M298.24,-664.2C296.83,-651.22 294.87,-633.16 293.23,-618.06"/>
<polygon fill="black" stroke="black" points="296.72,-617.79 292.16,-608.23 289.76,-618.55 296.72,-617.79"/>
</g>
<!-- hardware_offloading_basic&#45;&gt;hardware_offloaded_vpc -->
<g id="edge25" class="edge">
<title>hardware_offloading_basic&#45;&gt;hardware_offloaded_vpc</title>
<path fill="none" stroke="black" d="M329.67,-664.24C349.14,-651.1 373.17,-631.1 385.12,-606.5 429.16,-515.88 416.27,-391.13 407.4,-335.84"/>
<polygon fill="black" stroke="black" points="410.91,-335.6 405.79,-326.33 404.01,-336.77 410.91,-335.6"/>
</g>
<!-- datastore_integration -->
<g id="node16" class="node">
<title>datastore_integration</title>
<polygon fill="none" stroke="black" points="201.88,-700.5 40.38,-700.5 40.38,-664.5 201.88,-664.5 201.88,-700.5"/>
<text text-anchor="middle" x="121.12" y="-677.83" font-family="Times,serif" font-size="14.00">datastore integration</text>
</g>
<!-- datastore_integration&#45;&gt;control_plane_integration -->
<g id="edge3" class="edge">
<title>datastore_integration&#45;&gt;control_plane_integration</title>
<path fill="none" stroke="black" d="M115.86,-664.2C111.87,-651.09 106.31,-632.81 101.68,-617.61"/>
<polygon fill="black" stroke="black" points="105.07,-616.72 98.81,-608.17 98.37,-618.76 105.07,-616.72"/>
</g>
<!-- datastore_integration&#45;&gt;hardware_offloaded_routing -->
<g id="edge4" class="edge">
<title>datastore_integration&#45;&gt;hardware_offloaded_routing</title>
<path fill="none" stroke="black" d="M152.91,-664.2C179.85,-649.53 218.7,-628.38 248.19,-612.33"/>
<polygon fill="black" stroke="black" points="249.75,-615.46 256.86,-607.61 246.41,-609.31 249.75,-615.46"/>
</g>
<!-- all&#45;&gt;Management_API -->
<g id="edge2" class="edge">
<title>all&#45;&gt;Management_API</title>
<path fill="none" stroke="black" d="M464.53,-606.73C465.94,-619.69 466.24,-637.73 465.43,-652.85"/>
<polygon fill="black" stroke="black" points="461.95,-652.44 464.66,-662.69 468.93,-652.99 461.95,-652.44"/>
</g>
</g>
</svg>
