<svg xmlns="http://www.w3.org/2000/svg" xmlns:xlink="http://www.w3.org/1999/xlink" contentStyleType="text/css" data-diagram-type="WBS" height="1408px" preserveAspectRatio="none" style="width:479px;height:1408px;background:#FFFFFF;" version="1.1" viewBox="0 0 479 1408" width="479px" zoomAndPan="magnify"><defs/><g><line style="stroke:#181818;stroke-width:1.5;" x1="22.542" x2="22.542" y1="63.9688" y2="83.9688"/><text fill="#000000" font-family="sans-serif" font-size="12" lengthAdjust="spacing" textLength="22.084" x="10" y="96.1074">/nix</text><line style="stroke:#181818;stroke-width:1.5;" x1="70.8057" x2="70.8057" y1="63.9688" y2="83.9688"/><rect fill="#F1F1F1" height="33.9688" style="stroke:#181818;stroke-width:1.5;" width="31.4434" x="55.084" y="83.9688"/><text fill="#000000" font-family="sans-serif" font-size="12" lengthAdjust="spacing" textLength="11.4434" x="65.084" y="105.1074">...</text><line style="stroke:#181818;stroke-width:1.5;" x1="70.8057" x2="80.8057" y1="149.9219" y2="149.9219"/><rect fill="#F1F1F1" height="33.9688" style="stroke:#181818;stroke-width:1.5;" width="89.7617" x="80.8057" y="132.9375"/><text fill="#000000" font-family="sans-serif" font-size="12" lengthAdjust="spacing" textLength="69.7617" x="90.8057" y="154.0762">$project-dir</text><line style="stroke:#181818;stroke-width:1.5;" x1="125.6865" x2="135.6865" y1="198.8906" y2="198.8906"/><rect fill="#F1F1F1" height="33.9688" style="stroke:#181818;stroke-width:1.5;" width="93.7168" x="135.6865" y="181.9063"/><text fill="#000000" font-family="sans-serif" font-size="12" lengthAdjust="spacing" textLength="73.7168" x="145.6865" y="203.0449">compile-env</text><line style="stroke:#181818;stroke-width:1.5;" x1="182.5449" x2="192.5449" y1="247.8594" y2="247.8594"/><rect fill="#F1F1F1" height="33.9688" style="stroke:#181818;stroke-width:1.5;" width="38.041" x="192.5449" y="230.875"/><text fill="#000000" font-family="sans-serif" font-size="12" lengthAdjust="spacing" textLength="18.041" x="202.5449" y="252.0137">nix</text><line style="stroke:#181818;stroke-width:1.5;" x1="182.5449" x2="192.5449" y1="296.8281" y2="296.8281"/><rect fill="#F1F1F1" height="33.9688" style="stroke:#181818;stroke-width:1.5;" width="38.5566" x="192.5449" y="279.8438"/><text fill="#000000" font-family="sans-serif" font-size="12" lengthAdjust="spacing" textLength="18.5566" x="202.5449" y="300.9824">bin</text><line style="stroke:#181818;stroke-width:1.5;" x1="211.8232" x2="221.8232" y1="336.7969" y2="336.7969"/><text fill="#000000" font-family="sans-serif" font-size="12" lengthAdjust="spacing" textLength="35.7891" x="221.8232" y="340.9512">llvm-*</text><line style="stroke:#181818;stroke-width:1.5;" x1="211.8232" x2="221.8232" y1="367.7656" y2="367.7656"/><text fill="#000000" font-family="sans-serif" font-size="12" lengthAdjust="spacing" textLength="32.5078" x="221.8232" y="371.9199">clang</text><line style="stroke:#181818;stroke-width:1.5;" x1="211.8232" x2="221.8232" y1="398.7344" y2="398.7344"/><text fill="#000000" font-family="sans-serif" font-size="12" lengthAdjust="spacing" textLength="14.2852" x="221.8232" y="402.8887">lld</text><line style="stroke:#181818;stroke-width:1.5;" x1="211.8232" x2="211.8232" y1="313.8125" y2="398.7344"/><line style="stroke:#181818;stroke-width:1.5;" x1="182.5449" x2="192.5449" y1="438.7031" y2="438.7031"/><rect fill="#F1F1F1" height="33.9688" style="stroke:#181818;stroke-width:1.5;" width="34.2852" x="192.5449" y="421.7188"/><text fill="#000000" font-family="sans-serif" font-size="12" lengthAdjust="spacing" textLength="14.2852" x="202.5449" y="442.8574">lib</text><line style="stroke:#181818;stroke-width:1.5;" x1="209.6875" x2="219.6875" y1="478.6719" y2="478.6719"/><text fill="#000000" font-family="sans-serif" font-size="12" lengthAdjust="spacing" textLength="80.291" x="219.6875" y="482.8262">build dep libs</text><line style="stroke:#181818;stroke-width:1.5;" x1="209.6875" x2="209.6875" y1="455.6875" y2="478.6719"/><line style="stroke:#181818;stroke-width:1.5;" x1="182.5449" x2="192.5449" y1="518.6406" y2="518.6406"/><rect fill="#F1F1F1" height="33.9688" style="stroke:#181818;stroke-width:1.5;" width="63.9277" x="192.5449" y="501.6563"/><text fill="#000000" font-family="sans-serif" font-size="12" lengthAdjust="spacing" textLength="43.9277" x="202.5449" y="522.7949">sysroot</text><line style="stroke:#181818;stroke-width:1.5;" x1="224.5088" x2="234.5088" y1="567.6094" y2="567.6094"/><rect fill="#F1F1F1" height="33.9688" style="stroke:#181818;stroke-width:1.5;" width="182.9668" x="234.5088" y="550.625"/><text fill="#000000" font-family="sans-serif" font-size="12" lengthAdjust="spacing" textLength="162.9668" x="244.5088" y="571.7637">x86_64-unknown-linux-gnu</text><line style="stroke:#181818;stroke-width:1.5;" x1="325.9922" x2="335.9922" y1="616.5781" y2="616.5781"/><rect fill="#F1F1F1" height="33.9688" style="stroke:#181818;stroke-width:1.5;" width="57.8398" x="335.9922" y="599.5938"/><text fill="#000000" font-family="sans-serif" font-size="12" lengthAdjust="spacing" textLength="37.8398" x="345.9922" y="620.7324">debug</text><line style="stroke:#181818;stroke-width:1.5;" x1="364.9121" x2="374.9121" y1="665.5469" y2="665.5469"/><rect fill="#F1F1F1" height="33.9688" style="stroke:#181818;stroke-width:1.5;" width="34.2852" x="374.9121" y="648.5625"/><text fill="#000000" font-family="sans-serif" font-size="12" lengthAdjust="spacing" textLength="14.2852" x="384.9121" y="669.7012">lib</text><line style="stroke:#181818;stroke-width:1.5;" x1="392.0547" x2="402.0547" y1="705.5156" y2="705.5156"/><text fill="#000000" font-family="sans-serif" font-size="12" lengthAdjust="spacing" textLength="54.668" x="402.0547" y="709.6699">dpdk-libs</text><line style="stroke:#181818;stroke-width:1.5;" x1="392.0547" x2="402.0547" y1="736.4844" y2="736.4844"/><text fill="#000000" font-family="sans-serif" font-size="12" lengthAdjust="spacing" textLength="56.4609" x="402.0547" y="740.6387">rdma-libs</text><line style="stroke:#181818;stroke-width:1.5;" x1="392.0547" x2="402.0547" y1="767.4531" y2="767.4531"/><text fill="#000000" font-family="sans-serif" font-size="12" lengthAdjust="spacing" textLength="28.8691" x="402.0547" y="771.6074">deps</text><line style="stroke:#181818;stroke-width:1.5;" x1="392.0547" x2="392.0547" y1="682.5313" y2="767.4531"/><line style="stroke:#181818;stroke-width:1.5;" x1="364.9121" x2="364.9121" y1="633.5625" y2="665.5469"/><line style="stroke:#181818;stroke-width:1.5;" x1="325.9922" x2="335.9922" y1="807.4219" y2="807.4219"/><rect fill="#F1F1F1" height="33.9688" style="stroke:#181818;stroke-width:1.5;" width="64.0215" x="335.9922" y="790.4375"/><text fill="#000000" font-family="sans-serif" font-size="12" lengthAdjust="spacing" textLength="44.0215" x="345.9922" y="811.5762">release</text><line style="stroke:#181818;stroke-width:1.5;" x1="368.0029" x2="378.0029" y1="856.3906" y2="856.3906"/><rect fill="#F1F1F1" height="33.9688" style="stroke:#181818;stroke-width:1.5;" width="34.2852" x="378.0029" y="839.4063"/><text fill="#000000" font-family="sans-serif" font-size="12" lengthAdjust="spacing" textLength="14.2852" x="388.0029" y="860.5449">lib</text><line style="stroke:#181818;stroke-width:1.5;" x1="395.1455" x2="405.1455" y1="896.3594" y2="896.3594"/><text fill="#000000" font-family="sans-serif" font-size="12" lengthAdjust="spacing" textLength="54.668" x="405.1455" y="900.5137">dpdk-libs</text><line style="stroke:#181818;stroke-width:1.5;" x1="395.1455" x2="405.1455" y1="927.3281" y2="927.3281"/><text fill="#000000" font-family="sans-serif" font-size="12" lengthAdjust="spacing" textLength="56.4609" x="405.1455" y="931.4824">rdma-libs</text><line style="stroke:#181818;stroke-width:1.5;" x1="395.1455" x2="405.1455" y1="958.2969" y2="958.2969"/><text fill="#000000" font-family="sans-serif" font-size="12" lengthAdjust="spacing" textLength="28.8691" x="405.1455" y="962.4512">deps</text><line style="stroke:#181818;stroke-width:1.5;" x1="395.1455" x2="395.1455" y1="873.375" y2="958.2969"/><line style="stroke:#181818;stroke-width:1.5;" x1="368.0029" x2="368.0029" y1="824.4063" y2="856.3906"/><line style="stroke:#181818;stroke-width:1.5;" x1="325.9922" x2="325.9922" y1="584.5938" y2="807.4219"/><line style="stroke:#181818;stroke-width:1.5;" x1="224.5088" x2="234.5088" y1="998.2656" y2="998.2656"/><rect fill="#F1F1F1" height="33.9688" style="stroke:#181818;stroke-width:1.5;" width="189.0195" x="234.5088" y="981.2813"/><text fill="#000000" font-family="sans-serif" font-size="12" lengthAdjust="spacing" textLength="169.0195" x="244.5088" y="1002.4199">x86_64-unknown-linux-musl</text><line style="stroke:#181818;stroke-width:1.5;" x1="329.0186" x2="339.0186" y1="1047.2344" y2="1047.2344"/><rect fill="#F1F1F1" height="33.9688" style="stroke:#181818;stroke-width:1.5;" width="57.8398" x="339.0186" y="1030.25"/><text fill="#000000" font-family="sans-serif" font-size="12" lengthAdjust="spacing" textLength="37.8398" x="349.0186" y="1051.3887">debug</text><line style="stroke:#181818;stroke-width:1.5;" x1="367.9385" x2="377.9385" y1="1096.2031" y2="1096.2031"/><rect fill="#F1F1F1" height="33.9688" style="stroke:#181818;stroke-width:1.5;" width="34.2852" x="377.9385" y="1079.2188"/><text fill="#000000" font-family="sans-serif" font-size="12" lengthAdjust="spacing" textLength="14.2852" x="387.9385" y="1100.3574">lib</text><line style="stroke:#181818;stroke-width:1.5;" x1="395.0811" x2="405.0811" y1="1136.1719" y2="1136.1719"/><text fill="#000000" font-family="sans-serif" font-size="12" lengthAdjust="spacing" textLength="54.668" x="405.0811" y="1140.3262">dpdk-libs</text><line style="stroke:#181818;stroke-width:1.5;" x1="395.0811" x2="405.0811" y1="1167.1406" y2="1167.1406"/><text fill="#000000" font-family="sans-serif" font-size="12" lengthAdjust="spacing" textLength="56.4609" x="405.0811" y="1171.2949">rdma-libs</text><line style="stroke:#181818;stroke-width:1.5;" x1="395.0811" x2="405.0811" y1="1198.1094" y2="1198.1094"/><text fill="#000000" font-family="sans-serif" font-size="12" lengthAdjust="spacing" textLength="28.8691" x="405.0811" y="1202.2637">deps</text><line style="stroke:#181818;stroke-width:1.5;" x1="395.0811" x2="395.0811" y1="1113.1875" y2="1198.1094"/><line style="stroke:#181818;stroke-width:1.5;" x1="367.9385" x2="367.9385" y1="1064.2188" y2="1096.2031"/><line style="stroke:#181818;stroke-width:1.5;" x1="329.0186" x2="339.0186" y1="1238.0781" y2="1238.0781"/><rect fill="#F1F1F1" height="33.9688" style="stroke:#181818;stroke-width:1.5;" width="64.0215" x="339.0186" y="1221.0938"/><text fill="#000000" font-family="sans-serif" font-size="12" lengthAdjust="spacing" textLength="44.0215" x="349.0186" y="1242.2324">release</text><line style="stroke:#181818;stroke-width:1.5;" x1="371.0293" x2="381.0293" y1="1287.0469" y2="1287.0469"/><rect fill="#F1F1F1" height="33.9688" style="stroke:#181818;stroke-width:1.5;" width="34.2852" x="381.0293" y="1270.0625"/><text fill="#000000" font-family="sans-serif" font-size="12" lengthAdjust="spacing" textLength="14.2852" x="391.0293" y="1291.2012">lib</text><line style="stroke:#181818;stroke-width:1.5;" x1="398.1719" x2="408.1719" y1="1327.0156" y2="1327.0156"/><text fill="#000000" font-family="sans-serif" font-size="12" lengthAdjust="spacing" textLength="54.668" x="408.1719" y="1331.1699">dpdk-libs</text><line style="stroke:#181818;stroke-width:1.5;" x1="398.1719" x2="408.1719" y1="1357.9844" y2="1357.9844"/><text fill="#000000" font-family="sans-serif" font-size="12" lengthAdjust="spacing" textLength="56.4609" x="408.1719" y="1362.1387">rdma-libs</text><line style="stroke:#181818;stroke-width:1.5;" x1="398.1719" x2="408.1719" y1="1388.9531" y2="1388.9531"/><text fill="#000000" font-family="sans-serif" font-size="12" lengthAdjust="spacing" textLength="28.8691" x="408.1719" y="1393.1074">deps</text><line style="stroke:#181818;stroke-width:1.5;" x1="398.1719" x2="398.1719" y1="1304.0313" y2="1388.9531"/><line style="stroke:#181818;stroke-width:1.5;" x1="371.0293" x2="371.0293" y1="1255.0625" y2="1287.0469"/><line style="stroke:#181818;stroke-width:1.5;" x1="329.0186" x2="329.0186" y1="1015.25" y2="1238.0781"/><line style="stroke:#181818;stroke-width:1.5;" x1="224.5088" x2="224.5088" y1="535.625" y2="998.2656"/><line style="stroke:#181818;stroke-width:1.5;" x1="182.5449" x2="182.5449" y1="215.875" y2="518.6406"/><line style="stroke:#181818;stroke-width:1.5;" x1="125.6865" x2="125.6865" y1="166.9063" y2="198.8906"/><line style="stroke:#181818;stroke-width:1.5;" x1="70.8057" x2="70.8057" y1="117.9375" y2="149.9219"/><line style="stroke:#181818;stroke-width:1.5;" x1="22.542" x2="70.8057" y1="63.9688" y2="63.9688"/><rect fill="#F1F1F1" height="33.9688" style="stroke:#181818;stroke-width:1.5;" width="24.043" x="34.6523" y="10"/><text fill="#000000" font-family="sans-serif" font-size="12" lengthAdjust="spacing" textLength="4.043" x="44.6523" y="31.1387">/</text><line style="stroke:#181818;stroke-width:1.5;" x1="46.6738" x2="46.6738" y1="43.9688" y2="63.9688"/><line style="stroke:#181818;stroke-width:1;" x1="32.2224" x2="192.5449" y1="99.9375" y2="232.1713"/><polygon fill="#181818" points="192.5449,232.1713,188.147,223.3589,188.6877,228.9898,183.0567,229.5305,192.5449,232.1713" style="stroke:#181818;stroke-width:1;"/></g></svg>