<svg xmlns="http://www.w3.org/2000/svg" xmlns:xlink="http://www.w3.org/1999/xlink" contentStyleType="text/css" data-diagram-type="SEQUENCE" height="619px" preserveAspectRatio="none" style="width:665px;height:619px;background:#FFFFFF;" version="1.1" viewBox="0 0 665 619" width="665px" zoomAndPan="magnify"><defs/><g><rect fill="#E0EEEE" height="607.4141" style="stroke:#181818;stroke-width:0.5;" width="293.0273" x="1" y="6"/><text fill="#000000" font-family="sans-serif" font-size="13" font-weight="bold" lengthAdjust="spacing" textLength="103.8604" x="95.5835" y="18.0669">hedgehog stuff</text><g><title>dataplane</title><rect fill="transparent" height="506.3906" width="8" x="43.188" y="56.4297"/><line style="stroke:#181818;stroke-width:0.5;stroke-dasharray:5.0,5.0;" x1="47" x2="47" y1="56.4297" y2="562.8203"/></g><g><title>dpdk-sys</title><rect fill="transparent" height="506.3906" width="8" x="247.6812" y="56.4297"/><line style="stroke:#181818;stroke-width:0.5;stroke-dasharray:5.0,5.0;" x1="251.335" x2="251.335" y1="56.4297" y2="562.8203"/></g><g><title>nixpkgs</title><rect fill="transparent" height="506.3906" width="8" x="416.3799" y="56.4297"/><line style="stroke:#181818;stroke-width:0.5;stroke-dasharray:5.0,5.0;" x1="420.2686" x2="420.2686" y1="56.4297" y2="562.8203"/></g><g><title>container</title><rect fill="transparent" height="506.3906" width="8" x="500.6592" y="56.4297"/><line style="stroke:#181818;stroke-width:0.5;stroke-dasharray:5.0,5.0;" x1="504.4912" x2="504.4912" y1="56.4297" y2="562.8203"/></g><g><title>external</title><rect fill="transparent" height="506.3906" width="8" x="603.0093" y="56.4297"/><line style="stroke:#181818;stroke-width:0.5;stroke-dasharray:5.0,5.0;" x1="606.8271" x2="606.8271" y1="56.4297" y2="562.8203"/></g><rect fill="#E2E2F0" height="30.2969" rx="2.5" ry="2.5" style="stroke:#181818;stroke-width:0.5;" width="84.376" x="5" y="25.1328"/><text fill="#000000" font-family="sans-serif" font-size="14" lengthAdjust="spacing" textLength="70.376" x="12" y="45.1279">dataplane</text><rect fill="#E2E2F0" height="30.2969" rx="2.5" ry="2.5" style="stroke:#181818;stroke-width:0.5;" width="84.376" x="5" y="561.8203"/><text fill="#000000" font-family="sans-serif" font-size="14" lengthAdjust="spacing" textLength="70.376" x="12" y="581.8154">dataplane</text><rect fill="#E2E2F0" height="30.2969" rx="2.5" ry="2.5" style="stroke:#181818;stroke-width:0.5;" width="76.6924" x="213.335" y="25.1328"/><text fill="#000000" font-family="sans-serif" font-size="14" lengthAdjust="spacing" textLength="62.6924" x="220.335" y="45.1279">dpdk-sys</text><rect fill="#E2E2F0" height="30.2969" rx="2.5" ry="2.5" style="stroke:#181818;stroke-width:0.5;" width="76.6924" x="213.335" y="561.8203"/><text fill="#000000" font-family="sans-serif" font-size="14" lengthAdjust="spacing" textLength="62.6924" x="220.335" y="581.8154">dpdk-sys</text><rect fill="#E2E2F0" height="30.2969" rx="2.5" ry="2.5" style="stroke:#181818;stroke-width:0.5;" width="68.2227" x="386.2686" y="25.1328"/><text fill="#000000" font-family="sans-serif" font-size="14" lengthAdjust="spacing" textLength="54.2227" x="393.2686" y="45.1279">nixpkgs</text><rect fill="#E2E2F0" height="30.2969" rx="2.5" ry="2.5" style="stroke:#181818;stroke-width:0.5;" width="68.2227" x="386.2686" y="561.8203"/><text fill="#000000" font-family="sans-serif" font-size="14" lengthAdjust="spacing" textLength="54.2227" x="393.2686" y="581.8154">nixpkgs</text><rect fill="#E2E2F0" height="46.5938" rx="2.5" ry="2.5" style="stroke:#181818;stroke-width:0.5;" width="80.3359" x="464.4912" y="8.8359"/><text fill="#000000" font-family="sans-serif" font-size="14" lengthAdjust="spacing" textLength="66.3359" x="471.4912" y="28.8311">container</text><text fill="#000000" font-family="sans-serif" font-size="14" lengthAdjust="spacing" textLength="53.9697" x="477.6743" y="45.1279">registry</text><rect fill="#E2E2F0" height="46.5938" rx="2.5" ry="2.5" style="stroke:#181818;stroke-width:0.5;" width="80.3359" x="464.4912" y="561.8203"/><text fill="#000000" font-family="sans-serif" font-size="14" lengthAdjust="spacing" textLength="66.3359" x="471.4912" y="581.8154">container</text><text fill="#000000" font-family="sans-serif" font-size="14" lengthAdjust="spacing" textLength="53.9697" x="477.6743" y="598.1123">registry</text><rect fill="#E2E2F0" height="46.5938" rx="2.5" ry="2.5" style="stroke:#181818;stroke-width:0.5;" width="104.3643" x="554.8271" y="8.8359"/><text fill="#000000" font-family="sans-serif" font-size="14" lengthAdjust="spacing" textLength="58.0986" x="577.96" y="28.8311">external</text><text fill="#000000" font-family="sans-serif" font-size="14" lengthAdjust="spacing" textLength="90.3643" x="561.8271" y="45.1279">source repos</text><rect fill="#E2E2F0" height="46.5938" rx="2.5" ry="2.5" style="stroke:#181818;stroke-width:0.5;" width="104.3643" x="554.8271" y="561.8203"/><text fill="#000000" font-family="sans-serif" font-size="14" lengthAdjust="spacing" textLength="58.0986" x="577.96" y="581.8154">external</text><text fill="#000000" font-family="sans-serif" font-size="14" lengthAdjust="spacing" textLength="90.3643" x="561.8271" y="598.1123">source repos</text><polygon fill="#181818" points="408.3799,83.5625,418.3799,87.5625,408.3799,91.5625,412.3799,87.5625" style="stroke:#181818;stroke-width:1;"/><line style="stroke:#181818;stroke-width:1;" x1="251.6812" x2="414.3799" y1="87.5625" y2="87.5625"/><text fill="#000000" font-family="sans-serif" font-size="13" lengthAdjust="spacing" textLength="135.0464" x="258.6812" y="82.4966">build instructions plz</text><polygon fill="#181818" points="262.6812,112.6953,252.6812,116.6953,262.6812,120.6953,258.6812,116.6953" style="stroke:#181818;stroke-width:1;"/><line style="stroke:#181818;stroke-width:1;" x1="256.6812" x2="419.3799" y1="116.6953" y2="116.6953"/><text fill="#000000" font-family="sans-serif" font-size="13" lengthAdjust="spacing" textLength="69.71" x="268.6812" y="111.6294">here ya go</text><polygon fill="#181818" points="595.0093,141.8281,605.0093,145.8281,595.0093,149.8281,599.0093,145.8281" style="stroke:#181818;stroke-width:1;"/><line style="stroke:#181818;stroke-width:1;" x1="251.6812" x2="601.0093" y1="145.8281" y2="145.8281"/><text fill="#000000" font-family="sans-serif" font-size="13" lengthAdjust="spacing" textLength="68.542" x="258.6812" y="140.7622">fetch code</text><polygon fill="#181818" points="262.6812,170.9609,252.6812,174.9609,262.6812,178.9609,258.6812,174.9609" style="stroke:#181818;stroke-width:1;"/><line style="stroke:#181818;stroke-width:1;" x1="256.6812" x2="606.0093" y1="174.9609" y2="174.9609"/><text fill="#000000" font-family="sans-serif" font-size="13" lengthAdjust="spacing" textLength="69.71" x="268.6812" y="169.895">here ya go</text><line style="stroke:#181818;stroke-width:1;" x1="251.6812" x2="293.6812" y1="204.0938" y2="204.0938"/><line style="stroke:#181818;stroke-width:1;" x1="293.6812" x2="293.6812" y1="204.0938" y2="217.0938"/><line style="stroke:#181818;stroke-width:1;" x1="252.6812" x2="293.6812" y1="217.0938" y2="217.0938"/><polygon fill="#181818" points="262.6812,213.0938,252.6812,217.0938,262.6812,221.0938,258.6812,217.0938" style="stroke:#181818;stroke-width:1;"/><text fill="#000000" font-family="sans-serif" font-size="13" lengthAdjust="spacing" textLength="154.6987" x="258.6812" y="199.0278">follow build instructions</text><path d="M102,191.4609 L102,216.4609 L246,216.4609 L246,201.4609 L236,191.4609 L102,191.4609 " fill="#FEFFDD" style="stroke:#181818;stroke-width:0.5;"/><path d="M236,191.4609 L236,201.4609 L246,201.4609 L236,191.4609 " fill="#FEFFDD" style="stroke:#181818;stroke-width:0.5;"/><text fill="#000000" font-family="sans-serif" font-size="13" lengthAdjust="spacing" textLength="53.1807" x="108" y="208.5278">This is a</text><text fill="#000000" font-family="sans-serif" font-size="13" font-weight="bold" lengthAdjust="spacing" textLength="29.6816" x="165.313" y="208.5278">long</text><text fill="#000000" font-family="sans-serif" font-size="13" lengthAdjust="spacing" textLength="31.9668" x="199.127" y="208.5278">build</text><polygon fill="#181818" points="492.6592,242.2266,502.6592,246.2266,492.6592,250.2266,496.6592,246.2266" style="stroke:#181818;stroke-width:1;"/><line style="stroke:#181818;stroke-width:1;" x1="251.6812" x2="498.6592" y1="246.2266" y2="246.2266"/><text fill="#000000" font-family="sans-serif" font-size="13" lengthAdjust="spacing" textLength="115.4956" x="258.6812" y="241.1606">push compile-env</text><polygon fill="#181818" points="262.6812,271.3594,252.6812,275.3594,262.6812,279.3594,258.6812,275.3594" style="stroke:#181818;stroke-width:1;"/><line style="stroke:#181818;stroke-width:1;" x1="256.6812" x2="503.6592" y1="275.3594" y2="275.3594"/><text fill="#000000" font-family="sans-serif" font-size="13" lengthAdjust="spacing" textLength="34.144" x="268.6812" y="270.2935">got it</text><polygon fill="#181818" points="492.6592,300.4922,502.6592,304.4922,492.6592,308.4922,496.6592,304.4922" style="stroke:#181818;stroke-width:1;"/><line style="stroke:#181818;stroke-width:1;" x1="47.188" x2="498.6592" y1="304.4922" y2="304.4922"/><text fill="#000000" font-family="sans-serif" font-size="13" lengthAdjust="spacing" textLength="102.6797" x="54.188" y="299.4263">compile-env plz</text><polygon fill="#181818" points="58.188,329.625,48.188,333.625,58.188,337.625,54.188,333.625" style="stroke:#181818;stroke-width:1;"/><line style="stroke:#181818;stroke-width:1;" x1="52.188" x2="503.6592" y1="333.625" y2="333.625"/><text fill="#000000" font-family="sans-serif" font-size="13" lengthAdjust="spacing" textLength="69.71" x="64.188" y="328.5591">here ya go</text><line style="stroke:#181818;stroke-width:1;" x1="47.188" x2="89.188" y1="377.8906" y2="377.8906"/><line style="stroke:#181818;stroke-width:1;" x1="89.188" x2="89.188" y1="377.8906" y2="390.8906"/><line style="stroke:#181818;stroke-width:1;" x1="48.188" x2="89.188" y1="390.8906" y2="390.8906"/><polygon fill="#181818" points="58.188,386.8906,48.188,390.8906,58.188,394.8906,54.188,390.8906" style="stroke:#181818;stroke-width:1;"/><text fill="#000000" font-family="sans-serif" font-size="13" lengthAdjust="spacing" textLength="105.5806" x="54.188" y="357.6919">put compile-env</text><text fill="#000000" font-family="sans-serif" font-size="13" lengthAdjust="spacing" textLength="190.4932" x="54.188" y="372.8247">in a dir named "compile-env"</text><line style="stroke:#181818;stroke-width:1;" x1="47.188" x2="89.188" y1="446.7891" y2="446.7891"/><line style="stroke:#181818;stroke-width:1;" x1="89.188" x2="89.188" y1="446.7891" y2="459.7891"/><line style="stroke:#181818;stroke-width:1;" x1="48.188" x2="89.188" y1="459.7891" y2="459.7891"/><polygon fill="#181818" points="58.188,455.7891,48.188,459.7891,58.188,463.7891,54.188,459.7891" style="stroke:#181818;stroke-width:1;"/><text fill="#000000" font-family="monospace" font-size="13" lengthAdjust="spacing" textLength="104.9458" x="54.188" y="441.7231">just&#160;sterile-build</text><path d="M170.9458,403.8906 L170.9458,488.8906 L537.9458,488.8906 L537.9458,413.8906 L527.9458,403.8906 L170.9458,403.8906 " fill="#FEFFDD" style="stroke:#181818;stroke-width:0.5;"/><path d="M527.9458,403.8906 L527.9458,413.8906 L537.9458,413.8906 L527.9458,403.8906 " fill="#FEFFDD" style="stroke:#181818;stroke-width:0.5;"/><text fill="#000000" font-family="monospace" font-size="13" lengthAdjust="spacing" textLength="72.7632" x="176.9458" y="420.9575">cargo&#160;build</text><text fill="#000000" font-family="sans-serif" font-size="13" lengthAdjust="spacing" textLength="63.7368" x="253.8413" y="420.9575">(called by</text><text fill="#000000" font-family="monospace" font-size="13" lengthAdjust="spacing" textLength="104.9458" x="321.7104" y="420.9575">just&#160;sterile-build</text><text fill="#000000" font-family="sans-serif" font-size="13" lengthAdjust="spacing" textLength="63.1401" x="426.6563" y="420.9575">) now has</text><text fill="#000000" font-family="sans-serif" font-size="13" lengthAdjust="spacing" textLength="127.1499" x="176.9458" y="436.0903">access to the many</text><text fill="#000000" font-family="monospace" font-size="13" lengthAdjust="spacing" textLength="12.0986" x="308.228" y="436.0903">.a</text><text fill="#000000" font-family="sans-serif" font-size="13" lengthAdjust="spacing" textLength="158.2979" x="324.459" y="436.0903">files required to compile</text><text fill="#000000" font-family="sans-serif" font-size="13" lengthAdjust="spacing" textLength="150.6616" x="176.9458" y="451.2231">and link the dataplane.</text><text fill="#000000" font-family="sans-serif" font-size="13" lengthAdjust="spacing" textLength="341.8975" x="176.9458" y="466.356">It also has a consistent version of LLVM and clang to</text><text fill="#000000" font-family="sans-serif" font-size="13" lengthAdjust="spacing" textLength="67.3042" x="176.9458" y="481.4888">work with.</text><polygon fill="#181818" points="492.6592,511.6875,502.6592,515.6875,492.6592,519.6875,496.6592,515.6875" style="stroke:#181818;stroke-width:1;"/><line style="stroke:#181818;stroke-width:1;" x1="47.188" x2="498.6592" y1="515.6875" y2="515.6875"/><text fill="#000000" font-family="sans-serif" font-size="13" lengthAdjust="spacing" textLength="97.2334" x="54.188" y="510.6216">push container</text><polygon fill="#181818" points="58.188,540.8203,48.188,544.8203,58.188,548.8203,54.188,544.8203" style="stroke:#181818;stroke-width:1;"/><line style="stroke:#181818;stroke-width:1;" x1="52.188" x2="503.6592" y1="544.8203" y2="544.8203"/><text fill="#000000" font-family="sans-serif" font-size="13" lengthAdjust="spacing" textLength="34.144" x="64.188" y="539.7544">got it</text></g></svg>