<svg xmlns="http://www.w3.org/2000/svg" xmlns:xlink="http://www.w3.org/1999/xlink" contentStyleType="text/css" data-diagram-type="CLASS" height="470px" preserveAspectRatio="none" style="width:929px;height:470px;background:#FFFFFF;" version="1.1" viewBox="0 0 929 470" width="929px" zoomAndPan="magnify"><defs/><g><!--class flow_item--><g id="elem_flow_item"><rect codeLine="40" fill="#F1F1F1" height="26.2969" id="flow_item" rx="2.5" ry="2.5" style="stroke:#181818;stroke-width:0.5;" width="73.4639" x="830.56" y="352.19"/></g><a href="https://doc.dpdk.org/guides-24.11/prog_guide/ethdev/flow_offload.html#pattern-item" target="_top" title="https://doc.dpdk.org/guides-24.11/prog_guide/ethdev/flow_offload.html#pattern-item" xlink:actuate="onRequest" xlink:href="https://doc.dpdk.org/guides-24.11/prog_guide/ethdev/flow_offload.html#pattern-item" xlink:show="new" xlink:title="https://doc.dpdk.org/guides-24.11/prog_guide/ethdev/flow_offload.html#pattern-item" xlink:type="simple"><text fill="#0000FF" font-family="sans-serif" font-size="14" lengthAdjust="spacing" textLength="67.4639" x="833.56" y="370.1851">flow_item</text></a><!--class flow_item_template--><g id="elem_flow_item_template"><rect codeLine="40" fill="#F1F1F1" height="26.2969" id="flow_item_template" rx="2.5" ry="2.5" style="stroke:#181818;stroke-width:0.5;" width="143.6621" x="342.46" y="352.19"/></g><a href="https://doc.dpdk.org/guides-24.11/prog_guide/ethdev/flow_offload.html#pattern-templates" target="_top" title="https://doc.dpdk.org/guides-24.11/prog_guide/ethdev/flow_offload.html#pattern-templates" xlink:actuate="onRequest" xlink:href="https://doc.dpdk.org/guides-24.11/prog_guide/ethdev/flow_offload.html#pattern-templates" xlink:show="new" xlink:title="https://doc.dpdk.org/guides-24.11/prog_guide/ethdev/flow_offload.html#pattern-templates" xlink:type="simple"><text fill="#0000FF" font-family="sans-serif" font-size="14" lengthAdjust="spacing" textLength="137.6621" x="345.46" y="370.1851">flow_item_template</text></a><!--class flow_action--><g id="elem_flow_action"><rect codeLine="40" fill="#F1F1F1" height="26.2969" id="flow_action" rx="2.5" ry="2.5" style="stroke:#181818;stroke-width:0.5;" width="84.9277" x="710.82" y="352.19"/></g><a href="https://doc.dpdk.org/guides-24.11/prog_guide/ethdev/flow_offload.html#actions" target="_top" title="https://doc.dpdk.org/guides-24.11/prog_guide/ethdev/flow_offload.html#actions" xlink:actuate="onRequest" xlink:href="https://doc.dpdk.org/guides-24.11/prog_guide/ethdev/flow_offload.html#actions" xlink:show="new" xlink:title="https://doc.dpdk.org/guides-24.11/prog_guide/ethdev/flow_offload.html#actions" xlink:type="simple"><text fill="#0000FF" font-family="sans-serif" font-size="14" lengthAdjust="spacing" textLength="78.9277" x="713.82" y="370.1851">flow_action</text></a><!--class flow_action_template--><g id="elem_flow_action_template"><rect codeLine="40" fill="#F1F1F1" height="26.2969" id="flow_action_template" rx="2.5" ry="2.5" style="stroke:#181818;stroke-width:0.5;" width="155.126" x="520.73" y="352.19"/></g><a href="https://doc.dpdk.org/guides-24.11/prog_guide/ethdev/flow_offload.html#actions-templates" target="_top" title="https://doc.dpdk.org/guides-24.11/prog_guide/ethdev/flow_offload.html#actions-templates" xlink:actuate="onRequest" xlink:href="https://doc.dpdk.org/guides-24.11/prog_guide/ethdev/flow_offload.html#actions-templates" xlink:show="new" xlink:title="https://doc.dpdk.org/guides-24.11/prog_guide/ethdev/flow_offload.html#actions-templates" xlink:type="simple"><text fill="#0000FF" font-family="sans-serif" font-size="14" lengthAdjust="spacing" textLength="149.126" x="523.73" y="370.1851">flow_action_template</text></a><!--class flow_action_indirect--><g id="elem_flow_action_indirect"><rect codeLine="40" fill="#F1F1F1" height="26.2969" id="flow_action_indirect" rx="2.5" ry="2.5" style="stroke:#181818;stroke-width:0.5;" width="145.0225" x="777.78" y="438.48"/></g><a href="https://doc.dpdk.org/guides-24.11/prog_guide/ethdev/flow_offload.html#action-indirect" target="_top" title="https://doc.dpdk.org/guides-24.11/prog_guide/ethdev/flow_offload.html#action-indirect" xlink:actuate="onRequest" xlink:href="https://doc.dpdk.org/guides-24.11/prog_guide/ethdev/flow_offload.html#action-indirect" xlink:show="new" xlink:title="https://doc.dpdk.org/guides-24.11/prog_guide/ethdev/flow_offload.html#action-indirect" xlink:type="simple"><text fill="#0000FF" font-family="sans-serif" font-size="14" lengthAdjust="spacing" textLength="139.0225" x="780.78" y="456.4751">flow_action_indirect</text></a><!--class flow_action_indirect_list--><g id="elem_flow_action_indirect_list"><rect codeLine="40" fill="#F1F1F1" height="26.2969" id="flow_action_indirect_list" rx="2.5" ry="2.5" style="stroke:#181818;stroke-width:0.5;" width="172.585" x="570" y="438.48"/></g><a href="https://doc.dpdk.org/guides-24.11/prog_guide/ethdev/flow_offload.html#action-indirect-list" target="_top" title="https://doc.dpdk.org/guides-24.11/prog_guide/ethdev/flow_offload.html#action-indirect-list" xlink:actuate="onRequest" xlink:href="https://doc.dpdk.org/guides-24.11/prog_guide/ethdev/flow_offload.html#action-indirect-list" xlink:show="new" xlink:title="https://doc.dpdk.org/guides-24.11/prog_guide/ethdev/flow_offload.html#action-indirect-list" xlink:type="simple"><text fill="#0000FF" font-family="sans-serif" font-size="14" lengthAdjust="spacing" textLength="166.585" x="573" y="456.4751">flow_action_indirect_list</text></a><!--class switch_domain--><g id="elem_switch_domain"><rect codeLine="40" fill="#F1F1F1" height="26.2969" id="switch_domain" rx="2.5" ry="2.5" style="stroke:#181818;stroke-width:0.5;" width="110.125" x="288.23" y="265.89"/></g><a href="https://doc.dpdk.org/guides-24.11/prog_guide/ethdev/switch_representation.html" target="_top" title="https://doc.dpdk.org/guides-24.11/prog_guide/ethdev/switch_representation.html" xlink:actuate="onRequest" xlink:href="https://doc.dpdk.org/guides-24.11/prog_guide/ethdev/switch_representation.html" xlink:show="new" xlink:title="https://doc.dpdk.org/guides-24.11/prog_guide/ethdev/switch_representation.html" xlink:type="simple"><text fill="#0000FF" font-family="sans-serif" font-size="14" lengthAdjust="spacing" textLength="104.125" x="291.23" y="283.8851">switch_domain</text></a><!--class flow_table--><g id="elem_flow_table"><rect codeLine="40" fill="#F1F1F1" height="26.2969" id="flow_table" rx="2.5" ry="2.5" style="stroke:#181818;stroke-width:0.5;" width="77.292" x="485.64" y="179.59"/></g><a href="https://doc.dpdk.org/guides-24.11/prog_guide/ethdev/flow_offload.html#attribute-group" target="_top" title="https://doc.dpdk.org/guides-24.11/prog_guide/ethdev/flow_offload.html#attribute-group" xlink:actuate="onRequest" xlink:href="https://doc.dpdk.org/guides-24.11/prog_guide/ethdev/flow_offload.html#attribute-group" xlink:show="new" xlink:title="https://doc.dpdk.org/guides-24.11/prog_guide/ethdev/flow_offload.html#attribute-group" xlink:type="simple"><text fill="#0000FF" font-family="sans-serif" font-size="14" lengthAdjust="spacing" textLength="71.292" x="488.64" y="197.5851">flow_table</text></a><!--class flow--><g id="elem_flow"><rect codeLine="40" fill="#F1F1F1" height="26.2969" id="flow" rx="2.5" ry="2.5" style="stroke:#181818;stroke-width:0.5;" width="34.834" x="735.87" y="265.89"/></g><a href="https://doc.dpdk.org/guides-24.11/prog_guide/ethdev/flow_offload.html" target="_top" title="https://doc.dpdk.org/guides-24.11/prog_guide/ethdev/flow_offload.html" xlink:actuate="onRequest" xlink:href="https://doc.dpdk.org/guides-24.11/prog_guide/ethdev/flow_offload.html" xlink:show="new" xlink:title="https://doc.dpdk.org/guides-24.11/prog_guide/ethdev/flow_offload.html" xlink:type="simple"><text fill="#0000FF" font-family="sans-serif" font-size="14" lengthAdjust="spacing" textLength="28.834" x="738.87" y="283.8851">flow</text></a><!--class hairpin_queue--><g id="elem_hairpin_queue"><rect codeLine="40" fill="#F1F1F1" height="26.2969" id="hairpin_queue" rx="2.5" ry="2.5" style="stroke:#181818;stroke-width:0.5;" width="105.6064" x="165.49" y="352.19"/></g><a href="https://inbox.dpdk.org/dev/1565703468-55617-1-git-send-email-orika@mellanox.com/" target="_top" title="https://inbox.dpdk.org/dev/1565703468-55617-1-git-send-email-orika@mellanox.com/" xlink:actuate="onRequest" xlink:href="https://inbox.dpdk.org/dev/1565703468-55617-1-git-send-email-orika@mellanox.com/" xlink:show="new" xlink:title="https://inbox.dpdk.org/dev/1565703468-55617-1-git-send-email-orika@mellanox.com/" xlink:type="simple"><text fill="#0000FF" font-family="sans-serif" font-size="14" lengthAdjust="spacing" textLength="99.6064" x="168.49" y="370.1851">hairpin_queue</text></a><!--class membuf--><g id="elem_membuf"><rect codeLine="40" fill="#F1F1F1" height="26.2969" id="membuf" rx="2.5" ry="2.5" style="stroke:#181818;stroke-width:0.5;" width="64.5771" x="7" y="179.59"/></g><a href="https://doc.dpdk.org/guides/prog_guide/mbuf_lib.html" target="_top" title="https://doc.dpdk.org/guides/prog_guide/mbuf_lib.html" xlink:actuate="onRequest" xlink:href="https://doc.dpdk.org/guides/prog_guide/mbuf_lib.html" xlink:show="new" xlink:title="https://doc.dpdk.org/guides/prog_guide/mbuf_lib.html" xlink:type="simple"><text fill="#0000FF" font-family="sans-serif" font-size="14" lengthAdjust="spacing" textLength="58.5771" x="10" y="197.5851">membuf</text></a><!--class mempool--><g id="elem_mempool"><rect codeLine="40" fill="#F1F1F1" height="26.2969" id="mempool" rx="2.5" ry="2.5" style="stroke:#181818;stroke-width:0.5;" width="71.7959" x="102.39" y="93.3"/></g><a href="https://doc.dpdk.org/guides/prog_guide/mempool_lib.html" target="_top" title="https://doc.dpdk.org/guides/prog_guide/mempool_lib.html" xlink:actuate="onRequest" xlink:href="https://doc.dpdk.org/guides/prog_guide/mempool_lib.html" xlink:show="new" xlink:title="https://doc.dpdk.org/guides/prog_guide/mempool_lib.html" xlink:type="simple"><text fill="#0000FF" font-family="sans-serif" font-size="14" lengthAdjust="spacing" textLength="65.7959" x="105.39" y="111.2951">mempool</text></a><!--class socket_id--><g id="elem_socket_id"><rect codeLine="40" fill="#F1F1F1" height="26.2969" id="socket_id" rx="2.5" ry="2.5" style="stroke:#181818;stroke-width:0.5;" width="71.543" x="153.52" y="7"/></g><a href="#define/socket_id" target="_top" title="#define/socket_id" xlink:actuate="onRequest" xlink:href="#define/socket_id" xlink:show="new" xlink:title="#define/socket_id" xlink:type="simple"><text fill="#0000FF" font-family="sans-serif" font-size="14" lengthAdjust="spacing" textLength="65.543" x="156.52" y="24.9951">socket_id</text></a><!--class eth_dev--><g id="elem_eth_dev"><rect codeLine="40" fill="#F1F1F1" height="26.2969" id="eth_dev" rx="2.5" ry="2.5" style="stroke:#181818;stroke-width:0.5;" width="61.7607" x="209.41" y="93.3"/></g><a href="https://doc.dpdk.org/guides/nics/index.html" target="_top" title="https://doc.dpdk.org/guides/nics/index.html" xlink:actuate="onRequest" xlink:href="https://doc.dpdk.org/guides/nics/index.html" xlink:show="new" xlink:title="https://doc.dpdk.org/guides/nics/index.html" xlink:type="simple"><text fill="#0000FF" font-family="sans-serif" font-size="14" lengthAdjust="spacing" textLength="55.7607" x="212.41" y="111.2951">eth_dev</text></a><!--class queue_rx--><g id="elem_queue_rx"><rect codeLine="40" fill="#F1F1F1" height="26.2969" id="queue_rx" rx="2.5" ry="2.5" style="stroke:#181818;stroke-width:0.5;" width="70.9004" x="106.84" y="179.59"/></g><a href="https://doc.dpdk.org/guides/prog_guide/ring_lib.html" target="_top" title="https://doc.dpdk.org/guides/prog_guide/ring_lib.html" xlink:actuate="onRequest" xlink:href="https://doc.dpdk.org/guides/prog_guide/ring_lib.html" xlink:show="new" xlink:title="https://doc.dpdk.org/guides/prog_guide/ring_lib.html" xlink:type="simple"><text fill="#0000FF" font-family="sans-serif" font-size="14" lengthAdjust="spacing" textLength="64.9004" x="109.84" y="197.5851">queue_rx</text></a><!--class queue_tx--><g id="elem_queue_tx"><rect codeLine="40" fill="#F1F1F1" height="26.2969" id="queue_tx" rx="2.5" ry="2.5" style="stroke:#181818;stroke-width:0.5;" width="70.6338" x="182.97" y="265.89"/></g><a href="https://doc.dpdk.org/guides/prog_guide/ring_lib.html" target="_top" title="https://doc.dpdk.org/guides/prog_guide/ring_lib.html" xlink:actuate="onRequest" xlink:href="https://doc.dpdk.org/guides/prog_guide/ring_lib.html" xlink:show="new" xlink:title="https://doc.dpdk.org/guides/prog_guide/ring_lib.html" xlink:type="simple"><text fill="#0000FF" font-family="sans-serif" font-size="14" lengthAdjust="spacing" textLength="64.6338" x="185.97" y="283.8851">queue_tx</text></a><!--class socket_index--><g id="elem_socket_index"><rect codeLine="40" fill="#F1F1F1" height="26.2969" id="socket_index" rx="2.5" ry="2.5" style="stroke:#181818;stroke-width:0.5;" width="97.3145" x="21.63" y="7"/></g><a href="#define/socket_index" target="_top" title="#define/socket_index" xlink:actuate="onRequest" xlink:href="#define/socket_index" xlink:show="new" xlink:title="#define/socket_index" xlink:type="simple"><text fill="#0000FF" font-family="sans-serif" font-size="14" lengthAdjust="spacing" textLength="91.3145" x="24.63" y="24.9951">socket_index</text></a><!--link eth_dev to switch_domain--><g id="link_eth_dev_switch_domain"><path codeLine="48" d="M257.98,127.94 C257.98,167.88 257.98,274.78 257.98,274.78 C257.98,274.78 256.52,274.78 272.81,274.78 " fill="transparent" id="eth_dev-switch_domain" style="stroke:#181818;stroke-width:1;"/><line style="stroke:#181818;stroke-width:1;" x1="257.98" x2="251.98" y1="127.94" y2="119.94"/><line style="stroke:#181818;stroke-width:1;" x1="257.98" x2="263.98" y1="127.94" y2="119.94"/><line style="stroke:#181818;stroke-width:1;" x1="257.98" x2="257.98" y1="127.94" y2="119.94"/><line style="stroke:#181818;stroke-width:1;" x1="253.98" x2="261.98" y1="129.94" y2="129.94"/><line style="stroke:#181818;stroke-width:1;" x1="276.81" x2="287.81" y1="274.78" y2="274.78"/><ellipse cx="276.81" cy="274.78" fill="transparent" rx="4" ry="4" style="stroke:#181818;stroke-width:1;"/><line style="stroke:#181818;stroke-width:1;" x1="283.81" x2="283.81" y1="270.78" y2="278.78"/></g><!--link eth_dev to queue_rx--><g id="link_eth_dev_queue_rx"><path codeLine="49" d="M224.14,127.77 C224.14,152.9 224.14,196.78 224.14,196.78 C224.14,196.78 218.01,196.78 195.95,196.78 " fill="transparent" id="eth_dev-queue_rx" style="stroke:#181818;stroke-width:1;"/><line style="stroke:#181818;stroke-width:1;" x1="220.14" x2="228.14" y1="123.77" y2="123.77"/><line style="stroke:#181818;stroke-width:1;" x1="220.14" x2="228.14" y1="126.77" y2="126.77"/><line style="stroke:#181818;stroke-width:1;" x1="224.14" x2="224.14" y1="127.77" y2="119.77"/><line style="stroke:#181818;stroke-width:1;" x1="185.95" x2="177.95" y1="196.78" y2="202.78"/><line style="stroke:#181818;stroke-width:1;" x1="185.95" x2="177.95" y1="196.78" y2="190.78"/><line style="stroke:#181818;stroke-width:1;" x1="185.95" x2="177.95" y1="196.78" y2="196.78"/><ellipse cx="191.95" cy="196.78" fill="transparent" rx="4" ry="4" style="stroke:#181818;stroke-width:1;"/></g><!--link eth_dev to queue_tx--><g id="link_eth_dev_queue_tx"><path codeLine="50" d="M238.87,127.99 C238.87,160.25 238.87,215.36 238.87,247.56 " fill="transparent" id="eth_dev-queue_tx" style="stroke:#181818;stroke-width:1;"/><line style="stroke:#181818;stroke-width:1;" x1="234.87" x2="242.87" y1="123.99" y2="123.99"/><line style="stroke:#181818;stroke-width:1;" x1="234.87" x2="242.87" y1="126.99" y2="126.99"/><line style="stroke:#181818;stroke-width:1;" x1="238.87" x2="238.87" y1="127.99" y2="119.99"/><line style="stroke:#181818;stroke-width:1;" x1="238.87" x2="244.87" y1="257.56" y2="265.56"/><line style="stroke:#181818;stroke-width:1;" x1="238.87" x2="232.87" y1="257.56" y2="265.56"/><line style="stroke:#181818;stroke-width:1;" x1="238.87" x2="238.87" y1="257.56" y2="265.56"/><ellipse cx="238.87" cy="251.56" fill="transparent" rx="4" ry="4" style="stroke:#181818;stroke-width:1;"/></g><!--link eth_dev to flow_table--><g id="link_eth_dev_flow_table"><path codeLine="51" d="M262.35,128.04 C262.35,151.43 262.35,188.78 262.35,188.78 C262.35,188.78 404.39,188.78 477.36,188.78 " fill="transparent" id="eth_dev-flow_table" style="stroke:#181818;stroke-width:1;"/><line style="stroke:#181818;stroke-width:1;" x1="258.35" x2="266.35" y1="124.04" y2="124.04"/><line style="stroke:#181818;stroke-width:1;" x1="258.35" x2="266.35" y1="127.04" y2="127.04"/><line style="stroke:#181818;stroke-width:1;" x1="262.35" x2="262.35" y1="128.04" y2="120.04"/><line style="stroke:#181818;stroke-width:1;" x1="477.36" x2="485.36" y1="188.78" y2="180.78"/><line style="stroke:#181818;stroke-width:1;" x1="477.36" x2="485.36" y1="188.78" y2="196.78"/><line style="stroke:#181818;stroke-width:1;" x1="477.36" x2="485.36" y1="188.78" y2="188.78"/></g><!--link flow to flow_action--><g id="link_flow_flow_action"><path codeLine="52" d="M753.29,300.52 C753.29,316.73 753.29,327.78 753.29,343.95 " fill="transparent" id="flow-flow_action" style="stroke:#181818;stroke-width:1;"/><line style="stroke:#181818;stroke-width:1;" x1="749.29" x2="757.29" y1="296.52" y2="296.52"/><line style="stroke:#181818;stroke-width:1;" x1="749.29" x2="757.29" y1="299.52" y2="299.52"/><line style="stroke:#181818;stroke-width:1;" x1="753.29" x2="753.29" y1="300.52" y2="292.52"/><line style="stroke:#181818;stroke-width:1;" x1="753.29" x2="761.29" y1="343.95" y2="351.95"/><line style="stroke:#181818;stroke-width:1;" x1="753.29" x2="745.29" y1="343.95" y2="351.95"/><line style="stroke:#181818;stroke-width:1;" x1="753.29" x2="753.29" y1="343.95" y2="351.95"/></g><!--link flow to flow_item--><g id="link_flow_flow_item"><path codeLine="53" d="M779.1,278.78 C811.16,278.78 867.29,278.78 867.29,278.78 C867.29,278.78 867.29,319.47 867.29,343.81 " fill="transparent" id="flow-flow_item" style="stroke:#181818;stroke-width:1;"/><line style="stroke:#181818;stroke-width:1;" x1="775.1" x2="775.1" y1="282.78" y2="274.78"/><line style="stroke:#181818;stroke-width:1;" x1="778.1" x2="778.1" y1="282.78" y2="274.78"/><line style="stroke:#181818;stroke-width:1;" x1="779.1" x2="771.1" y1="278.78" y2="278.78"/><line style="stroke:#181818;stroke-width:1;" x1="867.29" x2="875.29" y1="343.81" y2="351.81"/><line style="stroke:#181818;stroke-width:1;" x1="867.29" x2="859.29" y1="343.81" y2="351.81"/><line style="stroke:#181818;stroke-width:1;" x1="867.29" x2="867.29" y1="343.81" y2="351.81"/></g><!--link flow_action to flow_action_indirect--><g id="link_flow_action_flow_action_indirect"><path codeLine="54" d="M786.76,386.82 C786.76,403.03 786.76,407.07 786.76,423.24 " fill="transparent" id="flow_action-flow_action_indirect" style="stroke:#181818;stroke-width:1;"/><line style="stroke:#181818;stroke-width:1;" x1="782.76" x2="790.76" y1="382.82" y2="382.82"/><line style="stroke:#181818;stroke-width:1;" x1="782.76" x2="790.76" y1="385.82" y2="385.82"/><line style="stroke:#181818;stroke-width:1;" x1="786.76" x2="786.76" y1="386.82" y2="378.82"/><line style="stroke:#181818;stroke-width:1;" x1="786.76" x2="786.76" y1="427.24" y2="438.24"/><ellipse cx="786.76" cy="427.24" fill="transparent" rx="4" ry="4" style="stroke:#181818;stroke-width:1;"/><line style="stroke:#181818;stroke-width:1;" x1="790.76" x2="782.76" y1="434.24" y2="434.24"/></g><!--link flow_action to flow_action_indirect_list--><g id="link_flow_action_flow_action_indirect_list"><path codeLine="55" d="M726.7,396.82 C726.7,413.03 726.7,407.07 726.7,423.24 " fill="transparent" id="flow_action-flow_action_indirect_list" style="stroke:#181818;stroke-width:1;"/><line style="stroke:#181818;stroke-width:1;" x1="726.7" x2="720.7" y1="386.82" y2="378.82"/><line style="stroke:#181818;stroke-width:1;" x1="726.7" x2="732.7" y1="386.82" y2="378.82"/><line style="stroke:#181818;stroke-width:1;" x1="726.7" x2="726.7" y1="386.82" y2="378.82"/><ellipse cx="726.7" cy="392.82" fill="transparent" rx="4" ry="4" style="stroke:#181818;stroke-width:1;"/><line style="stroke:#181818;stroke-width:1;" x1="726.7" x2="726.7" y1="427.24" y2="438.24"/><ellipse cx="726.7" cy="427.24" fill="transparent" rx="4" ry="4" style="stroke:#181818;stroke-width:1;"/><line style="stroke:#181818;stroke-width:1;" x1="730.7" x2="722.7" y1="434.24" y2="434.24"/></g><!--link flow_action_indirect_list to flow_action_indirect--><g id="link_flow_action_indirect_list_flow_action_indirect"><path codeLine="56" d="M758.07,451.78 C769.58,451.78 748.27,451.78 759.5,451.78 " fill="transparent" id="flow_action_indirect_list-flow_action_indirect" style="stroke:#181818;stroke-width:1;"/><line style="stroke:#181818;stroke-width:1;" x1="754.07" x2="743.07" y1="451.78" y2="451.78"/><ellipse cx="754.07" cy="451.78" fill="transparent" rx="4" ry="4" style="stroke:#181818;stroke-width:1;"/><line style="stroke:#181818;stroke-width:1;" x1="747.07" x2="747.07" y1="455.78" y2="447.78"/><line style="stroke:#181818;stroke-width:1;" x1="769.5" x2="777.5" y1="451.78" y2="445.78"/><line style="stroke:#181818;stroke-width:1;" x1="769.5" x2="777.5" y1="451.78" y2="457.78"/><line style="stroke:#181818;stroke-width:1;" x1="769.5" x2="777.5" y1="451.78" y2="451.78"/><ellipse cx="763.5" cy="451.78" fill="transparent" rx="4" ry="4" style="stroke:#181818;stroke-width:1;"/></g><!--link flow_table to flow_action_template--><g id="link_flow_table_flow_action_template"><path codeLine="57" d="M541.83,214.28 C541.83,246.55 541.83,304.65 541.83,336.85 " fill="transparent" id="flow_table-flow_action_template" style="stroke:#181818;stroke-width:1;"/><line style="stroke:#181818;stroke-width:1;" x1="537.83" x2="545.83" y1="210.28" y2="210.28"/><line style="stroke:#181818;stroke-width:1;" x1="537.83" x2="545.83" y1="213.28" y2="213.28"/><line style="stroke:#181818;stroke-width:1;" x1="541.83" x2="541.83" y1="214.28" y2="206.28"/><line style="stroke:#181818;stroke-width:1;" x1="541.83" x2="541.83" y1="340.85" y2="351.85"/><ellipse cx="541.83" cy="340.85" fill="transparent" rx="4" ry="4" style="stroke:#181818;stroke-width:1;"/><line style="stroke:#181818;stroke-width:1;" x1="545.83" x2="537.83" y1="347.85" y2="347.85"/></g><!--link flow_table to flow_item_template--><g id="link_flow_table_flow_item_template"><path codeLine="58" d="M503.42,214.32 C503.42,255.11 503.42,365.78 503.42,365.78 C503.42,365.78 511.37,365.78 501.24,365.78 " fill="transparent" id="flow_table-flow_item_template" style="stroke:#181818;stroke-width:1;"/><line style="stroke:#181818;stroke-width:1;" x1="499.42" x2="507.42" y1="210.32" y2="210.32"/><line style="stroke:#181818;stroke-width:1;" x1="499.42" x2="507.42" y1="213.32" y2="213.32"/><line style="stroke:#181818;stroke-width:1;" x1="503.42" x2="503.42" y1="214.32" y2="206.32"/><line style="stroke:#181818;stroke-width:1;" x1="497.24" x2="486.24" y1="365.78" y2="365.78"/><ellipse cx="497.24" cy="365.78" fill="transparent" rx="4" ry="4" style="stroke:#181818;stroke-width:1;"/><line style="stroke:#181818;stroke-width:1;" x1="490.24" x2="490.24" y1="369.78" y2="361.78"/></g><!--link flow_table to flow--><g id="link_flow_table_flow"><path codeLine="59" d="M571.39,192.78 C636.8,192.78 753.29,192.78 753.29,192.78 C753.29,192.78 753.29,223.3 753.29,247.56 " fill="transparent" id="flow_table-flow" style="stroke:#181818;stroke-width:1;"/><line style="stroke:#181818;stroke-width:1;" x1="567.39" x2="567.39" y1="196.78" y2="188.78"/><line style="stroke:#181818;stroke-width:1;" x1="570.39" x2="570.39" y1="196.78" y2="188.78"/><line style="stroke:#181818;stroke-width:1;" x1="571.39" x2="563.39" y1="192.78" y2="192.78"/><line style="stroke:#181818;stroke-width:1;" x1="753.29" x2="759.29" y1="257.56" y2="265.56"/><line style="stroke:#181818;stroke-width:1;" x1="753.29" x2="747.29" y1="257.56" y2="265.56"/><line style="stroke:#181818;stroke-width:1;" x1="753.29" x2="753.29" y1="257.56" y2="265.56"/><ellipse cx="753.29" cy="251.56" fill="transparent" rx="4" ry="4" style="stroke:#181818;stroke-width:1;"/></g><!--link mempool to membuf--><g id="link_mempool_membuf"><path codeLine="60" d="M94.05,106.78 C68.43,106.78 46.6,106.78 46.6,106.78 C46.6,106.78 46.6,137.13 46.6,161.31 " fill="transparent" id="mempool-membuf" style="stroke:#181818;stroke-width:1;"/><line style="stroke:#181818;stroke-width:1;" x1="98.05" x2="98.05" y1="102.78" y2="110.78"/><line style="stroke:#181818;stroke-width:1;" x1="95.05" x2="95.05" y1="102.78" y2="110.78"/><line style="stroke:#181818;stroke-width:1;" x1="94.05" x2="102.05" y1="106.78" y2="106.78"/><line style="stroke:#181818;stroke-width:1;" x1="46.6" x2="52.6" y1="171.31" y2="179.31"/><line style="stroke:#181818;stroke-width:1;" x1="46.6" x2="40.6" y1="171.31" y2="179.31"/><line style="stroke:#181818;stroke-width:1;" x1="46.6" x2="46.6" y1="171.31" y2="179.31"/><ellipse cx="46.6" cy="165.31" fill="transparent" rx="4" ry="4" style="stroke:#181818;stroke-width:1;"/></g><!--link mempool to queue_rx--><g id="link_mempool_queue_rx"><path codeLine="61" d="M140.51,127.93 C140.51,144.14 140.51,145.18 140.51,161.35 " fill="transparent" id="mempool-queue_rx" style="stroke:#181818;stroke-width:1;"/><line style="stroke:#181818;stroke-width:1;" x1="140.51" x2="132.51" y1="127.93" y2="119.93"/><line style="stroke:#181818;stroke-width:1;" x1="140.51" x2="148.51" y1="127.93" y2="119.93"/><line style="stroke:#181818;stroke-width:1;" x1="140.51" x2="140.51" y1="127.93" y2="119.93"/><line style="stroke:#181818;stroke-width:1;" x1="140.51" x2="146.51" y1="171.35" y2="179.35"/><line style="stroke:#181818;stroke-width:1;" x1="140.51" x2="134.51" y1="171.35" y2="179.35"/><line style="stroke:#181818;stroke-width:1;" x1="140.51" x2="140.51" y1="171.35" y2="179.35"/><ellipse cx="140.51" cy="165.35" fill="transparent" rx="4" ry="4" style="stroke:#181818;stroke-width:1;"/></g><!--link queue_rx to hairpin_queue--><g id="link_queue_rx_hairpin_queue"><path codeLine="62" d="M171.61,214.28 C171.61,246.55 171.61,304.65 171.61,336.85 " fill="transparent" id="queue_rx-hairpin_queue" style="stroke:#181818;stroke-width:1;"/><line style="stroke:#181818;stroke-width:1;" x1="167.61" x2="175.61" y1="210.28" y2="210.28"/><line style="stroke:#181818;stroke-width:1;" x1="167.61" x2="175.61" y1="213.28" y2="213.28"/><line style="stroke:#181818;stroke-width:1;" x1="171.61" x2="171.61" y1="214.28" y2="206.28"/><line style="stroke:#181818;stroke-width:1;" x1="171.61" x2="171.61" y1="340.85" y2="351.85"/><ellipse cx="171.61" cy="340.85" fill="transparent" rx="4" ry="4" style="stroke:#181818;stroke-width:1;"/><line style="stroke:#181818;stroke-width:1;" x1="175.61" x2="167.61" y1="347.85" y2="347.85"/></g><!--link queue_tx to hairpin_queue--><g id="link_queue_tx_hairpin_queue"><path codeLine="63" d="M218.29,300.52 C218.29,316.73 218.29,320.78 218.29,336.95 " fill="transparent" id="queue_tx-hairpin_queue" style="stroke:#181818;stroke-width:1;"/><line style="stroke:#181818;stroke-width:1;" x1="214.29" x2="222.29" y1="296.52" y2="296.52"/><line style="stroke:#181818;stroke-width:1;" x1="214.29" x2="222.29" y1="299.52" y2="299.52"/><line style="stroke:#181818;stroke-width:1;" x1="218.29" x2="218.29" y1="300.52" y2="292.52"/><line style="stroke:#181818;stroke-width:1;" x1="218.29" x2="218.29" y1="340.95" y2="351.95"/><ellipse cx="218.29" cy="340.95" fill="transparent" rx="4" ry="4" style="stroke:#181818;stroke-width:1;"/><line style="stroke:#181818;stroke-width:1;" x1="222.29" x2="214.29" y1="347.95" y2="347.95"/></g><!--link socket_id to eth_dev--><g id="link_socket_id_eth_dev"><path codeLine="64" d="M217.23,48.63 C217.23,64.84 217.23,58.89 217.23,75.05 " fill="transparent" id="socket_id-eth_dev" style="stroke:#181818;stroke-width:1;"/><line style="stroke:#181818;stroke-width:1;" x1="217.23" x2="217.23" y1="44.63" y2="33.63"/><ellipse cx="217.23" cy="44.63" fill="transparent" rx="4" ry="4" style="stroke:#181818;stroke-width:1;"/><line style="stroke:#181818;stroke-width:1;" x1="213.23" x2="221.23" y1="37.63" y2="37.63"/><line style="stroke:#181818;stroke-width:1;" x1="217.23" x2="223.23" y1="85.05" y2="93.05"/><line style="stroke:#181818;stroke-width:1;" x1="217.23" x2="211.23" y1="85.05" y2="93.05"/><line style="stroke:#181818;stroke-width:1;" x1="217.23" x2="217.23" y1="85.05" y2="93.05"/><ellipse cx="217.23" cy="79.05" fill="transparent" rx="4" ry="4" style="stroke:#181818;stroke-width:1;"/></g><!--link socket_id to mempool--><g id="link_socket_id_mempool"><path codeLine="65" d="M163.85,41.63 C163.85,57.84 163.85,58.89 163.85,75.05 " fill="transparent" id="socket_id-mempool" style="stroke:#181818;stroke-width:1;"/><line style="stroke:#181818;stroke-width:1;" x1="159.85" x2="167.85" y1="37.63" y2="37.63"/><line style="stroke:#181818;stroke-width:1;" x1="159.85" x2="167.85" y1="40.63" y2="40.63"/><line style="stroke:#181818;stroke-width:1;" x1="163.85" x2="163.85" y1="41.63" y2="33.63"/><line style="stroke:#181818;stroke-width:1;" x1="163.85" x2="169.85" y1="85.05" y2="93.05"/><line style="stroke:#181818;stroke-width:1;" x1="163.85" x2="157.85" y1="85.05" y2="93.05"/><line style="stroke:#181818;stroke-width:1;" x1="163.85" x2="163.85" y1="85.05" y2="93.05"/><ellipse cx="163.85" cy="79.05" fill="transparent" rx="4" ry="4" style="stroke:#181818;stroke-width:1;"/></g><!--link socket_index to socket_id--><g id="link_socket_index_socket_id"><path codeLine="66" d="M127.38,19.78 C138.65,19.78 134.43,19.78 145.04,19.78 " fill="transparent" id="socket_index-socket_id" style="stroke:#181818;stroke-width:1;"/><line style="stroke:#181818;stroke-width:1;" x1="123.38" x2="123.38" y1="23.78" y2="15.78"/><line style="stroke:#181818;stroke-width:1;" x1="126.38" x2="126.38" y1="23.78" y2="15.78"/><line style="stroke:#181818;stroke-width:1;" x1="127.38" x2="119.38" y1="19.78" y2="19.78"/><line style="stroke:#181818;stroke-width:1;" x1="149.04" x2="149.04" y1="15.78" y2="23.78"/><line style="stroke:#181818;stroke-width:1;" x1="146.04" x2="146.04" y1="15.78" y2="23.78"/><line style="stroke:#181818;stroke-width:1;" x1="145.04" x2="153.04" y1="19.78" y2="19.78"/></g><!--link switch_domain to hairpin_queue--><g id="link_switch_domain_hairpin_queue"><path codeLine="67" d="M280.05,283.78 C267.97,283.78 266.72,283.78 266.72,283.78 C266.72,283.78 266.72,313.7 266.72,336.87 " fill="transparent" id="switch_domain-hairpin_queue" style="stroke:#181818;stroke-width:1;"/><line style="stroke:#181818;stroke-width:1;" x1="284.05" x2="284.05" y1="279.78" y2="287.78"/><line style="stroke:#181818;stroke-width:1;" x1="281.05" x2="281.05" y1="279.78" y2="287.78"/><line style="stroke:#181818;stroke-width:1;" x1="280.05" x2="288.05" y1="283.78" y2="283.78"/><line style="stroke:#181818;stroke-width:1;" x1="266.72" x2="266.72" y1="340.87" y2="351.87"/><ellipse cx="266.72" cy="340.87" fill="transparent" rx="4" ry="4" style="stroke:#181818;stroke-width:1;"/><line style="stroke:#181818;stroke-width:1;" x1="270.72" x2="262.72" y1="347.87" y2="347.87"/></g></g></svg>