<svg xmlns="http://www.w3.org/2000/svg" xmlns:xlink="http://www.w3.org/1999/xlink" contentStyleType="text/css" data-diagram-type="CLASS" height="487px" preserveAspectRatio="none" style="width:892px;height:487px;background:#FFFFFF;" version="1.1" viewBox="0 0 892 487" width="892px" zoomAndPan="magnify"><defs/><g><!--class flow_item--><g id="elem_flow_item"><rect codeLine="8" fill="#F1F1F1" height="29.0679" id="flow_item" rx="2.5" ry="2.5" style="stroke:#181818;stroke-width:0.5;" width="69.7697" x="800.19" y="363.27"/><text fill="#000000" font-family="sans-serif" font-size="14" lengthAdjust="spacing" textLength="63.7697" x="803.19" y="383.2359">flow_item</text></g><!--class flow_item_template--><g id="elem_flow_item_template"><rect codeLine="9" fill="#F1F1F1" height="29.0679" id="flow_item_template" rx="2.5" ry="2.5" style="stroke:#181818;stroke-width:0.5;" width="135.0515" x="334.55" y="363.27"/><text fill="#000000" font-family="sans-serif" font-size="14" lengthAdjust="spacing" textLength="129.0515" x="337.55" y="383.2359">flow_item_template</text></g><!--class flow_action--><g id="elem_flow_action"><rect codeLine="10" fill="#F1F1F1" height="29.0679" id="flow_action" rx="2.5" ry="2.5" style="stroke:#181818;stroke-width:0.5;" width="80.4797" x="684.84" y="363.27"/><text fill="#000000" font-family="sans-serif" font-size="14" lengthAdjust="spacing" textLength="74.4797" x="687.84" y="383.2359">flow_action</text></g><!--class flow_action_template--><g id="elem_flow_action_template"><rect codeLine="11" fill="#F1F1F1" height="29.0679" id="flow_action_template" rx="2.5" ry="2.5" style="stroke:#181818;stroke-width:0.5;" width="145.7615" x="504.2" y="363.27"/><text fill="#000000" font-family="sans-serif" font-size="14" lengthAdjust="spacing" textLength="139.7615" x="507.2" y="383.2359">flow_action_template</text></g><!--class flow_action_indirect--><g id="elem_flow_action_indirect"><rect codeLine="12" fill="#F1F1F1" height="29.0679" id="flow_action_indirect" rx="2.5" ry="2.5" style="stroke:#181818;stroke-width:0.5;" width="136.6335" x="748.76" y="452.34"/><text fill="#000000" font-family="sans-serif" font-size="14" lengthAdjust="spacing" textLength="130.6335" x="751.76" y="472.3059">flow_action_indirect</text></g><!--class flow_action_indirect_list--><g id="elem_flow_action_indirect_list"><rect codeLine="13" fill="#F1F1F1" height="29.0679" id="flow_action_indirect_list" rx="2.5" ry="2.5" style="stroke:#181818;stroke-width:0.5;" width="161.8334" x="552.16" y="452.34"/><text fill="#000000" font-family="sans-serif" font-size="14" lengthAdjust="spacing" textLength="155.8334" x="555.16" y="472.3059">flow_action_indirect_list</text></g><!--class switch_domain--><g id="elem_switch_domain"><rect codeLine="14" fill="#F1F1F1" height="29.0679" id="switch_domain" rx="2.5" ry="2.5" style="stroke:#181818;stroke-width:0.5;" width="104.2516" x="280.95" y="274.21"/><text fill="#000000" font-family="sans-serif" font-size="14" lengthAdjust="spacing" textLength="98.2516" x="283.95" y="294.1759">switch_domain</text></g><!--class flow_table--><g id="elem_flow_table"><rect codeLine="15" fill="#F1F1F1" height="29.0679" id="flow_table" rx="2.5" ry="2.5" style="stroke:#181818;stroke-width:0.5;" width="73.1437" x="471.51" y="185.14"/><text fill="#000000" font-family="sans-serif" font-size="14" lengthAdjust="spacing" textLength="67.1437" x="474.51" y="205.1059">flow_table</text></g><!--class flow--><g id="elem_flow"><rect codeLine="16" fill="#F1F1F1" height="29.0679" id="flow" rx="2.5" ry="2.5" style="stroke:#181818;stroke-width:0.5;" width="33.9019" x="708.13" y="274.21"/><text fill="#000000" font-family="sans-serif" font-size="14" lengthAdjust="spacing" textLength="27.9019" x="711.13" y="294.1759">flow</text></g><!--class hairpin_queue--><g id="elem_hairpin_queue"><rect codeLine="17" fill="#F1F1F1" height="29.0679" id="hairpin_queue" rx="2.5" ry="2.5" style="stroke:#181818;stroke-width:0.5;" width="100.6956" x="162.73" y="363.27"/><text fill="#000000" font-family="sans-serif" font-size="14" lengthAdjust="spacing" textLength="94.6956" x="165.73" y="383.2359">hairpin_queue</text></g><!--class membuf--><g id="elem_membuf"><rect codeLine="18" fill="#F1F1F1" height="29.0679" id="membuf" rx="2.5" ry="2.5" style="stroke:#181818;stroke-width:0.5;" width="62.1538" x="7" y="185.14"/><text fill="#000000" font-family="sans-serif" font-size="14" lengthAdjust="spacing" textLength="56.1538" x="10" y="205.1059">membuf</text></g><!--class mempool--><g id="elem_mempool"><rect codeLine="19" fill="#F1F1F1" height="29.0679" id="mempool" rx="2.5" ry="2.5" style="stroke:#181818;stroke-width:0.5;" width="69.2378" x="100.46" y="96.07"/><text fill="#000000" font-family="sans-serif" font-size="14" lengthAdjust="spacing" textLength="63.2378" x="103.46" y="116.0359">mempool</text></g><!--class socket_id--><g id="elem_socket_id"><rect codeLine="20" fill="#F1F1F1" height="29.0679" id="socket_id" rx="2.5" ry="2.5" style="stroke:#181818;stroke-width:0.5;" width="66.7598" x="150.7" y="7"/><text fill="#000000" font-family="sans-serif" font-size="14" lengthAdjust="spacing" textLength="60.7598" x="153.7" y="26.9659">socket_id</text></g><!--class eth_dev--><g id="elem_eth_dev"><rect codeLine="21" fill="#F1F1F1" height="29.0679" id="eth_dev" rx="2.5" ry="2.5" style="stroke:#181818;stroke-width:0.5;" width="57.4358" x="204.36" y="96.07"/><text fill="#000000" font-family="sans-serif" font-size="14" lengthAdjust="spacing" textLength="51.4358" x="207.36" y="116.0359">eth_dev</text></g><!--class queue_rx--><g id="elem_queue_rx"><rect codeLine="22" fill="#F1F1F1" height="29.0679" id="queue_rx" rx="2.5" ry="2.5" style="stroke:#181818;stroke-width:0.5;" width="67.1098" x="104.52" y="185.14"/><text fill="#000000" font-family="sans-serif" font-size="14" lengthAdjust="spacing" textLength="61.1098" x="107.52" y="205.1059">queue_rx</text></g><!--class queue_tx--><g id="elem_queue_tx"><rect codeLine="23" fill="#F1F1F1" height="29.0679" id="queue_tx" rx="2.5" ry="2.5" style="stroke:#181818;stroke-width:0.5;" width="66.3818" x="179.89" y="274.21"/><text fill="#000000" font-family="sans-serif" font-size="14" lengthAdjust="spacing" textLength="60.3818" x="182.89" y="294.1759">queue_tx</text></g><!--class socket_index--><g id="elem_socket_index"><rect codeLine="24" fill="#F1F1F1" height="29.0679" id="socket_index" rx="2.5" ry="2.5" style="stroke:#181818;stroke-width:0.5;" width="90.7137" x="24.72" y="7"/><text fill="#000000" font-family="sans-serif" font-size="14" lengthAdjust="spacing" textLength="84.7137" x="27.72" y="26.9659">socket_index</text></g><!--link eth_dev to switch_domain--><g id="link_eth_dev_switch_domain"><path codeLine="26" d="M250.15,133.64 C250.15,175.68 250.15,283.41 250.15,283.41 C250.15,283.41 249.1,283.41 265.56,283.41 " fill="transparent" id="eth_dev-switch_domain" style="stroke:#181818;stroke-width:1;"/><line style="stroke:#181818;stroke-width:1;" x1="250.15" x2="244.15" y1="133.64" y2="125.64"/><line style="stroke:#181818;stroke-width:1;" x1="250.15" x2="256.15" y1="133.64" y2="125.64"/><line style="stroke:#181818;stroke-width:1;" x1="250.15" x2="250.15" y1="133.64" y2="125.64"/><line style="stroke:#181818;stroke-width:1;" x1="246.15" x2="254.15" y1="135.64" y2="135.64"/><line style="stroke:#181818;stroke-width:1;" x1="269.56" x2="280.56" y1="283.41" y2="283.41"/><ellipse cx="269.56" cy="283.41" fill="transparent" rx="4" ry="4" style="stroke:#181818;stroke-width:1;"/><line style="stroke:#181818;stroke-width:1;" x1="276.56" x2="276.56" y1="279.41" y2="287.41"/></g><!--link eth_dev to queue_rx--><g id="link_eth_dev_queue_rx"><path codeLine="27" d="M218.33,133.26 C218.33,159.64 218.33,204.41 218.33,204.41 C218.33,204.41 211.98,204.41 190.11,204.41 " fill="transparent" id="eth_dev-queue_rx" style="stroke:#181818;stroke-width:1;"/><line style="stroke:#181818;stroke-width:1;" x1="214.33" x2="222.33" y1="129.26" y2="129.26"/><line style="stroke:#181818;stroke-width:1;" x1="214.33" x2="222.33" y1="132.26" y2="132.26"/><line style="stroke:#181818;stroke-width:1;" x1="218.33" x2="218.33" y1="133.26" y2="125.26"/><line style="stroke:#181818;stroke-width:1;" x1="180.11" x2="172.11" y1="204.41" y2="210.41"/><line style="stroke:#181818;stroke-width:1;" x1="180.11" x2="172.11" y1="204.41" y2="198.41"/><line style="stroke:#181818;stroke-width:1;" x1="180.11" x2="172.11" y1="204.41" y2="204.41"/><ellipse cx="186.11" cy="204.41" fill="transparent" rx="4" ry="4" style="stroke:#181818;stroke-width:1;"/></g><!--link eth_dev to queue_tx--><g id="link_eth_dev_queue_tx"><path codeLine="28" d="M232.3,133.49 C232.3,167.1 232.3,222.57 232.3,256.03 " fill="transparent" id="eth_dev-queue_tx" style="stroke:#181818;stroke-width:1;"/><line style="stroke:#181818;stroke-width:1;" x1="228.3" x2="236.3" y1="129.49" y2="129.49"/><line style="stroke:#181818;stroke-width:1;" x1="228.3" x2="236.3" y1="132.49" y2="132.49"/><line style="stroke:#181818;stroke-width:1;" x1="232.3" x2="232.3" y1="133.49" y2="125.49"/><line style="stroke:#181818;stroke-width:1;" x1="232.3" x2="238.3" y1="266.03" y2="274.03"/><line style="stroke:#181818;stroke-width:1;" x1="232.3" x2="226.3" y1="266.03" y2="274.03"/><line style="stroke:#181818;stroke-width:1;" x1="232.3" x2="232.3" y1="266.03" y2="274.03"/><ellipse cx="232.3" cy="260.03" fill="transparent" rx="4" ry="4" style="stroke:#181818;stroke-width:1;"/></g><!--link eth_dev to flow_table--><g id="link_eth_dev_flow_table"><path codeLine="29" d="M254.03,133.59 C254.03,157.69 254.03,194.41 254.03,194.41 C254.03,194.41 392.68,194.41 463.14,194.41 " fill="transparent" id="eth_dev-flow_table" style="stroke:#181818;stroke-width:1;"/><line style="stroke:#181818;stroke-width:1;" x1="250.03" x2="258.03" y1="129.59" y2="129.59"/><line style="stroke:#181818;stroke-width:1;" x1="250.03" x2="258.03" y1="132.59" y2="132.59"/><line style="stroke:#181818;stroke-width:1;" x1="254.03" x2="254.03" y1="133.59" y2="125.59"/><line style="stroke:#181818;stroke-width:1;" x1="463.14" x2="471.14" y1="194.41" y2="186.41"/><line style="stroke:#181818;stroke-width:1;" x1="463.14" x2="471.14" y1="194.41" y2="202.41"/><line style="stroke:#181818;stroke-width:1;" x1="463.14" x2="471.14" y1="194.41" y2="194.41"/></g><!--link flow to flow_action--><g id="link_flow_flow_action"><path codeLine="30" d="M725.08,311.45 C725.08,327.85 725.08,338.25 725.08,354.78 " fill="transparent" id="flow-flow_action" style="stroke:#181818;stroke-width:1;"/><line style="stroke:#181818;stroke-width:1;" x1="721.08" x2="729.08" y1="307.45" y2="307.45"/><line style="stroke:#181818;stroke-width:1;" x1="721.08" x2="729.08" y1="310.45" y2="310.45"/><line style="stroke:#181818;stroke-width:1;" x1="725.08" x2="725.08" y1="311.45" y2="303.45"/><line style="stroke:#181818;stroke-width:1;" x1="725.08" x2="733.08" y1="354.78" y2="362.78"/><line style="stroke:#181818;stroke-width:1;" x1="725.08" x2="717.08" y1="354.78" y2="362.78"/><line style="stroke:#181818;stroke-width:1;" x1="725.08" x2="725.08" y1="354.78" y2="362.78"/></g><!--link flow to flow_item--><g id="link_flow_flow_item"><path codeLine="31" d="M750.26,288.41 C781.2,288.41 835.08,288.41 835.08,288.41 C835.08,288.41 835.08,329.65 835.08,355.05 " fill="transparent" id="flow-flow_item" style="stroke:#181818;stroke-width:1;"/><line style="stroke:#181818;stroke-width:1;" x1="746.26" x2="746.26" y1="292.41" y2="284.41"/><line style="stroke:#181818;stroke-width:1;" x1="749.26" x2="749.26" y1="292.41" y2="284.41"/><line style="stroke:#181818;stroke-width:1;" x1="750.26" x2="742.26" y1="288.41" y2="288.41"/><line style="stroke:#181818;stroke-width:1;" x1="835.08" x2="843.08" y1="355.05" y2="363.05"/><line style="stroke:#181818;stroke-width:1;" x1="835.08" x2="827.08" y1="355.05" y2="363.05"/><line style="stroke:#181818;stroke-width:1;" x1="835.08" x2="835.08" y1="355.05" y2="363.05"/></g><!--link flow_action to flow_action_indirect--><g id="link_flow_action_flow_action_indirect"><path codeLine="32" d="M757.04,400.52 C757.04,416.92 757.04,420.32 757.04,436.85 " fill="transparent" id="flow_action-flow_action_indirect" style="stroke:#181818;stroke-width:1;"/><line style="stroke:#181818;stroke-width:1;" x1="753.04" x2="761.04" y1="396.52" y2="396.52"/><line style="stroke:#181818;stroke-width:1;" x1="753.04" x2="761.04" y1="399.52" y2="399.52"/><line style="stroke:#181818;stroke-width:1;" x1="757.04" x2="757.04" y1="400.52" y2="392.52"/><line style="stroke:#181818;stroke-width:1;" x1="757.04" x2="757.04" y1="440.85" y2="451.85"/><ellipse cx="757.04" cy="440.85" fill="transparent" rx="4" ry="4" style="stroke:#181818;stroke-width:1;"/><line style="stroke:#181818;stroke-width:1;" x1="761.04" x2="753.04" y1="447.85" y2="447.85"/></g><!--link flow_action to flow_action_indirect_list--><g id="link_flow_action_flow_action_indirect_list"><path codeLine="33" d="M699.42,410.52 C699.42,426.92 699.42,420.32 699.42,436.85 " fill="transparent" id="flow_action-flow_action_indirect_list" style="stroke:#181818;stroke-width:1;"/><line style="stroke:#181818;stroke-width:1;" x1="699.42" x2="693.42" y1="400.52" y2="392.52"/><line style="stroke:#181818;stroke-width:1;" x1="699.42" x2="705.42" y1="400.52" y2="392.52"/><line style="stroke:#181818;stroke-width:1;" x1="699.42" x2="699.42" y1="400.52" y2="392.52"/><ellipse cx="699.42" cy="406.52" fill="transparent" rx="4" ry="4" style="stroke:#181818;stroke-width:1;"/><line style="stroke:#181818;stroke-width:1;" x1="699.42" x2="699.42" y1="440.85" y2="451.85"/><ellipse cx="699.42" cy="440.85" fill="transparent" rx="4" ry="4" style="stroke:#181818;stroke-width:1;"/><line style="stroke:#181818;stroke-width:1;" x1="703.42" x2="695.42" y1="447.85" y2="447.85"/></g><!--link flow_action_indirect_list to flow_action_indirect--><g id="link_flow_action_indirect_list_flow_action_indirect"><path codeLine="34" d="M729.32,466.41 C740.68,466.41 719.26,466.41 730.36,466.41 " fill="transparent" id="flow_action_indirect_list-flow_action_indirect" style="stroke:#181818;stroke-width:1;"/><line style="stroke:#181818;stroke-width:1;" x1="725.32" x2="714.32" y1="466.41" y2="466.41"/><ellipse cx="725.32" cy="466.41" fill="transparent" rx="4" ry="4" style="stroke:#181818;stroke-width:1;"/><line style="stroke:#181818;stroke-width:1;" x1="718.32" x2="718.32" y1="470.41" y2="462.41"/><line style="stroke:#181818;stroke-width:1;" x1="740.36" x2="748.36" y1="466.41" y2="460.41"/><line style="stroke:#181818;stroke-width:1;" x1="740.36" x2="748.36" y1="466.41" y2="472.41"/><line style="stroke:#181818;stroke-width:1;" x1="740.36" x2="748.36" y1="466.41" y2="466.41"/><ellipse cx="734.36" cy="466.41" fill="transparent" rx="4" ry="4" style="stroke:#181818;stroke-width:1;"/></g><!--link flow_table to flow_action_template--><g id="link_flow_table_flow_action_template"><path codeLine="35" d="M524.42,222.55 C524.42,256.17 524.42,314.64 524.42,348.09 " fill="transparent" id="flow_table-flow_action_template" style="stroke:#181818;stroke-width:1;"/><line style="stroke:#181818;stroke-width:1;" x1="520.42" x2="528.42" y1="218.55" y2="218.55"/><line style="stroke:#181818;stroke-width:1;" x1="520.42" x2="528.42" y1="221.55" y2="221.55"/><line style="stroke:#181818;stroke-width:1;" x1="524.42" x2="524.42" y1="222.55" y2="214.55"/><line style="stroke:#181818;stroke-width:1;" x1="524.42" x2="524.42" y1="352.09" y2="363.09"/><ellipse cx="524.42" cy="352.09" fill="transparent" rx="4" ry="4" style="stroke:#181818;stroke-width:1;"/><line style="stroke:#181818;stroke-width:1;" x1="528.42" x2="520.42" y1="359.09" y2="359.09"/></g><!--link flow_table to flow_item_template--><g id="link_flow_table_flow_item_template"><path codeLine="36" d="M487.85,222.52 C487.85,265.24 487.85,377.41 487.85,377.41 C487.85,377.41 495.49,377.41 485.08,377.41 " fill="transparent" id="flow_table-flow_item_template" style="stroke:#181818;stroke-width:1;"/><line style="stroke:#181818;stroke-width:1;" x1="483.85" x2="491.85" y1="218.52" y2="218.52"/><line style="stroke:#181818;stroke-width:1;" x1="483.85" x2="491.85" y1="221.52" y2="221.52"/><line style="stroke:#181818;stroke-width:1;" x1="487.85" x2="487.85" y1="222.52" y2="214.52"/><line style="stroke:#181818;stroke-width:1;" x1="481.08" x2="470.08" y1="377.41" y2="377.41"/><ellipse cx="481.08" cy="377.41" fill="transparent" rx="4" ry="4" style="stroke:#181818;stroke-width:1;"/><line style="stroke:#181818;stroke-width:1;" x1="474.08" x2="474.08" y1="381.41" y2="373.41"/></g><!--link flow_table to flow--><g id="link_flow_table_flow"><path codeLine="37" d="M552.89,199.41 C614.8,199.41 725.08,199.41 725.08,199.41 C725.08,199.41 725.08,230.62 725.08,255.99 " fill="transparent" id="flow_table-flow" style="stroke:#181818;stroke-width:1;"/><line style="stroke:#181818;stroke-width:1;" x1="548.89" x2="548.89" y1="203.41" y2="195.41"/><line style="stroke:#181818;stroke-width:1;" x1="551.89" x2="551.89" y1="203.41" y2="195.41"/><line style="stroke:#181818;stroke-width:1;" x1="552.89" x2="544.89" y1="199.41" y2="199.41"/><line style="stroke:#181818;stroke-width:1;" x1="725.08" x2="731.08" y1="265.99" y2="273.99"/><line style="stroke:#181818;stroke-width:1;" x1="725.08" x2="719.08" y1="265.99" y2="273.99"/><line style="stroke:#181818;stroke-width:1;" x1="725.08" x2="725.08" y1="265.99" y2="273.99"/><ellipse cx="725.08" cy="259.99" fill="transparent" rx="4" ry="4" style="stroke:#181818;stroke-width:1;"/></g><!--link mempool to membuf--><g id="link_mempool_membuf"><path codeLine="38" d="M91.99,110.41 C67.41,110.41 46.94,110.41 46.94,110.41 C46.94,110.41 46.94,141.58 46.94,166.93 " fill="transparent" id="mempool-membuf" style="stroke:#181818;stroke-width:1;"/><line style="stroke:#181818;stroke-width:1;" x1="95.99" x2="95.99" y1="106.41" y2="114.41"/><line style="stroke:#181818;stroke-width:1;" x1="92.99" x2="92.99" y1="106.41" y2="114.41"/><line style="stroke:#181818;stroke-width:1;" x1="91.99" x2="99.99" y1="110.41" y2="110.41"/><line style="stroke:#181818;stroke-width:1;" x1="46.94" x2="52.94" y1="176.93" y2="184.93"/><line style="stroke:#181818;stroke-width:1;" x1="46.94" x2="40.94" y1="176.93" y2="184.93"/><line style="stroke:#181818;stroke-width:1;" x1="46.94" x2="46.94" y1="176.93" y2="184.93"/><ellipse cx="46.94" cy="170.93" fill="transparent" rx="4" ry="4" style="stroke:#181818;stroke-width:1;"/></g><!--link mempool to queue_rx--><g id="link_mempool_queue_rx"><path codeLine="39" d="M137.11,133.31 C137.11,149.72 137.11,150.11 137.11,166.65 " fill="transparent" id="mempool-queue_rx" style="stroke:#181818;stroke-width:1;"/><line style="stroke:#181818;stroke-width:1;" x1="137.11" x2="129.11" y1="133.31" y2="125.31"/><line style="stroke:#181818;stroke-width:1;" x1="137.11" x2="145.11" y1="133.31" y2="125.31"/><line style="stroke:#181818;stroke-width:1;" x1="137.11" x2="137.11" y1="133.31" y2="125.31"/><line style="stroke:#181818;stroke-width:1;" x1="137.11" x2="143.11" y1="176.65" y2="184.65"/><line style="stroke:#181818;stroke-width:1;" x1="137.11" x2="131.11" y1="176.65" y2="184.65"/><line style="stroke:#181818;stroke-width:1;" x1="137.11" x2="137.11" y1="176.65" y2="184.65"/><ellipse cx="137.11" cy="170.65" fill="transparent" rx="4" ry="4" style="stroke:#181818;stroke-width:1;"/></g><!--link queue_rx to hairpin_queue--><g id="link_queue_rx_hairpin_queue"><path codeLine="40" d="M167.18,222.55 C167.18,256.17 167.18,314.64 167.18,348.09 " fill="transparent" id="queue_rx-hairpin_queue" style="stroke:#181818;stroke-width:1;"/><line style="stroke:#181818;stroke-width:1;" x1="163.18" x2="171.18" y1="218.55" y2="218.55"/><line style="stroke:#181818;stroke-width:1;" x1="163.18" x2="171.18" y1="221.55" y2="221.55"/><line style="stroke:#181818;stroke-width:1;" x1="167.18" x2="167.18" y1="222.55" y2="214.55"/><line style="stroke:#181818;stroke-width:1;" x1="167.18" x2="167.18" y1="352.09" y2="363.09"/><ellipse cx="167.18" cy="352.09" fill="transparent" rx="4" ry="4" style="stroke:#181818;stroke-width:1;"/><line style="stroke:#181818;stroke-width:1;" x1="171.18" x2="163.18" y1="359.09" y2="359.09"/></g><!--link queue_tx to hairpin_queue--><g id="link_queue_tx_hairpin_queue"><path codeLine="41" d="M213.08,311.45 C213.08,327.85 213.08,331.25 213.08,347.78 " fill="transparent" id="queue_tx-hairpin_queue" style="stroke:#181818;stroke-width:1;"/><line style="stroke:#181818;stroke-width:1;" x1="209.08" x2="217.08" y1="307.45" y2="307.45"/><line style="stroke:#181818;stroke-width:1;" x1="209.08" x2="217.08" y1="310.45" y2="310.45"/><line style="stroke:#181818;stroke-width:1;" x1="213.08" x2="213.08" y1="311.45" y2="303.45"/><line style="stroke:#181818;stroke-width:1;" x1="213.08" x2="213.08" y1="351.78" y2="362.78"/><ellipse cx="213.08" cy="351.78" fill="transparent" rx="4" ry="4" style="stroke:#181818;stroke-width:1;"/><line style="stroke:#181818;stroke-width:1;" x1="217.08" x2="209.08" y1="358.78" y2="358.78"/></g><!--link socket_id to eth_dev--><g id="link_socket_id_eth_dev"><path codeLine="42" d="M210.91,51.24 C210.91,67.65 210.91,61.04 210.91,77.58 " fill="transparent" id="socket_id-eth_dev" style="stroke:#181818;stroke-width:1;"/><line style="stroke:#181818;stroke-width:1;" x1="210.91" x2="210.91" y1="47.24" y2="36.24"/><ellipse cx="210.91" cy="47.24" fill="transparent" rx="4" ry="4" style="stroke:#181818;stroke-width:1;"/><line style="stroke:#181818;stroke-width:1;" x1="206.91" x2="214.91" y1="40.24" y2="40.24"/><line style="stroke:#181818;stroke-width:1;" x1="210.91" x2="216.91" y1="87.58" y2="95.58"/><line style="stroke:#181818;stroke-width:1;" x1="210.91" x2="204.91" y1="87.58" y2="95.58"/><line style="stroke:#181818;stroke-width:1;" x1="210.91" x2="210.91" y1="87.58" y2="95.58"/><ellipse cx="210.91" cy="81.58" fill="transparent" rx="4" ry="4" style="stroke:#181818;stroke-width:1;"/></g><!--link socket_id to mempool--><g id="link_socket_id_mempool"><path codeLine="43" d="M160.2,44.24 C160.2,60.65 160.2,61.04 160.2,77.58 " fill="transparent" id="socket_id-mempool" style="stroke:#181818;stroke-width:1;"/><line style="stroke:#181818;stroke-width:1;" x1="156.2" x2="164.2" y1="40.24" y2="40.24"/><line style="stroke:#181818;stroke-width:1;" x1="156.2" x2="164.2" y1="43.24" y2="43.24"/><line style="stroke:#181818;stroke-width:1;" x1="160.2" x2="160.2" y1="44.24" y2="36.24"/><line style="stroke:#181818;stroke-width:1;" x1="160.2" x2="166.2" y1="87.58" y2="95.58"/><line style="stroke:#181818;stroke-width:1;" x1="160.2" x2="154.2" y1="87.58" y2="95.58"/><line style="stroke:#181818;stroke-width:1;" x1="160.2" x2="160.2" y1="87.58" y2="95.58"/><ellipse cx="160.2" cy="81.58" fill="transparent" rx="4" ry="4" style="stroke:#181818;stroke-width:1;"/></g><!--link socket_index to socket_id--><g id="link_socket_index_socket_id"><path codeLine="44" d="M123.79,21.41 C135.31,21.41 131.47,21.41 142.29,21.41 " fill="transparent" id="socket_index-socket_id" style="stroke:#181818;stroke-width:1;"/><line style="stroke:#181818;stroke-width:1;" x1="119.79" x2="119.79" y1="25.41" y2="17.41"/><line style="stroke:#181818;stroke-width:1;" x1="122.79" x2="122.79" y1="25.41" y2="17.41"/><line style="stroke:#181818;stroke-width:1;" x1="123.79" x2="115.79" y1="21.41" y2="21.41"/><line style="stroke:#181818;stroke-width:1;" x1="146.29" x2="146.29" y1="17.41" y2="25.41"/><line style="stroke:#181818;stroke-width:1;" x1="143.29" x2="143.29" y1="17.41" y2="25.41"/><line style="stroke:#181818;stroke-width:1;" x1="142.29" x2="150.29" y1="21.41" y2="21.41"/></g><!--link switch_domain to hairpin_queue--><g id="link_switch_domain_hairpin_queue"><path codeLine="45" d="M272.46,293.41 C259.83,293.41 257.91,293.41 257.91,293.41 C257.91,293.41 257.91,323.93 257.91,348.11 " fill="transparent" id="switch_domain-hairpin_queue" style="stroke:#181818;stroke-width:1;"/><line style="stroke:#181818;stroke-width:1;" x1="276.46" x2="276.46" y1="289.41" y2="297.41"/><line style="stroke:#181818;stroke-width:1;" x1="273.46" x2="273.46" y1="289.41" y2="297.41"/><line style="stroke:#181818;stroke-width:1;" x1="272.46" x2="280.46" y1="293.41" y2="293.41"/><line style="stroke:#181818;stroke-width:1;" x1="257.91" x2="257.91" y1="352.11" y2="363.11"/><ellipse cx="257.91" cy="352.11" fill="transparent" rx="4" ry="4" style="stroke:#181818;stroke-width:1;"/><line style="stroke:#181818;stroke-width:1;" x1="261.91" x2="253.91" y1="359.11" y2="359.11"/></g><!--SRC=[VL9RSiCW3FptAUW1Sfn-CmGhjSQy2dAJDEJknGzSSEnyU4RiBbeBxOVpuaiBDWHWPE6t2JqQ9xpGJA41kZjWrbDd2w9Be4zi_sdQgG1s4If0qs4B3BIZEsiXI8-Eq9eIrg3FuCCCIVHIGTE08KpSHTahHmBz0l3qEIK8AaR8gVihz4xEqRJeGT8xZYiCgo1SaMJ7Mwi5rcuapghoo7Kdq3iq_7k0OHMCem-NukIiLQk9bJqGnpO3GCaIVl9nwiJzhJxJRNi_BUIM7dI-p9xnT3hPk1rXOMDYxQDeNU3_1DN4ennzB4jqsSWMddPQ26RdkB-MKlUqXxfvHOSCYtOSuTXX6c0PDUw7vqXN9tAZMaoRPRyPMvQVqMVzyhd83rFd9-zXdrsJCuuyTit9AOZr7wR8bLaPkHYB-5LHsNNy0m00]--></g></svg>