<svg xmlns="http://www.w3.org/2000/svg" xmlns:xlink="http://www.w3.org/1999/xlink" contentStyleType="text/css" data-diagram-type="DESCRIPTION" height="1020px" preserveAspectRatio="none" style="width:965px;height:1020px;background:#FFFFFF;" version="1.1" viewBox="0 0 965 1020" width="965px" zoomAndPan="magnify"><defs/><g><!--cluster management_plane--><g id="cluster_management_plane"><rect fill="transparent" height="201.14" rx="2.5" ry="2.5" style="stroke:#181818;stroke-width:1;" width="154" x="355.78" y="7"/><text fill="#000000" font-family="sans-serif" font-size="14" font-weight="bold" lengthAdjust="spacing" textLength="138.5295" x="363.5153" y="23.9659">management_plane</text></g><!--cluster control_plane--><g id="cluster_control_plane"><rect fill="transparent" height="261.2" rx="2.5" ry="2.5" style="stroke:#181818;stroke-width:1;" width="338" x="154.78" y="232.14"/><text fill="#000000" font-family="sans-serif" font-size="14" font-weight="bold" lengthAdjust="spacing" textLength="92.8336" x="277.3632" y="249.1059">control plane</text></g><!--cluster zebra--><g id="cluster_zebra"><rect fill="transparent" height="128.14" rx="2.5" ry="2.5" style="stroke:#181818;stroke-width:1;" width="129" x="331.78" y="333.2"/><text fill="#000000" font-family="sans-serif" font-size="14" font-weight="bold" lengthAdjust="spacing" textLength="38.7519" x="376.9041" y="350.1659">zebra</text></g><!--cluster dataplane--><g id="cluster_dataplane"><rect fill="transparent" height="399.27" rx="2.5" ry="2.5" style="stroke:#181818;stroke-width:1;" width="623" x="128.78" y="532.34"/><text fill="#000000" font-family="sans-serif" font-size="14" font-weight="bold" lengthAdjust="spacing" textLength="70.5597" x="405.0001" y="549.3059">dataplane</text></g><!--cluster sister_dataplane--><g id="cluster_sister_dataplane"><rect fill="transparent" height="93.07" rx="2.5" ry="2.5" style="stroke:#181818;stroke-width:1;" width="184" x="775.78" y="635.91"/><text fill="#000000" font-family="sans-serif" font-size="14" font-weight="bold" lengthAdjust="spacing" textLength="113.1336" x="811.2132" y="652.8759">sister dataplane</text></g><!--entity gateway_agent--><g id="elem_gateway_agent"><rect fill="#F1F1F1" height="39.0679" rx="2.5" ry="2.5" style="stroke:#181818;stroke-width:0.5;" width="119.6936" x="372.93" y="153.07"/><text fill="#000000" font-family="sans-serif" font-size="14" lengthAdjust="spacing" textLength="99.6936" x="382.93" y="178.0359">gateway_agent</text></g><!--entity config_store--><g id="elem_config_store"><path d="M382.28,55 C382.28,45 432.7818,45 432.7818,45 C432.7818,45 483.2837,45 483.2837,55 L483.2837,83.0679 C483.2837,93.0679 432.7818,93.0679 432.7818,93.0679 C432.7818,93.0679 382.28,93.0679 382.28,83.0679 L382.28,55 " fill="#F1F1F1" style="stroke:#181818;stroke-width:0.5;"/><path d="M382.28,55 C382.28,65 432.7818,65 432.7818,65 C432.7818,65 483.2837,65 483.2837,55 " fill="transparent" style="stroke:#181818;stroke-width:0.5;"/><text fill="#000000" font-family="sans-serif" font-size="14" lengthAdjust="spacing" textLength="81.0037" x="392.28" y="83.9659">config_store</text></g><!--entity routing_daemons--><g id="elem_routing_daemons"><rect fill="#F1F1F1" height="39.0679" rx="2.5" ry="2.5" style="stroke:#181818;stroke-width:0.5;" width="133.7496" x="170.91" y="388.74"/><text fill="#000000" font-family="sans-serif" font-size="14" lengthAdjust="spacing" textLength="113.7496" x="180.91" y="413.7059">routing daemons</text></g><!--entity frr_agent--><g id="elem_frr_agent"><rect fill="#F1F1F1" height="39.0679" rx="2.5" ry="2.5" style="stroke:#181818;stroke-width:0.5;" width="86.3877" x="296.59" y="270.14"/><text fill="#000000" font-family="sans-serif" font-size="14" lengthAdjust="spacing" textLength="66.3877" x="306.59" y="295.1059">FRR agent</text></g><!--entity zebra_plugin--><g id="elem_zebra_plugin"><rect fill="#F1F1F1" height="58.1358" rx="2.5" ry="2.5" style="stroke:#181818;stroke-width:0.5;" width="61.7478" x="374.91" y="379.2"/><text fill="#000000" font-family="sans-serif" font-size="14" lengthAdjust="spacing" textLength="38.1499" x="384.91" y="404.1659">Zebra</text><text fill="#000000" font-family="sans-serif" font-size="14" lengthAdjust="spacing" textLength="41.7478" x="384.91" y="423.2339">plugin</text></g><!--entity control_plane_interface--><g id="elem_control_plane_interface"><rect fill="#F1F1F1" height="39.0679" rx="2.5" ry="2.5" style="stroke:#181818;stroke-width:0.5;" width="168.9454" x="321.31" y="570.34"/><text fill="#000000" font-family="sans-serif" font-size="14" lengthAdjust="spacing" textLength="148.9454" x="331.31" y="595.3059">control plane interface</text></g><!--entity management_plane_interface--><g id="elem_management_plane_interface"><rect fill="#F1F1F1" height="39.0679" rx="2.5" ry="2.5" style="stroke:#181818;stroke-width:0.5;" width="210.8333" x="525.36" y="570.34"/><text fill="#000000" font-family="sans-serif" font-size="14" lengthAdjust="spacing" textLength="190.8333" x="535.36" y="595.3059">management plane interface</text></g><!--entity dataplane_model--><g id="elem_dataplane_model"><path d="M376.12,679.41 C376.12,669.41 441.7768,669.41 441.7768,669.41 C441.7768,669.41 507.4336,669.41 507.4336,679.41 L507.4336,707.4779 C507.4336,717.4779 441.7768,717.4779 441.7768,717.4779 C441.7768,717.4779 376.12,717.4779 376.12,707.4779 L376.12,679.41 " fill="#F1F1F1" style="stroke:#181818;stroke-width:0.5;"/><path d="M376.12,679.41 C376.12,689.41 441.7768,689.41 441.7768,689.41 C441.7768,689.41 507.4336,689.41 507.4336,679.41 " fill="transparent" style="stroke:#181818;stroke-width:0.5;"/><text fill="#000000" font-family="sans-serif" font-size="14" lengthAdjust="spacing" textLength="111.3136" x="386.12" y="708.3759">dataplane model</text></g><!--entity routing_manager--><g id="elem_routing_manager"><rect fill="#F1F1F1" height="39.0679" rx="2.5" ry="2.5" style="stroke:#181818;stroke-width:0.5;" width="132.2096" x="298.68" y="777.48"/><text fill="#000000" font-family="sans-serif" font-size="14" lengthAdjust="spacing" textLength="112.2096" x="308.68" y="802.4459">routing manager</text></g><!--entity nat_manager--><g id="elem_nat_manager"><rect fill="#F1F1F1" height="39.0679" rx="2.5" ry="2.5" style="stroke:#181818;stroke-width:0.5;" width="104.9377" x="466.31" y="777.48"/><text fill="#000000" font-family="sans-serif" font-size="14" lengthAdjust="spacing" textLength="84.9377" x="476.31" y="802.4459">nat manager</text></g><!--entity state_sync--><g id="elem_state_sync"><rect fill="#F1F1F1" height="39.0679" rx="2.5" ry="2.5" style="stroke:#181818;stroke-width:0.5;" width="85.4218" x="614.07" y="673.91"/><text fill="#000000" font-family="sans-serif" font-size="14" lengthAdjust="spacing" textLength="65.4218" x="624.07" y="698.8759">state sync</text></g><!--entity interface_manager--><g id="elem_interface_manager"><rect fill="#F1F1F1" height="39.0679" rx="2.5" ry="2.5" style="stroke:#181818;stroke-width:0.5;" width="141.6595" x="144.95" y="570.34"/><text fill="#000000" font-family="sans-serif" font-size="14" lengthAdjust="spacing" textLength="121.6595" x="154.95" y="595.3059">interface manager</text></g><!--entity dataplane_workers--><g id="elem_dataplane_workers"><rect fill="#F1F1F1" height="39.0679" rx="2.5" ry="2.5" style="stroke:#181818;stroke-width:0.5;" width="142.7515" x="370.41" y="876.54"/><text fill="#000000" font-family="sans-serif" font-size="14" lengthAdjust="spacing" textLength="122.7515" x="380.41" y="901.5059">dataplane workers</text></g><!--entity rest--><g id="elem_rest"><rect fill="#F1F1F1" height="39.0679" rx="2.5" ry="2.5" style="stroke:#181818;stroke-width:0.5;" width="31.256" x="912.15" y="673.91"/><text fill="#000000" font-family="sans-serif" font-size="14" lengthAdjust="spacing" textLength="11.256" x="922.15" y="698.8759">...</text></g><!--entity sister_state_sync--><g id="elem_sister_state_sync"><rect fill="#F1F1F1" height="39.0679" rx="2.5" ry="2.5" style="stroke:#181818;stroke-width:0.5;" width="85.4218" x="792.07" y="673.91"/><text fill="#000000" font-family="sans-serif" font-size="14" lengthAdjust="spacing" textLength="65.4218" x="802.07" y="698.8759">state sync</text></g><!--entity kernel--><g id="elem_kernel"><rect fill="#F1F1F1" height="39.0679" rx="2.5" ry="2.5" style="stroke:#181818;stroke-width:0.5;" width="61.3138" x="51.12" y="673.91"/><text fill="#000000" font-family="sans-serif" font-size="14" lengthAdjust="spacing" textLength="41.3138" x="61.12" y="698.8759">kernel</text></g><!--entity nics--><g id="elem_nics"><rect fill="#F1F1F1" height="39.0679" rx="2.5" ry="2.5" style="stroke:#181818;stroke-width:0.5;" width="45.6899" x="418.94" y="975.61"/><text fill="#000000" font-family="sans-serif" font-size="14" lengthAdjust="spacing" textLength="25.6899" x="428.94" y="1000.5759">nics</text></g><!--link control_plane_interface to dataplane_model--><g id="link_control_plane_interface_dataplane_model"><path d="M433.19,609.84 C433.19,626.77 433.19,651.11 433.19,669.16 " fill="transparent" id="control_plane_interface-dataplane_model" style="stroke:#181818;stroke-width:1;"/></g><!--link dataplane_workers to nics--><g id="link_dataplane_workers_nics"><path d="M441.78,921.65 C441.78,938.91 441.78,951.93 441.78,969.27 " fill="transparent" id="dataplane_workers-nics" style="stroke:#181818;stroke-width:1;"/><polygon fill="#181818" points="441.78,915.65,437.78,924.65,441.78,920.65,445.78,924.65,441.78,915.65" style="stroke:#181818;stroke-width:1;"/><polygon fill="#181818" points="441.78,975.27,445.78,966.27,441.78,970.27,437.78,966.27,441.78,975.27" style="stroke:#181818;stroke-width:1;"/><text fill="#000000" font-family="sans-serif" font-size="13" lengthAdjust="spacing" textLength="30.927" x="410.78" y="941.357">dpdk</text></g><!--link frr_agent to routing_daemons--><g id="link_frr_agent_routing_daemons"><path d="M300.62,315.52 C300.62,337.42 300.62,360.44 300.62,382.36 " fill="transparent" id="frr_agent-routing_daemons" style="stroke:#181818;stroke-width:1;"/><polygon fill="#181818" points="300.62,309.52,296.62,318.52,300.62,314.52,304.62,318.52,300.62,309.52" style="stroke:#181818;stroke-width:1;"/><polygon fill="#181818" points="300.62,388.36,304.62,379.36,300.62,383.36,296.62,379.36,300.62,388.36" style="stroke:#181818;stroke-width:1;"/></g><!--link frr_agent to zebra--><g id="link_frr_agent_zebra"><path d="M339.78,315.52 C339.78,319.4763 339.78,317.8614 339.78,322.5206 C339.78,324.8502 339.78,327.2483 339.78,329.6956 C339.78,330.3074 339.78,330.9223 339.78,331.5399 C339.78,331.8488 339.78,332.1583 339.78,332.4685 C339.78,332.6236 339.78,326.7788 339.78,326.9342 " fill="transparent" id="frr_agent-zebra" style="stroke:#181818;stroke-width:1;"/><polygon fill="#181818" points="339.78,309.52,335.78,318.52,339.78,314.52,343.78,318.52,339.78,309.52" style="stroke:#181818;stroke-width:1;"/><polygon fill="#181818" points="339.78,332.9342,343.78,323.9342,339.78,327.9342,335.78,323.9342,339.78,332.9342" style="stroke:#181818;stroke-width:1;"/></g><!--link gateway_agent to frr_agent--><g id="link_gateway_agent_frr_agent"><path d="M377.95,192.46 C377.95,213.99 377.95,248.15 377.95,269.71 " fill="transparent" id="gateway_agent-frr_agent" style="stroke:#181818;stroke-width:1;"/></g><!--link gateway_agent to management_plane_interface--><g id="link_gateway_agent_management_plane_interface"><path d="M492.99,172.68 C551.25,172.68 630.78,172.68 630.78,172.68 C630.78,172.68 630.78,487.12 630.78,570.03 " fill="transparent" id="gateway_agent-management_plane_interface" style="stroke:#181818;stroke-width:1;"/></g><!--link config_store to gateway_agent--><g id="link_config_store_gateway_agent"><path d="M432.78,93.32 C432.78,111.37 432.78,135.71 432.78,152.64 " fill="transparent" id="config_store-gateway_agent" style="stroke:#181818;stroke-width:1;"/></g><!--link interface_manager to dataplane_model--><g id="link_interface_manager_dataplane_model"><path d="M215.78,609.89 C215.78,640.05 215.78,693.68 215.78,693.68 C215.78,693.68 309.1,693.68 375.8,693.68 " fill="transparent" id="interface_manager-dataplane_model" style="stroke:#181818;stroke-width:1;"/></g><!--link interface_manager to kernel--><g id="link_interface_manager_kernel"><path d="M138.49,589.68 C110.98,589.68 92,589.68 92,589.68 C92,589.68 92,637.28 92,667.44 " fill="transparent" id="interface_manager-kernel" style="stroke:#181818;stroke-width:1;"/><polygon fill="#181818" points="144.49,589.68,135.49,585.68,139.49,589.68,135.49,593.68,144.49,589.68" style="stroke:#181818;stroke-width:1;"/><polygon fill="#181818" points="92,673.44,96,664.44,92,668.44,88,664.44,92,673.44" style="stroke:#181818;stroke-width:1;"/><text fill="#000000" font-family="sans-serif" font-size="13" lengthAdjust="spacing" textLength="84.4221" x="7" y="601.207">netlink socket</text></g><!--link dataplane_model to state_sync--><g id="link_dataplane_model_state_sync"><path d="M507.75,693.68 C542.19,693.68 583.35,693.68 613.68,693.68 " fill="transparent" id="dataplane_model-state_sync" style="stroke:#181818;stroke-width:1;"/></g><!--link dataplane_model to nat_manager--><g id="link_dataplane_model_nat_manager"><path d="M486.88,723.72 C486.88,741.78 486.88,754.12 486.88,771.05 " fill="transparent" id="dataplane_model-nat_manager" style="stroke:#181818;stroke-width:1;"/><polygon fill="#181818" points="486.88,717.72,482.88,726.72,486.88,722.72,490.88,726.72,486.88,717.72" style="stroke:#181818;stroke-width:1;"/><polygon fill="#181818" points="486.88,777.05,490.88,768.05,486.88,772.05,482.88,768.05,486.88,777.05" style="stroke:#181818;stroke-width:1;"/></g><!--link dataplane_model to routing_manager--><g id="link_dataplane_model_routing_manager"><path d="M403.51,723.72 C403.51,741.78 403.51,754.12 403.51,771.05 " fill="transparent" id="dataplane_model-routing_manager" style="stroke:#181818;stroke-width:1;"/><polygon fill="#181818" points="403.51,717.72,399.51,726.72,403.51,722.72,407.51,726.72,403.51,717.72" style="stroke:#181818;stroke-width:1;"/><polygon fill="#181818" points="403.51,777.05,407.51,768.05,403.51,772.05,399.51,768.05,403.51,777.05" style="stroke:#181818;stroke-width:1;"/></g><!--link management_plane_interface to dataplane_model--><g id="link_management_plane_interface_dataplane_model"><path d="M524.93,589.68 C510.23,589.68 500.03,589.68 500.03,589.68 C500.03,589.68 500.03,638.45 500.03,669.11 " fill="transparent" id="management_plane_interface-dataplane_model" style="stroke:#181818;stroke-width:1;"/></g><!--link nat_manager to dataplane_workers--><g id="link_nat_manager_dataplane_workers"><path d="M489.73,822.58 C489.73,839.84 489.73,852.86 489.73,870.21 " fill="transparent" id="nat_manager-dataplane_workers" style="stroke:#181818;stroke-width:1;"/><polygon fill="#181818" points="489.73,816.58,485.73,825.58,489.73,821.58,493.73,825.58,489.73,816.58" style="stroke:#181818;stroke-width:1;"/><polygon fill="#181818" points="489.73,876.21,493.73,867.21,489.73,871.21,485.73,867.21,489.73,876.21" style="stroke:#181818;stroke-width:1;"/></g><!--link zebra_plugin to control_plane_interface--><g id="link_zebra_plugin_control_plane_interface"><path d="M405.78,437.45 C405.78,474.65 405.78,537.97 405.78,570.02 " fill="transparent" id="zebra_plugin-control_plane_interface" style="stroke:#181818;stroke-width:1;"/><text fill="#000000" font-family="sans-serif" font-size="13" lengthAdjust="spacing" textLength="68.9781" x="336.78" y="499.637">unix socket</text></g><!--link routing_daemons to zebra--><g id="link_routing_daemons_zebra"><path d="M310.96,408.68 C319.315,408.68 321.025,408.68 327.055,408.68 C328.5625,408.68 329.965,408.68 331.2463,408.68 C331.4065,408.68 325.5648,408.68 325.7211,408.68 " fill="transparent" id="routing_daemons-zebra" style="stroke:#181818;stroke-width:1;"/><polygon fill="#181818" points="304.96,408.68,313.96,412.68,309.96,408.68,313.96,404.68,304.96,408.68" style="stroke:#181818;stroke-width:1;"/><polygon fill="#181818" points="331.7211,408.68,322.7211,404.68,326.7211,408.68,322.7211,412.68,331.7211,408.68" style="stroke:#181818;stroke-width:1;"/></g><!--link routing_manager to dataplane_workers--><g id="link_routing_manager_dataplane_workers"><path d="M400.65,822.58 C400.65,839.84 400.65,852.86 400.65,870.21 " fill="transparent" id="routing_manager-dataplane_workers" style="stroke:#181818;stroke-width:1;"/><polygon fill="#181818" points="400.65,816.58,396.65,825.58,400.65,821.58,404.65,825.58,400.65,816.58" style="stroke:#181818;stroke-width:1;"/><polygon fill="#181818" points="400.65,876.21,404.65,867.21,400.65,871.21,396.65,867.21,400.65,876.21" style="stroke:#181818;stroke-width:1;"/></g><!--link state_sync to sister_state_sync--><g id="link_state_sync_sister_state_sync"><path d="M705.87,693.68 C733.75,693.68 757.92,693.68 785.78,693.68 " fill="transparent" id="state_sync-sister_state_sync" style="stroke:#181818;stroke-width:1;"/><polygon fill="#181818" points="699.87,693.68,708.87,697.68,704.87,693.68,708.87,689.68,699.87,693.68" style="stroke:#181818;stroke-width:1;"/><polygon fill="#181818" points="791.78,693.68,782.78,689.68,786.78,693.68,782.78,697.68,791.78,693.68" style="stroke:#181818;stroke-width:1;"/><text fill="#000000" font-family="sans-serif" font-size="13" lengthAdjust="spacing" textLength="32.812" x="712.83" y="689.577">rdma</text></g><!--link zebra to kernel--><g id="link_zebra_kernel"><path d="M325.4586,432.68 C324.6421,432.68 329.1717,432.68 328.2549,432.68 C320.9208,432.68 310.4434,432.68 297.8706,432.68 C272.725,432.68 239.1975,432.68 205.67,432.68 C138.615,432.68 71.56,432.68 71.56,432.68 C71.56,432.68 71.56,606.35 71.56,667.41 " fill="transparent" id="zebra-kernel" style="stroke:#181818;stroke-width:1;"/><polygon fill="#181818" points="331.4586,432.68,322.4586,428.68,326.4586,432.68,322.4586,436.68,331.4586,432.68" style="stroke:#181818;stroke-width:1;"/><polygon fill="#181818" points="71.56,673.41,75.56,664.41,71.56,668.41,67.56,664.41,71.56,673.41" style="stroke:#181818;stroke-width:1;"/><text fill="#000000" font-family="sans-serif" font-size="13" lengthAdjust="spacing" textLength="84.4221" x="12.21" y="428.577">netlink socket</text></g><!--SRC=[VLJBRgKm3DtdAppikHzmLSso7r1fDgEHa0k-504ESdBLkHtrtoSF2YH0TubzSfoJu_Z79DYE29Rq1rYvap9znnCAZl3sc4Y6ZljVt8G5mGq7iuNue7Kmq6BVj592jKLk1u8H6LiQYMqr3UYE_bC0Qxf5I-_ug1o6hSiqQF4L3K6j-TQrbR5QI7rk6NiIfW7GG16NnJRhpbdHmrpCW-O8X4YHrHTzjnstLOCqQZRXm1o3ELOa1pxeLJ30mYhoxG2k_BtjEE1- -y0VZX5FzfaGtaIY-W1-Vdc1i2jIqVvTLadBBfUJgAywjYGth0_U0PPSAY-tA-DOqqSqYtdB_QfHDxDNgu8GAmvjYFoIs337qWECDW6x_J7GMDTXbNbm7N1X2twRmXOT2Uig_f1xbVcknVMYoOJEqSnAqnd7MgMEnY2S6YjaOeDSBfTCOAJxHcTIdRlQA7NM9sMPUwVs8f_AycVWWIiqKzEhjOL3AljJUJfy49LyV5ztGUrJvqsfjcF2GzDvidVrGE0U5AuvZvahkCdcXnyONVTaLTxRvQR5TiduL6kl7WEoxbVVVCA3-s-_Gg3REQQIcLGwZZF_ht3dxk-Nr7muFYtkvV_rfEwcAVtPVQjUGPeHu_q2vEpL_mC0]--></g></svg>