<svg xmlns="http://www.w3.org/2000/svg" xmlns:xlink="http://www.w3.org/1999/xlink" contentStyleType="text/css" data-diagram-type="DESCRIPTION" height="1020px" preserveAspectRatio="none" style="width:968px;height:1020px;background:#FFFFFF;" version="1.1" viewBox="0 0 968 1020" width="968px" zoomAndPan="magnify"><defs/><g><!--cluster management_plane--><g id="cluster_management_plane"><rect fill="transparent" height="201.14" rx="2.5" ry="2.5" style="stroke:#181818;stroke-width:1;" width="182" x="344.78" y="7"/></g><a href="#management-plane" target="_top" title="#management-plane" xlink:actuate="onRequest" xlink:href="#management-plane" xlink:show="new" xlink:title="#management-plane" xlink:type="simple"><text fill="#0000FF" font-family="sans-serif" font-size="14" font-weight="bold" lengthAdjust="spacing" textLength="136.4155" x="367.5723" y="23.9659">management plane</text></a><!--cluster control_plane--><g id="cluster_control_plane"><rect fill="transparent" height="261.2" rx="2.5" ry="2.5" style="stroke:#181818;stroke-width:1;" width="338" x="157.78" y="232.14"/></g><a href="#control-plane" target="_top" title="#control-plane" xlink:actuate="onRequest" xlink:href="#control-plane" xlink:show="new" xlink:title="#control-plane" xlink:type="simple"><text fill="#0000FF" font-family="sans-serif" font-size="14" font-weight="bold" lengthAdjust="spacing" textLength="92.8336" x="280.3632" y="249.1059">control plane</text></a><!--cluster zebra--><g id="cluster_zebra"><rect fill="transparent" height="128.14" rx="2.5" ry="2.5" style="stroke:#181818;stroke-width:1;" width="129" x="334.78" y="333.2"/></g><a href="https://docs.frrouting.org/en/latest/zebra.html" target="_top" title="https://docs.frrouting.org/en/latest/zebra.html" xlink:actuate="onRequest" xlink:href="https://docs.frrouting.org/en/latest/zebra.html" xlink:show="new" xlink:title="https://docs.frrouting.org/en/latest/zebra.html" xlink:type="simple"><text fill="#0000FF" font-family="sans-serif" font-size="14" font-weight="bold" lengthAdjust="spacing" textLength="38.7519" x="379.9041" y="350.1659">zebra</text></a><!--cluster dataplane--><g id="cluster_dataplane"><rect fill="transparent" height="399.27" rx="2.5" ry="2.5" style="stroke:#181818;stroke-width:1;" width="623" x="131.78" y="532.34"/></g><a href="#dataplane" target="_top" title="#dataplane" xlink:actuate="onRequest" xlink:href="#dataplane" xlink:show="new" xlink:title="#dataplane" xlink:type="simple"><text fill="#0000FF" font-family="sans-serif" font-size="14" font-weight="bold" lengthAdjust="spacing" textLength="70.5597" x="408.0001" y="549.3059">dataplane</text></a><!--cluster sister_dataplane--><g id="cluster_sister_dataplane"><rect fill="transparent" height="93.07" rx="2.5" ry="2.5" style="stroke:#181818;stroke-width:1;" width="184" x="778.78" y="635.91"/><text fill="#000000" font-family="sans-serif" font-size="14" font-weight="bold" lengthAdjust="spacing" textLength="113.1336" x="814.2132" y="652.8759">sister dataplane</text></g><!--entity gateway_agent--><g id="elem_gateway_agent"><rect fill="#F1F1F1" height="39.0679" rx="2.5" ry="2.5" style="stroke:#181818;stroke-width:0.5;" width="119.7916" x="375.89" y="153.07"/></g><a href="#gateway-agent" target="_top" title="#gateway-agent" xlink:actuate="onRequest" xlink:href="#gateway-agent" xlink:show="new" xlink:title="#gateway-agent" xlink:type="simple"><text fill="#0000FF" font-family="sans-serif" font-size="14" lengthAdjust="spacing" textLength="99.7916" x="385.89" y="178.0359">Gateway Agent</text></a><!--entity config_store--><g id="elem_config_store"><path d="M360.98,55 C360.98,45 435.7858,45 435.7858,45 C435.7858,45 510.5915,45 510.5915,55 L510.5915,83.0679 C510.5915,93.0679 435.7858,93.0679 435.7858,93.0679 C435.7858,93.0679 360.98,93.0679 360.98,83.0679 L360.98,55 " fill="#F1F1F1" style="stroke:#181818;stroke-width:0.5;"/><path d="M360.98,55 C360.98,65 435.7858,65 435.7858,65 C435.7858,65 510.5915,65 510.5915,55 " fill="transparent" style="stroke:#181818;stroke-width:0.5;"/></g><a href="#configuration-store" target="_top" title="#configuration-store" xlink:actuate="onRequest" xlink:href="#configuration-store" xlink:show="new" xlink:title="#configuration-store" xlink:type="simple"><text fill="#0000FF" font-family="sans-serif" font-size="14" lengthAdjust="spacing" textLength="129.6115" x="370.98" y="83.9659">Configuration Store</text></a><!--entity routing_daemons--><g id="elem_routing_daemons"><rect fill="#F1F1F1" height="39.0679" rx="2.5" ry="2.5" style="stroke:#181818;stroke-width:0.5;" width="133.7496" x="173.91" y="388.74"/></g><a href="#routing-daemons" target="_top" title="#routing-daemons" xlink:actuate="onRequest" xlink:href="#routing-daemons" xlink:show="new" xlink:title="#routing-daemons" xlink:type="simple"><text fill="#0000FF" font-family="sans-serif" font-size="14" lengthAdjust="spacing" textLength="113.7496" x="183.91" y="413.7059">routing daemons</text></a><!--entity frr_agent--><g id="elem_frr_agent"><rect fill="#F1F1F1" height="39.0679" rx="2.5" ry="2.5" style="stroke:#181818;stroke-width:0.5;" width="86.3877" x="299.59" y="270.14"/></g><a href="#frr-agent" target="_top" title="#frr-agent" xlink:actuate="onRequest" xlink:href="#frr-agent" xlink:show="new" xlink:title="#frr-agent" xlink:type="simple"><text fill="#0000FF" font-family="sans-serif" font-size="14" lengthAdjust="spacing" textLength="66.3877" x="309.59" y="295.1059">FRR agent</text></a><!--entity zebra_plugin--><g id="elem_zebra_plugin"><rect fill="#F1F1F1" height="58.1358" rx="2.5" ry="2.5" style="stroke:#181818;stroke-width:0.5;" width="61.7478" x="377.91" y="379.2"/></g><a href="#zebra-plugin" target="_top" title="#zebra-plugin" xlink:actuate="onRequest" xlink:href="#zebra-plugin" xlink:show="new" xlink:title="#zebra-plugin" xlink:type="simple"><text fill="#0000FF" font-family="sans-serif" font-size="14" lengthAdjust="spacing" textLength="38.1499" x="387.91" y="404.1659">Zebra</text></a><a href="#zebra-plugin" target="_top" title="#zebra-plugin" xlink:actuate="onRequest" xlink:href="#zebra-plugin" xlink:show="new" xlink:title="#zebra-plugin" xlink:type="simple"><text fill="#0000FF" font-family="sans-serif" font-size="14" lengthAdjust="spacing" textLength="41.7478" x="387.91" y="423.2339">plugin</text></a><!--entity control_plane_interface--><g id="elem_control_plane_interface"><rect fill="#F1F1F1" height="39.0679" rx="2.5" ry="2.5" style="stroke:#181818;stroke-width:0.5;" width="168.9454" x="324.31" y="570.34"/></g><a href="#control-plane-interface" target="_top" title="#control-plane-interface" xlink:actuate="onRequest" xlink:href="#control-plane-interface" xlink:show="new" xlink:title="#control-plane-interface" xlink:type="simple"><text fill="#0000FF" font-family="sans-serif" font-size="14" lengthAdjust="spacing" textLength="148.9454" x="334.31" y="595.3059">control plane interface</text></a><!--entity management_plane_interface--><g id="elem_management_plane_interface"><rect fill="#F1F1F1" height="39.0679" rx="2.5" ry="2.5" style="stroke:#181818;stroke-width:0.5;" width="210.8333" x="528.36" y="570.34"/></g><a href="#management-plane-interface" target="_top" title="#management-plane-interface" xlink:actuate="onRequest" xlink:href="#management-plane-interface" xlink:show="new" xlink:title="#management-plane-interface" xlink:type="simple"><text fill="#0000FF" font-family="sans-serif" font-size="14" lengthAdjust="spacing" textLength="190.8333" x="538.36" y="595.3059">management plane interface</text></a><!--entity dataplane_model--><g id="elem_dataplane_model"><path d="M379.12,679.41 C379.12,669.41 444.7768,669.41 444.7768,669.41 C444.7768,669.41 510.4336,669.41 510.4336,679.41 L510.4336,707.4779 C510.4336,717.4779 444.7768,717.4779 444.7768,717.4779 C444.7768,717.4779 379.12,717.4779 379.12,707.4779 L379.12,679.41 " fill="#F1F1F1" style="stroke:#181818;stroke-width:0.5;"/><path d="M379.12,679.41 C379.12,689.41 444.7768,689.41 444.7768,689.41 C444.7768,689.41 510.4336,689.41 510.4336,679.41 " fill="transparent" style="stroke:#181818;stroke-width:0.5;"/></g><a href="#dataplane-model" target="_top" title="#dataplane-model" xlink:actuate="onRequest" xlink:href="#dataplane-model" xlink:show="new" xlink:title="#dataplane-model" xlink:type="simple"><text fill="#0000FF" font-family="sans-serif" font-size="14" lengthAdjust="spacing" textLength="111.3136" x="389.12" y="708.3759">dataplane model</text></a><!--entity routing_manager--><g id="elem_routing_manager"><rect fill="#F1F1F1" height="39.0679" rx="2.5" ry="2.5" style="stroke:#181818;stroke-width:0.5;" width="132.2096" x="301.68" y="777.48"/></g><a href="#routing-manager" target="_top" title="#routing-manager" xlink:actuate="onRequest" xlink:href="#routing-manager" xlink:show="new" xlink:title="#routing-manager" xlink:type="simple"><text fill="#0000FF" font-family="sans-serif" font-size="14" lengthAdjust="spacing" textLength="112.2096" x="311.68" y="802.4459">routing manager</text></a><!--entity nat_manager--><g id="elem_nat_manager"><rect fill="#F1F1F1" height="39.0679" rx="2.5" ry="2.5" style="stroke:#181818;stroke-width:0.5;" width="104.9377" x="469.31" y="777.48"/></g><a href="#nat-manager" target="_top" title="#nat-manager" xlink:actuate="onRequest" xlink:href="#nat-manager" xlink:show="new" xlink:title="#nat-manager" xlink:type="simple"><text fill="#0000FF" font-family="sans-serif" font-size="14" lengthAdjust="spacing" textLength="84.9377" x="479.31" y="802.4459">nat manager</text></a><!--entity state_sync--><g id="elem_state_sync"><rect fill="#F1F1F1" height="39.0679" rx="2.5" ry="2.5" style="stroke:#181818;stroke-width:0.5;" width="85.4218" x="617.07" y="673.91"/></g><a href="#state-sync" target="_top" title="#state-sync" xlink:actuate="onRequest" xlink:href="#state-sync" xlink:show="new" xlink:title="#state-sync" xlink:type="simple"><text fill="#0000FF" font-family="sans-serif" font-size="14" lengthAdjust="spacing" textLength="65.4218" x="627.07" y="698.8759">state sync</text></a><!--entity interface_manager--><g id="elem_interface_manager"><rect fill="#F1F1F1" height="39.0679" rx="2.5" ry="2.5" style="stroke:#181818;stroke-width:0.5;" width="141.6595" x="147.95" y="570.34"/></g><a href="#interface-manager" target="_top" title="#interface-manager" xlink:actuate="onRequest" xlink:href="#interface-manager" xlink:show="new" xlink:title="#interface-manager" xlink:type="simple"><text fill="#0000FF" font-family="sans-serif" font-size="14" lengthAdjust="spacing" textLength="121.6595" x="157.95" y="595.3059">interface manager</text></a><!--entity dataplane_workers--><g id="elem_dataplane_workers"><rect fill="#F1F1F1" height="39.0679" rx="2.5" ry="2.5" style="stroke:#181818;stroke-width:0.5;" width="142.7515" x="373.41" y="876.54"/></g><a href="#dataplane-workers" target="_top" title="#dataplane-workers" xlink:actuate="onRequest" xlink:href="#dataplane-workers" xlink:show="new" xlink:title="#dataplane-workers" xlink:type="simple"><text fill="#0000FF" font-family="sans-serif" font-size="14" lengthAdjust="spacing" textLength="122.7515" x="383.41" y="901.5059">dataplane workers</text></a><!--entity rest--><g id="elem_rest"><rect fill="#F1F1F1" height="39.0679" rx="2.5" ry="2.5" style="stroke:#181818;stroke-width:0.5;" width="31.256" x="915.15" y="673.91"/><text fill="#000000" font-family="sans-serif" font-size="14" lengthAdjust="spacing" textLength="11.256" x="925.15" y="698.8759">...</text></g><!--entity sister_state_sync--><g id="elem_sister_state_sync"><rect fill="#F1F1F1" height="39.0679" rx="2.5" ry="2.5" style="stroke:#181818;stroke-width:0.5;" width="85.4218" x="795.07" y="673.91"/><text fill="#000000" font-family="sans-serif" font-size="14" lengthAdjust="spacing" textLength="65.4218" x="805.07" y="698.8759">state sync</text></g><!--entity kernel--><g id="elem_kernel"><rect fill="#F1F1F1" height="39.0679" rx="2.5" ry="2.5" style="stroke:#181818;stroke-width:0.5;" width="61.3138" x="54.12" y="673.91"/></g><a href="https://en.wikipedia.org/wiki/Linux_kernel" target="_top" title="https://en.wikipedia.org/wiki/Linux_kernel" xlink:actuate="onRequest" xlink:href="https://en.wikipedia.org/wiki/Linux_kernel" xlink:show="new" xlink:title="https://en.wikipedia.org/wiki/Linux_kernel" xlink:type="simple"><text fill="#0000FF" font-family="sans-serif" font-size="14" lengthAdjust="spacing" textLength="41.3138" x="64.12" y="698.8759">kernel</text></a><!--entity nics--><g id="elem_nics"><rect fill="#F1F1F1" height="39.0679" rx="2.5" ry="2.5" style="stroke:#181818;stroke-width:0.5;" width="45.6899" x="421.94" y="975.61"/><text fill="#000000" font-family="sans-serif" font-size="14" lengthAdjust="spacing" textLength="25.6899" x="431.94" y="1000.5759">nics</text></g><!--link control_plane_interface to dataplane_model--><g id="link_control_plane_interface_dataplane_model"><path d="M436.19,609.84 C436.19,626.77 436.19,651.11 436.19,669.16 " fill="transparent" id="control_plane_interface-dataplane_model" style="stroke:#181818;stroke-width:1;"/></g><!--link dataplane_workers to nics--><g id="link_dataplane_workers_nics"><path d="M444.78,921.65 C444.78,938.91 444.78,951.93 444.78,969.27 " fill="transparent" id="dataplane_workers-nics" style="stroke:#181818;stroke-width:1;"/><polygon fill="#181818" points="444.78,915.65,440.78,924.65,444.78,920.65,448.78,924.65,444.78,915.65" style="stroke:#181818;stroke-width:1;"/><polygon fill="#181818" points="444.78,975.27,448.78,966.27,444.78,970.27,440.78,966.27,444.78,975.27" style="stroke:#181818;stroke-width:1;"/></g><a href="https://www.dpdk.org/" target="_top" title="https://www.dpdk.org/" xlink:actuate="onRequest" xlink:href="https://www.dpdk.org/" xlink:show="new" xlink:title="https://www.dpdk.org/" xlink:type="simple"><text fill="#0000FF" font-family="sans-serif" font-size="13" lengthAdjust="spacing" textLength="30.927" x="409.78" y="941.357">dpdk</text></a><!--link frr_agent to routing_daemons--><g id="link_frr_agent_routing_daemons"><path d="M303.62,315.52 C303.62,337.42 303.62,360.44 303.62,382.36 " fill="transparent" id="frr_agent-routing_daemons" style="stroke:#181818;stroke-width:1;"/><polygon fill="#181818" points="303.62,309.52,299.62,318.52,303.62,314.52,307.62,318.52,303.62,309.52" style="stroke:#181818;stroke-width:1;"/><polygon fill="#181818" points="303.62,388.36,307.62,379.36,303.62,383.36,299.62,379.36,303.62,388.36" style="stroke:#181818;stroke-width:1;"/></g><!--link frr_agent to zebra--><g id="link_frr_agent_zebra"><path d="M342.78,315.52 C342.78,319.4763 342.78,317.8614 342.78,322.5206 C342.78,324.8502 342.78,327.2483 342.78,329.6956 C342.78,330.3074 342.78,330.9223 342.78,331.5399 C342.78,331.8488 342.78,332.1583 342.78,332.4685 C342.78,332.6236 342.78,326.7788 342.78,326.9342 " fill="transparent" id="frr_agent-zebra" style="stroke:#181818;stroke-width:1;"/><polygon fill="#181818" points="342.78,309.52,338.78,318.52,342.78,314.52,346.78,318.52,342.78,309.52" style="stroke:#181818;stroke-width:1;"/><polygon fill="#181818" points="342.78,332.9342,346.78,323.9342,342.78,327.9342,338.78,323.9342,342.78,332.9342" style="stroke:#181818;stroke-width:1;"/></g><!--link gateway_agent to frr_agent--><g id="link_gateway_agent_frr_agent"><path d="M380.93,192.46 C380.93,213.99 380.93,248.15 380.93,269.71 " fill="transparent" id="gateway_agent-frr_agent" style="stroke:#181818;stroke-width:1;"/></g><!--link gateway_agent to management_plane_interface--><g id="link_gateway_agent_management_plane_interface"><path d="M495.99,172.68 C554.25,172.68 633.78,172.68 633.78,172.68 C633.78,172.68 633.78,487.12 633.78,570.03 " fill="transparent" id="gateway_agent-management_plane_interface" style="stroke:#181818;stroke-width:1;"/></g><!--link config_store to gateway_agent--><g id="link_config_store_gateway_agent"><path d="M435.78,93.32 C435.78,111.37 435.78,135.71 435.78,152.64 " fill="transparent" id="config_store-gateway_agent" style="stroke:#181818;stroke-width:1;"/></g><!--link interface_manager to dataplane_model--><g id="link_interface_manager_dataplane_model"><path d="M218.78,609.89 C218.78,640.05 218.78,693.68 218.78,693.68 C218.78,693.68 312.1,693.68 378.8,693.68 " fill="transparent" id="interface_manager-dataplane_model" style="stroke:#181818;stroke-width:1;"/></g><!--link interface_manager to kernel--><g id="link_interface_manager_kernel"><path d="M141.49,589.68 C113.98,589.68 95,589.68 95,589.68 C95,589.68 95,637.28 95,667.44 " fill="transparent" id="interface_manager-kernel" style="stroke:#181818;stroke-width:1;"/><polygon fill="#181818" points="147.49,589.68,138.49,585.68,142.49,589.68,138.49,593.68,147.49,589.68" style="stroke:#181818;stroke-width:1;"/><polygon fill="#181818" points="95,673.44,99,664.44,95,668.44,91,664.44,95,673.44" style="stroke:#181818;stroke-width:1;"/></g><a href="https://man7.org/linux/man-pages/man7/netlink.7.html" target="_top" title="https://man7.org/linux/man-pages/man7/netlink.7.html" xlink:actuate="onRequest" xlink:href="https://man7.org/linux/man-pages/man7/netlink.7.html" xlink:show="new" xlink:title="https://man7.org/linux/man-pages/man7/netlink.7.html" xlink:type="simple"><text fill="#0000FF" font-family="sans-serif" font-size="13" lengthAdjust="spacing" textLength="84.4221" x="7" y="601.207">netlink socket</text></a><!--link dataplane_model to state_sync--><g id="link_dataplane_model_state_sync"><path d="M510.75,693.68 C545.19,693.68 586.35,693.68 616.68,693.68 " fill="transparent" id="dataplane_model-state_sync" style="stroke:#181818;stroke-width:1;"/></g><!--link dataplane_model to nat_manager--><g id="link_dataplane_model_nat_manager"><path d="M489.88,723.72 C489.88,741.78 489.88,754.12 489.88,771.05 " fill="transparent" id="dataplane_model-nat_manager" style="stroke:#181818;stroke-width:1;"/><polygon fill="#181818" points="489.88,717.72,485.88,726.72,489.88,722.72,493.88,726.72,489.88,717.72" style="stroke:#181818;stroke-width:1;"/><polygon fill="#181818" points="489.88,777.05,493.88,768.05,489.88,772.05,485.88,768.05,489.88,777.05" style="stroke:#181818;stroke-width:1;"/></g><!--link dataplane_model to routing_manager--><g id="link_dataplane_model_routing_manager"><path d="M406.51,723.72 C406.51,741.78 406.51,754.12 406.51,771.05 " fill="transparent" id="dataplane_model-routing_manager" style="stroke:#181818;stroke-width:1;"/><polygon fill="#181818" points="406.51,717.72,402.51,726.72,406.51,722.72,410.51,726.72,406.51,717.72" style="stroke:#181818;stroke-width:1;"/><polygon fill="#181818" points="406.51,777.05,410.51,768.05,406.51,772.05,402.51,768.05,406.51,777.05" style="stroke:#181818;stroke-width:1;"/></g><!--link management_plane_interface to dataplane_model--><g id="link_management_plane_interface_dataplane_model"><path d="M527.95,589.68 C513.25,589.68 503.06,589.68 503.06,589.68 C503.06,589.68 503.06,638.45 503.06,669.11 " fill="transparent" id="management_plane_interface-dataplane_model" style="stroke:#181818;stroke-width:1;"/></g><!--link nat_manager to dataplane_workers--><g id="link_nat_manager_dataplane_workers"><path d="M492.73,822.58 C492.73,839.84 492.73,852.86 492.73,870.21 " fill="transparent" id="nat_manager-dataplane_workers" style="stroke:#181818;stroke-width:1;"/><polygon fill="#181818" points="492.73,816.58,488.73,825.58,492.73,821.58,496.73,825.58,492.73,816.58" style="stroke:#181818;stroke-width:1;"/><polygon fill="#181818" points="492.73,876.21,496.73,867.21,492.73,871.21,488.73,867.21,492.73,876.21" style="stroke:#181818;stroke-width:1;"/></g><!--link zebra_plugin to control_plane_interface--><g id="link_zebra_plugin_control_plane_interface"><path d="M408.78,437.45 C408.78,474.65 408.78,537.97 408.78,570.02 " fill="transparent" id="zebra_plugin-control_plane_interface" style="stroke:#181818;stroke-width:1;"/></g><a href="https://en.wikipedia.org/wiki/Unix_domain_socket" target="_top" title="https://en.wikipedia.org/wiki/Unix_domain_socket" xlink:actuate="onRequest" xlink:href="https://en.wikipedia.org/wiki/Unix_domain_socket" xlink:show="new" xlink:title="https://en.wikipedia.org/wiki/Unix_domain_socket" xlink:type="simple"><text fill="#0000FF" font-family="sans-serif" font-size="13" lengthAdjust="spacing" textLength="68.9781" x="335.78" y="499.637">unix socket</text></a><!--link routing_daemons to zebra--><g id="link_routing_daemons_zebra"><path d="M313.96,408.68 C322.315,408.68 324.025,408.68 330.055,408.68 C331.5625,408.68 332.965,408.68 334.2463,408.68 C334.4065,408.68 328.5648,408.68 328.7211,408.68 " fill="transparent" id="routing_daemons-zebra" style="stroke:#181818;stroke-width:1;"/><polygon fill="#181818" points="307.96,408.68,316.96,412.68,312.96,408.68,316.96,404.68,307.96,408.68" style="stroke:#181818;stroke-width:1;"/><polygon fill="#181818" points="334.7211,408.68,325.7211,404.68,329.7211,408.68,325.7211,412.68,334.7211,408.68" style="stroke:#181818;stroke-width:1;"/></g><!--link routing_manager to dataplane_workers--><g id="link_routing_manager_dataplane_workers"><path d="M403.65,822.58 C403.65,839.84 403.65,852.86 403.65,870.21 " fill="transparent" id="routing_manager-dataplane_workers" style="stroke:#181818;stroke-width:1;"/><polygon fill="#181818" points="403.65,816.58,399.65,825.58,403.65,821.58,407.65,825.58,403.65,816.58" style="stroke:#181818;stroke-width:1;"/><polygon fill="#181818" points="403.65,876.21,407.65,867.21,403.65,871.21,399.65,867.21,403.65,876.21" style="stroke:#181818;stroke-width:1;"/></g><!--link state_sync to sister_state_sync--><g id="link_state_sync_sister_state_sync"><path d="M708.87,693.68 C736.75,693.68 760.92,693.68 788.78,693.68 " fill="transparent" id="state_sync-sister_state_sync" style="stroke:#181818;stroke-width:1;"/><polygon fill="#181818" points="702.87,693.68,711.87,697.68,707.87,693.68,711.87,689.68,702.87,693.68" style="stroke:#181818;stroke-width:1;"/><polygon fill="#181818" points="794.78,693.68,785.78,689.68,789.78,693.68,785.78,697.68,794.78,693.68" style="stroke:#181818;stroke-width:1;"/></g><a href="https://en.wikipedia.org/wiki/Remote_direct_memory_access" target="_top" title="https://en.wikipedia.org/wiki/Remote_direct_memory_access" xlink:actuate="onRequest" xlink:href="https://en.wikipedia.org/wiki/Remote_direct_memory_access" xlink:show="new" xlink:title="https://en.wikipedia.org/wiki/Remote_direct_memory_access" xlink:type="simple"><text fill="#0000FF" font-family="sans-serif" font-size="13" lengthAdjust="spacing" textLength="32.812" x="715.83" y="689.577">rdma</text></a><!--link zebra to kernel--><g id="link_zebra_kernel"><path d="M328.4586,432.68 C327.6421,432.68 332.1717,432.68 331.2549,432.68 C323.9208,432.68 313.4434,432.68 300.8706,432.68 C275.725,432.68 242.1975,432.68 208.67,432.68 C141.615,432.68 74.56,432.68 74.56,432.68 C74.56,432.68 74.56,606.35 74.56,667.41 " fill="transparent" id="zebra-kernel" style="stroke:#181818;stroke-width:1;"/><polygon fill="#181818" points="334.4586,432.68,325.4586,428.68,329.4586,432.68,325.4586,436.68,334.4586,432.68" style="stroke:#181818;stroke-width:1;"/><polygon fill="#181818" points="74.56,673.41,78.56,664.41,74.56,668.41,70.56,664.41,74.56,673.41" style="stroke:#181818;stroke-width:1;"/></g><a href="https://man7.org/linux/man-pages/man7/netlink.7.html" target="_top" title="https://man7.org/linux/man-pages/man7/netlink.7.html" xlink:actuate="onRequest" xlink:href="https://man7.org/linux/man-pages/man7/netlink.7.html" xlink:show="new" xlink:title="https://man7.org/linux/man-pages/man7/netlink.7.html" xlink:type="simple"><text fill="#0000FF" font-family="sans-serif" font-size="13" lengthAdjust="spacing" textLength="84.4221" x="12.21" y="428.577">netlink socket</text></a><!--SRC=[jLPDZzCm43tZNp4RUg1YanwHLe24aE32QH4NkbNaJTnkrCJfseww2zh_ZiTs4jj9AWvmQZrlvisdFP77Yf-ee0qyF9-Og2j-_C5ByuV1djQI4Jcee51fDMY5UcZ9LSSVkrQn4lOTBrJLSbWXmPiLfmsxXbKdwZMv4anrWaEotIRmrWZrJmBcW8fuskqISiLusHCHShLwX0_m6nBqaDn0SfSay8BoiYroT2CH9m19qV9zTSYbQWLgQXl5dXJQV3P89wW9xhjHkDQKeaRqTU73gRM7bslaF535plGvfmV6LKZwrKBmoK0UdRD9hOqZsWinH_BbzXPeJA1rG-DVx5xGqD2AHgC7fKxoPhFHLP6P9cWxLV53reh3Xl5DhKEIQcECiWVLr3spqyjBofgMoz270w47lH0TbFQG7sX-ghj3nKEkduZStN67ULJ69dLontDaWhCwP72oQSgCP-VgM9rOML6JC9ustohUFUNEoD5MN36nfmNB6yfrXKNeOO2XXxqm1p3jmQY4ivHz2MS8-n96T2LLz5HJpl9pAtJuKKy667hOenp0j0STAQTgFZuDpCMcnN5S-f8eqTQvZMseHaZdbC16E2g5bmrLKXldgEBSMA-D7lxBdaQzIyv6hIL_KkchaSjdNeJyHWv6xl4PQMgaatOrRHcFxDWi2ywsoa8BwLzE-bAgitsxqAt57aqoNSXnDZjyg_6rNbWHh7opEhBdDNdLhmUtEOR7VOluBaDlUfF4OhjPmeKnuqeuBm335XAiK9GVQcONa8RDDgBIdXypvC1_VfWZyXTEo_kfLwpBFPN_ngbEAnwNjTc46WZs5eQ0uVWBSerjqOhsWLoR_y6e35JHYbXRgNcrhSvuTYy_ghnOjM7jzVw6oHZu5nuMvsVvFUYpYcxWEepQlM9Ewhs3JZBUVoUOx0WddxpB9gDnZ6GbjM4-NddigXM2TnqmwT58wAri5BCiImB4qOtXMRxnLGgzywgGX2oK4j8KeYgHIJhmFaq_6XwuWUqM-krwFf-pybGUpMO5_0Ux7HdwQisY6ObXCnmac4cCQT2QGijj9_uKesfWIoRjcqj-gcJ2j7SXJ5yhl3Efr_WzWSVqf2sa0JRwEnYlQlREV5I1Eu9iYoDJMAV8CwGmTdG2sWwC8pgl44qsMIxLNEeUlQMR30BnhxAcI65fh892pN-5_U3LKrws3QruxghIQP5NeMXqT53zl4I9BeNhNH6qdLwSlmZpLllMwcM5Doflz4deWIeA9YM8ig4wJXEJyV0VnkGF]--></g></svg>