<?xml version="1.0" encoding="UTF-8" standalone="no"?>
<!--
  - SPDX-License-Identifier: Apache-2.0
  - Copyright Open Network Fabric Authors
  -
  -->

<!DOCTYPE svg PUBLIC "-//W3C//DTD SVG 1.1//EN"
 "http://www.w3.org/Graphics/SVG/1.1/DTD/svg11.dtd">
<!-- Generated by graphviz version 12.2.1 (0)
 -->
<!-- Title: features Pages: 1 -->
<svg width="550pt" height="709pt"
 viewBox="0.00 0.00 550.38 708.50" xmlns="http://www.w3.org/2000/svg" xmlns:xlink="http://www.w3.org/1999/xlink">
<g id="graph0" class="graph" transform="scale(1 1) rotate(0) translate(4 704.5)">
<title>features</title>
<polygon fill="white" stroke="none" points="-4,4 -4,-704.5 546.38,-704.5 546.38,4 -4,4"/>
<!-- BGP_underlay -->
<g id="node1" class="node">
<title>BGP_underlay</title>
<polygon fill="lightblue" stroke="lightblue" points="358.38,-512.5 243.38,-512.5 243.38,-476.5 358.38,-476.5 358.38,-512.5"/>
<text text-anchor="middle" x="300.88" y="-489.82" font-family="Times,serif" font-size="14.00">BGP underlay</text>
</g>
<!-- EVPN_overlay -->
<g id="node2" class="node">
<title>EVPN_overlay</title>
<polygon fill="lightblue" stroke="lightblue" points="367.38,-418.5 252.38,-418.5 252.38,-382.5 367.38,-382.5 367.38,-418.5"/>
<text text-anchor="middle" x="309.88" y="-395.82" font-family="Times,serif" font-size="14.00">EVPN overlay</text>
</g>
<!-- BGP_underlay&#45;&gt;EVPN_overlay -->
<g id="edge9" class="edge">
<title>BGP_underlay&#45;&gt;EVPN_overlay</title>
<path fill="none" stroke="black" d="M302.57,-476.2C303.84,-463.22 305.6,-445.16 307.08,-430.06"/>
<polygon fill="black" stroke="black" points="310.55,-430.53 308.04,-420.23 303.59,-429.84 310.55,-430.53"/>
</g>
<!-- VPC_routing -->
<g id="node3" class="node">
<title>VPC_routing</title>
<polygon fill="lightblue" stroke="lightblue" points="421.38,-230.5 318.38,-230.5 318.38,-188 421.38,-188 421.38,-230.5"/>
<text text-anchor="middle" x="369.88" y="-213.2" font-family="Times,serif" font-size="14.00">VPC routing</text>
<text text-anchor="middle" x="369.88" y="-195.95" font-family="Times,serif" font-size="14.00">(aka RIOT)</text>
</g>
<!-- EVPN_overlay&#45;&gt;VPC_routing -->
<g id="edge10" class="edge">
<title>EVPN_overlay&#45;&gt;VPC_routing</title>
<path fill="none" stroke="black" d="M312.91,-382.31C317.02,-360.27 325.1,-321 335.88,-288.5 341.18,-272.48 348.5,-255.22 354.99,-240.99"/>
<polygon fill="black" stroke="black" points="358.06,-242.69 359.11,-232.15 351.71,-239.74 358.06,-242.69"/>
</g>
<!-- state_sync -->
<g id="node11" class="node">
<title>state_sync</title>
<polygon fill="none" stroke="black" points="248.25,-324.5 159.5,-324.5 159.5,-288.5 248.25,-288.5 248.25,-324.5"/>
<text text-anchor="middle" x="203.88" y="-301.82" font-family="Times,serif" font-size="14.00">state sync</text>
</g>
<!-- EVPN_overlay&#45;&gt;state_sync -->
<g id="edge11" class="edge">
<title>EVPN_overlay&#45;&gt;state_sync</title>
<path fill="none" stroke="black" d="M289.94,-382.2C273.65,-368.06 250.43,-347.91 232.21,-332.09"/>
<polygon fill="black" stroke="black" points="234.71,-329.63 224.87,-325.72 230.12,-334.92 234.71,-329.63"/>
</g>
<!-- hardware_offloaded_vpc -->
<g id="node14" class="node">
<title>hardware_offloaded_vpc</title>
<polygon fill="none" stroke="black" points="486.5,-324.5 345.25,-324.5 345.25,-288.5 486.5,-288.5 486.5,-324.5"/>
<text text-anchor="middle" x="415.88" y="-301.82" font-family="Times,serif" font-size="14.00">VPC route offload</text>
</g>
<!-- EVPN_overlay&#45;&gt;hardware_offloaded_vpc -->
<g id="edge12" class="edge">
<title>EVPN_overlay&#45;&gt;hardware_offloaded_vpc</title>
<path fill="none" stroke="black" d="M329.81,-382.2C346.1,-368.06 369.32,-347.91 387.54,-332.09"/>
<polygon fill="black" stroke="black" points="389.63,-334.92 394.88,-325.72 385.04,-329.63 389.63,-334.92"/>
</g>
<!-- VPC_nat44_66 -->
<g id="node4" class="node">
<title>VPC_nat44_66</title>
<polygon fill="lightblue" stroke="lightblue" points="339,-130 224.75,-130 224.75,-94 339,-94 339,-130"/>
<text text-anchor="middle" x="281.88" y="-107.33" font-family="Times,serif" font-size="14.00">VPC nat44/66</text>
</g>
<!-- VPC_routing&#45;&gt;VPC_nat44_66 -->
<g id="edge18" class="edge">
<title>VPC_routing&#45;&gt;VPC_nat44_66</title>
<path fill="none" stroke="black" d="M350.78,-187.58C337.47,-173.18 319.63,-153.87 305.44,-138.51"/>
<polygon fill="black" stroke="black" points="308.37,-136.52 299.01,-131.55 303.23,-141.27 308.37,-136.52"/>
</g>
<!-- VPC_nat64 -->
<g id="node5" class="node">
<title>VPC_nat64</title>
<polygon fill="lightblue" stroke="lightblue" points="206.75,-130 115,-130 115,-94 206.75,-94 206.75,-130"/>
<text text-anchor="middle" x="160.88" y="-107.33" font-family="Times,serif" font-size="14.00">VPC nat64</text>
</g>
<!-- VPC_routing&#45;&gt;VPC_nat64 -->
<g id="edge19" class="edge">
<title>VPC_routing&#45;&gt;VPC_nat64</title>
<path fill="none" stroke="black" d="M324.53,-187.58C290.58,-172.11 244.22,-150.98 209.5,-135.16"/>
<polygon fill="black" stroke="black" points="211.06,-132.03 200.51,-131.06 208.16,-138.4 211.06,-132.03"/>
</g>
<!-- telemetry -->
<g id="node6" class="node">
<title>telemetry</title>
<polygon fill="lightblue" stroke="lightblue" points="416.62,-36 231.12,-36 231.12,0 416.62,0 416.62,-36"/>
<text text-anchor="middle" x="323.88" y="-13.32" font-family="Times,serif" font-size="14.00">Telemetry/observability</text>
</g>
<!-- VPC_routing&#45;&gt;telemetry -->
<g id="edge17" class="edge">
<title>VPC_routing&#45;&gt;telemetry</title>
<path fill="none" stroke="black" d="M366.71,-187.86C362.96,-164.88 356.17,-126.49 347.88,-94 343.89,-78.37 338.48,-61.22 333.8,-47.27"/>
<polygon fill="black" stroke="black" points="337.13,-46.17 330.59,-37.84 330.5,-48.43 337.13,-46.17"/>
</g>
<!-- rate_limiting -->
<g id="node7" class="node">
<title>rate_limiting</title>
<polygon fill="lightblue" stroke="lightblue" points="504.38,-130 395.38,-130 395.38,-94 504.38,-94 504.38,-130"/>
<text text-anchor="middle" x="449.88" y="-107.33" font-family="Times,serif" font-size="14.00">Rate limiting</text>
</g>
<!-- VPC_routing&#45;&gt;rate_limiting -->
<g id="edge20" class="edge">
<title>VPC_routing&#45;&gt;rate_limiting</title>
<path fill="none" stroke="black" d="M387.23,-187.58C399.22,-173.31 415.25,-154.23 428.09,-138.94"/>
<polygon fill="black" stroke="black" points="430.51,-141.5 434.26,-131.59 425.15,-137 430.51,-141.5"/>
</g>
<!-- VPC_nat44_66&#45;&gt;telemetry -->
<g id="edge15" class="edge">
<title>VPC_nat44_66&#45;&gt;telemetry</title>
<path fill="none" stroke="black" d="M289.77,-93.7C295.82,-80.46 304.27,-61.95 311.25,-46.66"/>
<polygon fill="black" stroke="black" points="314.41,-48.15 315.38,-37.6 308.05,-45.25 314.41,-48.15"/>
<text text-anchor="middle" x="284.43" y="-69.11" font-family="Times,serif" font-size="14.00">weak</text>
</g>
<!-- VPC_nat64&#45;&gt;telemetry -->
<g id="edge16" class="edge">
<title>VPC_nat64&#45;&gt;telemetry</title>
<path fill="none" stroke="black" d="M191.53,-93.7C217.41,-79.09 254.66,-58.07 283.05,-42.04"/>
<polygon fill="black" stroke="black" points="284.77,-45.09 291.76,-37.13 281.33,-38.99 284.77,-45.09"/>
<text text-anchor="middle" x="223.64" y="-69.15" font-family="Times,serif" font-size="14.00">weak</text>
</g>
<!-- rate_limiting&#45;&gt;telemetry -->
<g id="edge26" class="edge">
<title>rate_limiting&#45;&gt;telemetry</title>
<path fill="none" stroke="black" d="M426.18,-93.7C406.55,-79.37 378.46,-58.86 356.68,-42.95"/>
<polygon fill="black" stroke="black" points="358.83,-40.19 348.69,-37.12 354.7,-45.84 358.83,-40.19"/>
<text text-anchor="middle" x="368.7" y="-69.1" font-family="Times,serif" font-size="14.00">weak</text>
</g>
<!-- fault_tolerance -->
<g id="node8" class="node">
<title>fault_tolerance</title>
<polygon fill="lightblue" stroke="lightblue" points="190.88,-227.25 66.88,-227.25 66.88,-191.25 190.88,-191.25 190.88,-227.25"/>
<text text-anchor="middle" x="128.88" y="-204.57" font-family="Times,serif" font-size="14.00">Fault tolerance</text>
</g>
<!-- fault_tolerance&#45;&gt;VPC_nat44_66 -->
<g id="edge7" class="edge">
<title>fault_tolerance&#45;&gt;VPC_nat44_66</title>
<path fill="none" stroke="black" d="M156.94,-190.78C181.52,-175.47 217.45,-153.11 244.47,-136.28"/>
<polygon fill="black" stroke="black" points="246.07,-139.42 252.71,-131.16 242.37,-133.47 246.07,-139.42"/>
</g>
<!-- fault_tolerance&#45;&gt;VPC_nat64 -->
<g id="edge8" class="edge">
<title>fault_tolerance&#45;&gt;VPC_nat64</title>
<path fill="none" stroke="black" d="M134.74,-190.78C139.44,-176.82 146.1,-156.98 151.53,-140.83"/>
<polygon fill="black" stroke="black" points="154.69,-142.39 154.56,-131.79 148.06,-140.16 154.69,-142.39"/>
</g>
<!-- Management_API -->
<g id="node9" class="node">
<title>Management_API</title>
<polygon fill="lightblue" stroke="lightblue" points="542.38,-700.5 403.38,-700.5 403.38,-664.5 542.38,-664.5 542.38,-700.5"/>
<text text-anchor="middle" x="472.88" y="-677.83" font-family="Times,serif" font-size="14.00">Management API</text>
</g>
<!-- all -->
<g id="node17" class="node">
<title>all</title>
<polygon fill="none" stroke="black" points="499.88,-606.5 445.88,-606.5 445.88,-570.5 499.88,-570.5 499.88,-606.5"/>
<text text-anchor="middle" x="472.88" y="-583.83" font-family="Times,serif" font-size="14.00">*</text>
</g>
<!-- Management_API&#45;&gt;all -->
<g id="edge1" class="edge">
<title>Management_API&#45;&gt;all</title>
<path fill="none" stroke="black" d="M467.46,-664.2C466.05,-651.22 465.76,-633.16 466.58,-618.06"/>
<polygon fill="black" stroke="black" points="470.05,-618.48 467.35,-608.24 463.08,-617.93 470.05,-618.48"/>
</g>
<!-- control_plane_integration -->
<g id="node10" class="node">
<title>control_plane_integration</title>
<polygon fill="none" stroke="black" points="193.75,-606.5 0,-606.5 0,-570.5 193.75,-570.5 193.75,-606.5"/>
<text text-anchor="middle" x="96.88" y="-583.83" font-family="Times,serif" font-size="14.00">control plane integration</text>
</g>
<!-- control_plane_integration&#45;&gt;BGP_underlay -->
<g id="edge21" class="edge">
<title>control_plane_integration&#45;&gt;BGP_underlay</title>
<path fill="none" stroke="black" d="M135.25,-570.2C168.34,-555.27 216.3,-533.64 252.11,-517.49"/>
<polygon fill="black" stroke="black" points="253.27,-520.81 260.95,-513.51 250.4,-514.43 253.27,-520.81"/>
</g>
<!-- state_sync&#45;&gt;fault_tolerance -->
<g id="edge22" class="edge">
<title>state_sync&#45;&gt;fault_tolerance</title>
<path fill="none" stroke="black" d="M190.12,-288.03C178.7,-273.53 162.29,-252.69 149.34,-236.23"/>
<polygon fill="black" stroke="black" points="152.42,-234.49 143.48,-228.8 146.92,-238.82 152.42,-234.49"/>
</g>
<!-- hardware_offloaded_nat -->
<g id="node12" class="node">
<title>hardware_offloaded_nat</title>
<polygon fill="none" stroke="black" points="300.75,-227.25 209,-227.25 209,-191.25 300.75,-191.25 300.75,-227.25"/>
<text text-anchor="middle" x="254.88" y="-204.57" font-family="Times,serif" font-size="14.00">offload nat</text>
</g>
<!-- hardware_offloaded_nat&#45;&gt;VPC_nat44_66 -->
<g id="edge13" class="edge">
<title>hardware_offloaded_nat&#45;&gt;VPC_nat44_66</title>
<path fill="none" stroke="black" d="M259.83,-190.78C263.75,-176.95 269.3,-157.36 273.85,-141.3"/>
<polygon fill="black" stroke="black" points="277.18,-142.39 276.54,-131.82 270.45,-140.48 277.18,-142.39"/>
</g>
<!-- hardware_offloaded_nat&#45;&gt;VPC_nat64 -->
<g id="edge14" class="edge">
<title>hardware_offloaded_nat&#45;&gt;VPC_nat64</title>
<path fill="none" stroke="black" d="M237.63,-190.78C223.19,-176.14 202.38,-155.06 186.07,-138.53"/>
<polygon fill="black" stroke="black" points="188.59,-136.1 179.07,-131.44 183.6,-141.01 188.59,-136.1"/>
</g>
<!-- hardware_offloaded_routing -->
<g id="node13" class="node">
<title>hardware_offloaded_routing</title>
<polygon fill="none" stroke="black" points="389.5,-606.5 212.25,-606.5 212.25,-570.5 389.5,-570.5 389.5,-606.5"/>
<text text-anchor="middle" x="300.88" y="-583.83" font-family="Times,serif" font-size="14.00">Underlay route offload</text>
</g>
<!-- hardware_offloaded_routing&#45;&gt;BGP_underlay -->
<g id="edge6" class="edge">
<title>hardware_offloaded_routing&#45;&gt;BGP_underlay</title>
<path fill="none" stroke="black" d="M300.88,-570.2C300.88,-557.22 300.88,-539.16 300.88,-524.06"/>
<polygon fill="black" stroke="black" points="304.38,-524.24 300.88,-514.24 297.38,-524.24 304.38,-524.24"/>
</g>
<!-- hardware_offloaded_vpc&#45;&gt;rate_limiting -->
<g id="edge24" class="edge">
<title>hardware_offloaded_vpc&#45;&gt;rate_limiting</title>
<path fill="none" stroke="black" d="M419.51,-288.26C422.67,-273.08 427.28,-250.36 430.88,-230.5 436.35,-200.2 441.89,-165.36 445.56,-141.53"/>
<polygon fill="black" stroke="black" points="449.02,-142.07 447.08,-131.65 442.1,-141.01 449.02,-142.07"/>
</g>
<!-- hardware_offloaded_vpc&#45;&gt;hardware_offloaded_nat -->
<g id="edge23" class="edge">
<title>hardware_offloaded_vpc&#45;&gt;hardware_offloaded_nat</title>
<path fill="none" stroke="black" d="M386.35,-288.03C360.36,-272.66 322.34,-250.16 293.86,-233.31"/>
<polygon fill="black" stroke="black" points="295.91,-230.46 285.52,-228.38 292.34,-236.48 295.91,-230.46"/>
</g>
<!-- hardware_offloading_basic -->
<g id="node15" class="node">
<title>hardware_offloading_basic</title>
<polygon fill="none" stroke="black" points="374.75,-700.5 247,-700.5 247,-664.5 374.75,-664.5 374.75,-700.5"/>
<text text-anchor="middle" x="310.88" y="-677.83" font-family="Times,serif" font-size="14.00">basic offloading</text>
</g>
<!-- hardware_offloading_basic&#45;&gt;hardware_offloaded_routing -->
<g id="edge5" class="edge">
<title>hardware_offloading_basic&#45;&gt;hardware_offloaded_routing</title>
<path fill="none" stroke="black" d="M308.99,-664.2C307.58,-651.22 305.62,-633.16 303.98,-618.06"/>
<polygon fill="black" stroke="black" points="307.47,-617.79 302.91,-608.23 300.51,-618.55 307.47,-617.79"/>
</g>
<!-- hardware_offloading_basic&#45;&gt;hardware_offloaded_vpc -->
<g id="edge25" class="edge">
<title>hardware_offloading_basic&#45;&gt;hardware_offloaded_vpc</title>
<path fill="none" stroke="black" d="M341.88,-664.2C361.95,-651.17 386.55,-631.31 398.88,-606.5 443.68,-516.26 430.4,-391.31 421.29,-335.91"/>
<polygon fill="black" stroke="black" points="424.79,-335.62 419.64,-326.37 417.9,-336.82 424.79,-335.62"/>
</g>
<!-- datastore_integration -->
<g id="node16" class="node">
<title>datastore_integration</title>
<polygon fill="none" stroke="black" points="210,-700.5 41.75,-700.5 41.75,-664.5 210,-664.5 210,-700.5"/>
<text text-anchor="middle" x="125.88" y="-677.83" font-family="Times,serif" font-size="14.00">datastore integration</text>
</g>
<!-- datastore_integration&#45;&gt;control_plane_integration -->
<g id="edge3" class="edge">
<title>datastore_integration&#45;&gt;control_plane_integration</title>
<path fill="none" stroke="black" d="M120.42,-664.2C116.29,-651.09 110.53,-632.81 105.74,-617.61"/>
<polygon fill="black" stroke="black" points="109.1,-616.66 102.76,-608.17 102.43,-618.76 109.1,-616.66"/>
</g>
<!-- datastore_integration&#45;&gt;hardware_offloaded_routing -->
<g id="edge4" class="edge">
<title>datastore_integration&#45;&gt;hardware_offloaded_routing</title>
<path fill="none" stroke="black" d="M158.79,-664.2C186.81,-649.46 227.27,-628.2 257.85,-612.12"/>
<polygon fill="black" stroke="black" points="259.25,-615.34 266.47,-607.59 255.99,-609.14 259.25,-615.34"/>
</g>
<!-- all&#45;&gt;Management_API -->
<g id="edge2" class="edge">
<title>all&#45;&gt;Management_API</title>
<path fill="none" stroke="black" d="M478.28,-606.73C479.69,-619.69 479.99,-637.73 479.18,-652.85"/>
<polygon fill="black" stroke="black" points="475.7,-652.44 478.41,-662.69 482.68,-652.99 475.7,-652.44"/>
</g>
</g>
</svg>
