<?xml version="1.0" encoding="UTF-8" standalone="no"?>
<!--
  - SPDX-License-Identifier: Apache-2.0
  - Copyright Open Network Fabric Authors
  -
  -->

<!DOCTYPE svg PUBLIC "-//W3C//DTD SVG 1.1//EN"
 "http://www.w3.org/Graphics/SVG/1.1/DTD/svg11.dtd">
<!-- Generated by graphviz version 12.2.1 (0)
 -->
<!-- Title: features Pages: 1 -->
<svg width="418pt" height="360pt"
 viewBox="0.00 0.00 417.92 360.00" xmlns="http://www.w3.org/2000/svg" xmlns:xlink="http://www.w3.org/1999/xlink">
<g id="graph0" class="graph" transform="scale(1 1) rotate(0) translate(4 356)">
<title>features</title>
<polygon fill="white" stroke="none" points="-4,4 -4,-356 413.92,-356 413.92,4 -4,4"/>
<!-- BGP_underlay -->
<g id="node1" class="node">
<title>BGP_underlay</title>
<polygon fill="lightblue" stroke="lightblue" points="252.92,-352 137.92,-352 137.92,-316 252.92,-316 252.92,-352"/>
<text text-anchor="middle" x="195.42" y="-329.32" font-family="Times,serif" font-size="14.00">BGP underlay</text>
</g>
<!-- EVPN_overlay -->
<g id="node2" class="node">
<title>EVPN_overlay</title>
<polygon fill="lightblue" stroke="lightblue" points="252.92,-273 137.92,-273 137.92,-237 252.92,-237 252.92,-273"/>
<text text-anchor="middle" x="195.42" y="-250.32" font-family="Times,serif" font-size="14.00">EVPN overlay</text>
</g>
<!-- BGP_underlay&#45;&gt;EVPN_overlay -->
<g id="edge3" class="edge">
<title>BGP_underlay&#45;&gt;EVPN_overlay</title>
<path fill="none" stroke="black" d="M195.42,-315.53C195.42,-306.47 195.42,-295.17 195.42,-284.86"/>
<polygon fill="black" stroke="black" points="198.92,-284.92 195.42,-274.92 191.92,-284.92 198.92,-284.92"/>
</g>
<!-- VPC_routing -->
<g id="node3" class="node">
<title>VPC_routing</title>
<polygon fill="lightblue" stroke="lightblue" points="180.92,-194 77.92,-194 77.92,-158 180.92,-158 180.92,-194"/>
<text text-anchor="middle" x="129.42" y="-171.32" font-family="Times,serif" font-size="14.00">VPC routing</text>
</g>
<!-- EVPN_overlay&#45;&gt;VPC_routing -->
<g id="edge4" class="edge">
<title>EVPN_overlay&#45;&gt;VPC_routing</title>
<path fill="none" stroke="black" d="M180.44,-236.53C171.92,-226.58 161.09,-213.94 151.59,-202.87"/>
<polygon fill="black" stroke="black" points="154.49,-200.87 145.32,-195.55 149.17,-205.42 154.49,-200.87"/>
</g>
<!-- Fault_tolerance -->
<g id="node8" class="node">
<title>Fault_tolerance</title>
<polygon fill="lightblue" stroke="lightblue" points="323.42,-194 199.42,-194 199.42,-158 323.42,-158 323.42,-194"/>
<text text-anchor="middle" x="261.42" y="-171.32" font-family="Times,serif" font-size="14.00">Fault tolerance</text>
</g>
<!-- EVPN_overlay&#45;&gt;Fault_tolerance -->
<g id="edge8" class="edge">
<title>EVPN_overlay&#45;&gt;Fault_tolerance</title>
<path fill="none" stroke="black" d="M210.4,-236.53C218.92,-226.58 229.76,-213.94 239.25,-202.87"/>
<polygon fill="black" stroke="black" points="241.67,-205.42 245.52,-195.55 236.35,-200.87 241.67,-205.42"/>
</g>
<!-- VPC_nat44_66 -->
<g id="node4" class="node">
<title>VPC_nat44_66</title>
<polygon fill="lightblue" stroke="lightblue" points="257.55,-115 143.3,-115 143.3,-79 257.55,-79 257.55,-115"/>
<text text-anchor="middle" x="200.42" y="-92.33" font-family="Times,serif" font-size="14.00">VPC nat44/66</text>
</g>
<!-- VPC_routing&#45;&gt;VPC_nat44_66 -->
<g id="edge5" class="edge">
<title>VPC_routing&#45;&gt;VPC_nat44_66</title>
<path fill="none" stroke="black" d="M145.53,-157.53C154.7,-147.58 166.36,-134.94 176.57,-123.87"/>
<polygon fill="black" stroke="black" points="179.14,-126.24 183.35,-116.52 174,-121.5 179.14,-126.24"/>
</g>
<!-- VPC_nat64 -->
<g id="node5" class="node">
<title>VPC_nat64</title>
<polygon fill="lightblue" stroke="lightblue" points="367.3,-115 275.55,-115 275.55,-79 367.3,-79 367.3,-115"/>
<text text-anchor="middle" x="321.42" y="-92.33" font-family="Times,serif" font-size="14.00">VPC nat64</text>
</g>
<!-- VPC_routing&#45;&gt;VPC_nat64 -->
<g id="edge6" class="edge">
<title>VPC_routing&#45;&gt;VPC_nat64</title>
<path fill="none" stroke="black" d="M172.99,-157.53C200.97,-146.3 237.53,-131.64 267.37,-119.68"/>
<polygon fill="black" stroke="black" points="268.64,-122.94 276.62,-115.97 266.04,-116.44 268.64,-122.94"/>
</g>
<!-- Telemetry -->
<g id="node6" class="node">
<title>Telemetry</title>
<polygon fill="lightblue" stroke="lightblue" points="228.17,-36 42.67,-36 42.67,0 228.17,0 228.17,-36"/>
<text text-anchor="middle" x="135.42" y="-13.32" font-family="Times,serif" font-size="14.00">Telemetry/observability</text>
</g>
<!-- VPC_routing&#45;&gt;Telemetry -->
<g id="edge11" class="edge">
<title>VPC_routing&#45;&gt;Telemetry</title>
<path fill="none" stroke="black" d="M77.49,-163.52C51.38,-154.84 22.03,-139.99 6.42,-115 -2.06,-101.43 -2.18,-92.49 6.42,-79 17.19,-62.12 34.06,-49.92 52.1,-41.12"/>
<polygon fill="black" stroke="black" points="53.45,-44.35 61.14,-37.07 50.58,-37.97 53.45,-44.35"/>
</g>
<!-- rate_limiting -->
<g id="node7" class="node">
<title>rate_limiting</title>
<polygon fill="lightblue" stroke="lightblue" points="124.92,-115 15.92,-115 15.92,-79 124.92,-79 124.92,-115"/>
<text text-anchor="middle" x="70.42" y="-92.33" font-family="Times,serif" font-size="14.00">Rate limiting</text>
</g>
<!-- VPC_routing&#45;&gt;rate_limiting -->
<g id="edge7" class="edge">
<title>VPC_routing&#45;&gt;rate_limiting</title>
<path fill="none" stroke="black" d="M116.03,-157.53C108.57,-147.78 99.11,-135.44 90.75,-124.53"/>
<polygon fill="black" stroke="black" points="93.54,-122.41 84.68,-116.6 87.98,-126.67 93.54,-122.41"/>
</g>
<!-- VPC_nat44_66&#45;&gt;Telemetry -->
<g id="edge12" class="edge">
<title>VPC_nat44_66&#45;&gt;Telemetry</title>
<path fill="none" stroke="black" d="M185.67,-78.53C177.36,-68.68 166.82,-56.19 157.54,-45.2"/>
<polygon fill="black" stroke="black" points="160.21,-42.94 151.09,-37.56 154.86,-47.46 160.21,-42.94"/>
<text text-anchor="middle" x="149.49" y="-61.39" font-family="Times,serif" font-size="14.00">weak</text>
</g>
<!-- VPC_nat64&#45;&gt;Telemetry -->
<g id="edge13" class="edge">
<title>VPC_nat64&#45;&gt;Telemetry</title>
<path fill="none" stroke="black" d="M279.21,-78.53C252.1,-67.3 216.69,-52.64 187.79,-40.68"/>
<polygon fill="black" stroke="black" points="189.44,-37.57 178.86,-36.98 186.76,-44.04 189.44,-37.57"/>
<text text-anchor="middle" x="210.22" y="-61.52" font-family="Times,serif" font-size="14.00">weak</text>
</g>
<!-- rate_limiting&#45;&gt;Telemetry -->
<g id="edge14" class="edge">
<title>rate_limiting&#45;&gt;Telemetry</title>
<path fill="none" stroke="black" d="M85.17,-78.53C93.48,-68.68 104.03,-56.19 113.31,-45.2"/>
<polygon fill="black" stroke="black" points="115.98,-47.46 119.75,-37.56 110.63,-42.94 115.98,-47.46"/>
<text text-anchor="middle" x="84.6" y="-61.39" font-family="Times,serif" font-size="14.00">weak</text>
</g>
<!-- Fault_tolerance&#45;&gt;VPC_nat44_66 -->
<g id="edge10" class="edge">
<title>Fault_tolerance&#45;&gt;VPC_nat44_66</title>
<path fill="none" stroke="black" d="M247.58,-157.53C239.78,-147.68 229.88,-135.19 221.17,-124.2"/>
<polygon fill="black" stroke="black" points="224.1,-122.25 215.15,-116.59 218.61,-126.6 224.1,-122.25"/>
</g>
<!-- Fault_tolerance&#45;&gt;VPC_nat64 -->
<g id="edge9" class="edge">
<title>Fault_tolerance&#45;&gt;VPC_nat64</title>
<path fill="none" stroke="black" d="M275.04,-157.53C282.71,-147.68 292.44,-135.19 301.01,-124.2"/>
<polygon fill="black" stroke="black" points="303.54,-126.64 306.93,-116.6 298.02,-122.33 303.54,-126.64"/>
</g>
<!-- Management_API -->
<g id="node9" class="node">
<title>Management_API</title>
<polygon fill="lightblue" stroke="lightblue" points="409.92,-352 270.92,-352 270.92,-316 409.92,-316 409.92,-352"/>
<text text-anchor="middle" x="340.42" y="-329.32" font-family="Times,serif" font-size="14.00">Management API</text>
</g>
<!-- all -->
<g id="node10" class="node">
<title>all</title>
<polygon fill="none" stroke="black" points="367.42,-273 313.42,-273 313.42,-237 367.42,-237 367.42,-273"/>
<text text-anchor="middle" x="340.42" y="-250.32" font-family="Times,serif" font-size="14.00">*</text>
</g>
<!-- Management_API&#45;&gt;all -->
<g id="edge2" class="edge">
<title>Management_API&#45;&gt;all</title>
<path fill="none" stroke="black" d="M334.66,-315.53C333.71,-306.47 333.44,-295.17 333.86,-284.86"/>
<polygon fill="black" stroke="black" points="337.35,-285.13 334.56,-274.91 330.37,-284.64 337.35,-285.13"/>
</g>
<!-- all&#45;&gt;Management_API -->
<g id="edge1" class="edge">
<title>all&#45;&gt;Management_API</title>
<path fill="none" stroke="black" d="M346.17,-273.4C347.13,-282.45 347.4,-293.74 346.98,-304.06"/>
<polygon fill="black" stroke="black" points="343.49,-303.8 346.29,-314.02 350.48,-304.29 343.49,-303.8"/>
</g>
</g>
</svg>
